<?xml version="1.0" encoding="UTF-8" standalone="no"?>
<!-- Created with Inkscape (http://www.inkscape.org/) -->

<svg
   xmlns:dc="http://purl.org/dc/elements/1.1/"
   xmlns:cc="http://creativecommons.org/ns#"
   xmlns:rdf="http://www.w3.org/1999/02/22-rdf-syntax-ns#"
   xmlns:svg="http://www.w3.org/2000/svg"
   xmlns="http://www.w3.org/2000/svg"
   xmlns:sodipodi="http://sodipodi.sourceforge.net/DTD/sodipodi-0.dtd"
   xmlns:inkscape="http://www.inkscape.org/namespaces/inkscape"
   width="1280"
   height="677.64624"
   id="svg5082"
   version="1.1"
   inkscape:version="0.48.4 r9939"
   sodipodi:docname="New document 8">
  <defs
     id="defs5084">
    <clipPath
       clipPathUnits="userSpaceOnUse"
       id="clipPath3074">
      <path
         inkscape:connector-curvature="0"
         d="m 0,4262.321 1024,0 0,542.117 -1024,0 0,-542.117 z"
         id="path3076" />
    </clipPath>
  </defs>
  <sodipodi:namedview
     id="base"
     pagecolor="#ffffff"
     bordercolor="#666666"
     borderopacity="1.0"
     inkscape:pageopacity="0.0"
     inkscape:pageshadow="2"
     inkscape:zoom="0.35"
     inkscape:cx="640"
     inkscape:cy="338.82317"
     inkscape:document-units="px"
     inkscape:current-layer="layer1"
     showgrid="false"
     fit-margin-top="0"
     fit-margin-left="0"
     fit-margin-right="0"
     fit-margin-bottom="0"
     inkscape:window-width="705"
     inkscape:window-height="481"
     inkscape:window-x="926"
     inkscape:window-y="633"
     inkscape:window-maximized="0" />
  <metadata
     id="metadata5087">
    <rdf:RDF>
      <cc:Work
         rdf:about="">
        <dc:format>image/svg+xml</dc:format>
        <dc:type
           rdf:resource="http://purl.org/dc/dcmitype/StillImage" />
        <dc:title></dc:title>
      </cc:Work>
    </rdf:RDF>
  </metadata>
  <g
     inkscape:label="Layer 1"
     inkscape:groupmode="layer"
     id="layer1"
     transform="translate(265,-193.5391)">
    <g
       transform="matrix(1.25,0,0,-1.25,-265,6199.0866)"
       id="g3070">
      <g
         id="g3072"
         clip-path="url(#clipPath3074)">
        <g
           id="g3078"
           transform="translate(648.2142,4809.7734)">
          <path
             inkscape:connector-curvature="0"
             d="m 0,0 c -8.98,-35.148 -16.833,-65.878 -25.378,-99.316 27.222,22.892 51.965,43.7 78.412,65.941 C 34.616,-21.785 18.093,-11.385 0,0 m -247.666,-99.15 c -8.851,34.536 -16.733,65.291 -25.413,99.15 -18.16,-11.535 -34.986,-22.225 -52.989,-33.662 26.919,-22.486 51.413,-42.944 78.402,-65.488 m 0.428,-354.006 c -27.66,-23.246 -52.099,-43.79 -78.792,-66.222 17.972,-11.373 34.823,-22.038 52.763,-33.391 8.868,33.936 16.906,64.698 26.029,99.613 m 300.543,-66.235 c -27.512,22.956 -51.994,43.385 -78.734,65.699 8.759,-34.009 16.807,-65.262 25.518,-99.099 18.384,11.535 34.983,21.954 53.216,33.4 m 49.707,48.299 c -31.636,16.197 -60.31,30.879 -92.105,47.159 16.446,-31.999 31.198,-60.702 47.051,-91.543 15.722,15.489 29.714,29.274 45.054,44.384 m -62.215,83.495 c 22.582,-27.12 43.117,-51.777 65.52,-78.683 11.622,18.469 22.274,35.398 33.544,53.308 -34.609,8.865 -65.485,16.772 -99.064,25.375 m 16.778,349.982 c -15.831,-31.266 -30.33,-59.902 -46.161,-91.173 31.904,16.353 60.31,30.917 92.746,47.542 -16.111,15.091 -30.423,28.496 -46.585,43.631 m -371.17,-127.822 c -23.004,27.487 -43.573,52.064 -65.875,78.712 -11.672,-18.785 -22.266,-35.828 -33.144,-53.327 34.255,-8.782 64.783,-16.61 99.019,-25.385 m -17.773,-351.223 c 16.427,32.277 31.029,60.961 47.105,92.546 -31.907,-16.364 -60.594,-31.074 -90.605,-46.465 15.049,-15.939 28.531,-30.221 43.5,-46.081 m 17.7,129.242 c -34.214,-8.884 -65.406,-16.986 -99.712,-25.892 12.244,-18.642 23.122,-35.206 34.408,-52.386 22.57,27.053 42.919,51.445 65.304,78.278 m -17.592,350.071 c -15.269,-15.004 -29.6,-29.083 -44.961,-44.179 33.279,-17.229 63.041,-32.635 93.34,-48.318 -16.048,30.681 -31.47,60.166 -48.379,92.497 m 265.12,-437.351 0,-102.338 c 22.305,8.003 40.985,14.707 60.543,21.727 -21.976,29.265 -41.598,55.386 -60.543,80.611 m -66.484,506.7 c 7.208,-35.056 13.718,-66.704 20.818,-101.243 14.653,32.979 27.848,62.68 41.77,94.016 -21.491,2.483 -40.519,4.678 -62.588,7.227 m 296.986,-378.464 -102.967,0 c 25.808,-19.442 52.195,-39.319 81.102,-61.095 7.125,19.906 13.676,38.213 21.865,61.095 m -601.828,3.284 c 32.299,14.634 61.535,27.88 93.458,42.341 -34.775,6.982 -66.172,13.284 -100.829,20.24 2.483,-21.076 4.831,-41.023 7.371,-62.581 m 21.973,197.838 c -7.125,-20.119 -13.762,-38.86 -21.65,-61.139 l 102.74,0 c -25.464,19.2 -51.946,39.166 -81.09,61.139 m 208.943,-431.668 0,102.667 c -20.154,-26.769 -39.661,-52.673 -61.12,-81.175 20.189,-7.1 38.525,-13.546 61.12,-21.492 m 65.795,-7.473 c -6.863,34.507 -13.166,66.171 -20.122,101.139 -14.688,-32.836 -28.046,-62.703 -42.262,-94.486 22.031,-2.348 41.573,-4.432 62.384,-6.653 m 313.027,312.092 c -2.929,22.381 -5.511,42.092 -8.191,62.575 -32.456,-14.762 -61.638,-28.033 -93.145,-42.364 34.644,-6.908 65.922,-13.146 101.336,-20.211 M -69.851,-577.518 c -14.468,32.171 -27.685,61.557 -42.264,93.977 -7.018,-35.225 -13.32,-66.873 -20.19,-101.361 21.801,2.578 41.234,4.876 62.454,7.384 M -203.41,24.43 c 15.052,-32.988 28.212,-61.838 42.574,-93.314 6.976,34.878 13.297,66.485 20.183,100.928 -21.95,-2.665 -41.393,-5.023 -62.757,-7.614 m -3.204,-0.009 c -23.421,-8.514 -41.699,-15.161 -60.82,-22.11 21.827,-28.981 41.531,-55.144 60.82,-80.755 l 0,102.865 z m 378.366,-304.985 c -35.602,-7.184 -66.81,-13.479 -100.985,-20.372 32.497,-14.583 61.988,-27.819 93.952,-42.163 2.447,21.786 4.64,41.279 7.033,62.535 M -415.639,-407.78 c 29.207,22.053 55.293,41.748 79.892,60.32 l -100.991,0 c 7.649,-21.868 13.922,-39.808 21.099,-60.32 M -5.233,2.754 c -20.541,7.068 -39.154,13.473 -61.322,21.099 l 0,-102.648 c 19.309,25.678 38.883,51.71 61.322,81.549 m -338.676,-254.753 c -32.312,14.545 -61.73,27.791 -93.882,42.268 -2.307,-21.941 -4.391,-41.77 -6.59,-62.662 34.84,7.072 66.07,13.413 100.472,20.394 m 561.404,-251.558 c -37.281,10.121 -70.521,19.145 -105.249,28.575 17.254,-32.165 33.346,-62.154 51.228,-95.491 18.352,22.73 35.331,43.765 54.021,66.916 M 90.707,-630.655 c 23.195,19.003 44.371,36.349 66.526,54.496 -33.901,18.09 -63.667,33.978 -95.29,50.852 9.644,-35.324 18.626,-68.217 28.764,-105.348 m -279.598,-62.951 c -7.055,38.304 -13.262,71.992 -19.726,107.092 -21.473,-29.717 -41.426,-57.335 -63.642,-88.084 28.649,-6.532 54.882,-12.515 83.368,-19.008 m -196.207,615.472 c -17.544,32.512 -33.873,62.773 -51.739,95.889 -18.805,-23.719 -35.64,-44.952 -53.245,-67.158 36.144,-9.892 68.944,-18.868 104.984,-28.731 m 21.536,155.462 c -22.516,-18.071 -43.908,-35.239 -67.078,-53.832 33.796,-18.042 63.797,-34.058 95.685,-51.082 -9.726,35.675 -18.664,68.45 -28.607,104.914 m 644.155,-301.415 c -6.484,28.109 -12.604,54.646 -19.213,83.3 -31.23,-22.707 -58.956,-42.864 -87.822,-63.854 35.685,-6.484 69.28,-12.586 107.035,-19.446 m -834.479,-104.728 c 6.73,-28.968 12.802,-55.115 19.405,-83.534 31.23,22.748 59.052,43.017 87.841,63.992 -35.512,6.471 -69.19,12.607 -107.246,19.542 m 727.211,-19.523 c 29.766,-21.565 57.396,-41.579 88.435,-64.066 6.401,28.553 12.362,55.141 18.677,83.327 -37.816,-6.8 -71.449,-12.847 -107.112,-19.261 m -619.563,143.735 c -29.66,21.408 -57.687,41.639 -88.435,63.839 -6.561,-28.882 -12.537,-55.204 -18.862,-83.043 37.702,6.749 71.612,12.816 107.297,19.204 m 171.599,-358.399 c -27.251,-23.738 -53.29,-46.423 -82.165,-71.574 26.721,-12.902 50.998,-24.619 76.785,-37.07 1.883,38.014 3.577,72.247 5.38,108.644 m 492.625,513.931 c -19.095,23.157 -36.492,44.253 -54.843,66.504 -18.109,-34.052 -33.959,-63.846 -50.801,-95.516 35.238,9.678 68.128,18.711 105.644,29.012 M -64.665,-586.29 c -6.491,-36.311 -12.554,-70.228 -19.229,-107.559 29.248,6.816 55.325,12.891 83.103,19.363 -22.398,30.924 -42.39,58.529 -63.874,88.196 m -299.13,-44.521 c 10.243,37.74 19.209,70.767 28.683,105.673 -32.726,-17.602 -62.655,-33.703 -95.506,-51.375 23.068,-18.744 44.103,-35.835 66.823,-54.298 m 365.461,67.904 c 1.783,-36.811 3.459,-71.324 5.29,-109.144 26.699,13.233 51.142,25.349 76.377,37.854 -29.064,25.372 -54.748,47.792 -81.667,71.29 m -496.139,66.134 c 25.818,29.749 48.36,55.718 71.277,82.126 -36.32,-1.784 -70.891,-3.481 -108.618,-5.335 12.838,-26.396 24.625,-50.638 37.341,-76.791 m 305.48,637.627 c -28.748,-6.721 -54.856,-12.828 -83.154,-19.443 22.503,-31.061 42.727,-58.976 63.699,-87.921 6.433,35.499 12.537,69.177 19.455,107.364 M 221.436,-56.12 c -25.672,-29.577 -48.108,-55.424 -71.156,-81.98 35.78,1.679 70.364,3.303 108.564,5.097 -12.755,26.213 -24.577,50.506 -37.408,76.883 M -84.076,140.576 c 6.857,-37.641 13.029,-71.485 19.529,-107.157 21.43,29.642 41.668,57.633 63.858,88.324 -28.866,6.519 -55.204,12.467 -83.387,18.833 m -300.595,-614.987 c -35.889,-10.004 -69.174,-19.283 -105.631,-29.446 18.377,-22.819 35.34,-43.88 53.781,-66.778 18.316,33.993 34.737,64.468 51.85,96.224 M 1.739,10.189 C 28.623,33.602 54.933,56.509 83.882,81.715 56.924,94.629 32.644,106.263 6.88,118.606 5.077,80.604 3.437,46.014 1.739,10.189 M 61.905,-27.902 C 94.511,-10.361 124.465,5.753 157.9,23.741 134.264,42.472 112.734,59.531 90.56,77.107 80.547,40.411 71.577,7.543 61.905,-27.902 M -494.32,-56.187 c -12.598,-25.751 -24.688,-50.475 -37.596,-76.858 38.337,-1.797 72.908,-3.414 108.634,-5.09 -23.189,26.747 -45.877,52.923 -71.038,81.948 m 753.314,-363.731 c -38.72,1.806 -73.179,3.411 -108.925,5.08 23.483,-26.913 46.183,-52.929 71.306,-81.725 12.518,25.502 24.398,49.709 37.619,76.645 M -274.728,10.017 c -1.794,36.734 -3.479,71.207 -5.336,109.259 -26.836,-13.456 -51.088,-25.62 -76.255,-38.244 29.054,-25.288 54.716,-47.625 81.591,-71.015 m 138.189,-600.653 c -15.292,-35.81 -29.386,-68.817 -43.695,-102.335 l 87.443,0 c -14.832,34.695 -28.748,67.243 -43.748,102.335 m 417.298,358.421 c -35.12,-15.166 -68.3,-29.494 -102.88,-44.428 35.656,-15.198 68.772,-29.312 102.88,-43.854 l 0,88.282 z m -835.009,-88.681 c 35.924,15.493 68.769,29.654 103.385,44.585 -35.777,15.247 -68.845,29.338 -103.385,44.058 l 0,-88.643 z m 461.794,461.459 -88.122,0 c 14.975,-34.912 29.07,-67.77 44.074,-102.75 15.045,35.098 29.134,67.962 44.048,102.75 m -447.67,-559.081 c -38.634,6.032 -75.952,11.861 -117.477,18.346 13.597,-37.492 25.736,-70.958 38.35,-105.731 28.087,31.02 52.916,58.437 79.127,87.385 M 93.372,-759.571 c -31.288,28.279 -59.394,53.682 -87.807,79.363 -6.037,-38.301 -11.87,-75.326 -18.425,-116.905 36.725,12.978 70.419,24.887 106.232,37.542 m 173.727,341.053 c 26.204,-28.926 51.365,-56.703 79.366,-87.614 12.694,35.483 24.749,69.174 37.941,106.049 -41.563,-6.532 -78.604,-12.353 -117.307,-18.435 m -545.698,-261.706 c -29.003,-26.188 -56.79,-51.272 -87.848,-79.315 35.937,-12.649 69.889,-24.599 106.301,-37.414 -6.64,42.009 -12.409,78.511 -18.453,116.729 M 5.603,127.228 c 28.671,25.949 56.688,51.308 87.906,79.561 -36.448,12.707 -70.11,24.443 -106.321,37.067 6.574,-41.624 12.41,-78.585 18.415,-116.628 M 346.446,-46.757 c -28.569,-31.582 -53.743,-59.407 -79.35,-87.711 38.732,-6.034 76.127,-11.861 117.332,-18.282 -13.255,36.997 -25.196,70.314 -37.982,105.993 M -366.38,206.556 c 31.779,-28.725 59.585,-53.861 87.864,-79.42 6.015,38.556 11.838,75.885 18.297,117.275 -37.328,-13.31 -70.636,-25.186 -106.161,-37.855 m -173.797,-340.842 c -26.514,29.255 -51.608,56.946 -79.44,87.656 -12.71,-36.135 -24.545,-69.774 -37.36,-106.205 41.62,6.608 78.594,12.48 116.8,18.549 m 101.888,159.881 c -11.577,38.321 -22.244,73.619 -34.418,113.919 -27.171,-27.354 -52.553,-52.907 -79.561,-80.097 40.867,-12.126 76.175,-22.603 113.979,-33.822 m 632.955,118.182 c -33.208,20.706 -63.893,39.839 -96.533,60.191 -2.359,-42.753 -4.407,-79.969 -6.513,-118.188 33.818,19.034 65.958,37.121 103.046,57.997 m -812.308,-655.066 c 21.456,-33.646 40.73,-63.871 61.133,-95.87 20.41,36.323 38.678,68.839 57.693,102.686 -38.496,-2.208 -75.773,-4.346 -118.826,-6.816 m 144.951,-180.687 c 12.215,39.709 23.246,75.576 35.161,114.317 -39.383,-11.956 -75.004,-22.774 -116.314,-35.318 27.949,-27.209 53.283,-51.869 81.153,-78.999 m -84.041,746.431 c -20.538,-32.769 -39.722,-63.38 -60.291,-96.203 42.712,-2.447 79.95,-4.579 118.616,-6.793 -19.354,34.175 -37.718,66.605 -58.325,102.996 m 370.952,-755.621 c -22.352,-31.97 -44.147,-63.143 -68.456,-97.912 39.087,-4.072 75.132,-7.828 112.428,-11.714 -15.77,39.319 -29.59,73.769 -43.972,109.626 m -283.143,4.751 c 34.431,-21.344 64.838,-40.19 97.619,-60.51 2.409,42.271 4.535,79.602 6.724,118.022 -33.732,-18.591 -66.453,-36.626 -104.343,-57.512 M 279.85,59.745 C 251.925,87.382 226.551,112.499 199.491,139.284 186.989,98.075 176.207,62.528 164.636,24.386 203.844,36.419 239.213,47.275 279.85,59.745 m 8.076,-286.975 c 36.537,-14.603 71.814,-28.697 110.543,-44.176 -4.43,38.464 -8.539,74.171 -12.924,112.246 -34.536,-24.083 -65.731,-45.836 -97.619,-68.07 m -62.013,178.769 c 38.464,2.246 75.833,4.429 118.395,6.911 -21.077,33.365 -40.357,63.887 -61.2,96.882 C 262.635,18.179 244.841,-14.107 225.913,-48.461 M 98.26,-757.452 c 33.454,21.275 64.059,40.736 96.023,61.063 -37.015,20.744 -69.675,39.045 -102.794,57.604 2.176,-38.155 4.295,-75.269 6.771,-118.667 m -565.941,900.843 c 36.648,-20.516 69.215,-38.742 103.171,-57.748 -2.295,38.783 -4.519,76.434 -7.017,118.705 -33.346,-21.14 -63.628,-40.337 -96.154,-60.957 m 632.936,-721.573 c 11.357,-38.091 22.158,-74.305 32.813,-110.032 26.894,26.109 52.613,51.075 78.923,76.61 -38.148,11.411 -73.62,22.021 -111.736,33.422 M -18.881,-798.791 c -24.909,35.522 -46.748,66.666 -68.434,97.59 -14.542,-36.317 -28.521,-71.229 -44.055,-110.019 37.807,4.177 73.584,8.131 112.489,12.429 m -542.031,571.593 c -32.293,22.468 -63.437,44.134 -98.04,68.207 -4.197,-38.902 -8.074,-74.819 -12.117,-112.304 39.415,15.78 74.178,29.696 110.157,44.097 m 848.937,-98.599 c 31.901,-22.209 63.431,-44.16 97.852,-68.124 4.314,38.99 8.258,74.621 12.442,112.425 -39.179,-15.738 -73.996,-29.721 -110.294,-44.301 m -542.076,571.532 c 24.947,-35.652 46.735,-66.797 68.307,-97.622 14.515,36.205 28.62,71.392 44.179,110.192 -38.362,-4.286 -74.041,-8.275 -112.486,-12.57 m -404.716,-639.711 c 35.633,24.868 66.685,46.538 97.708,68.192 -36.559,14.675 -71.794,28.821 -110.396,44.316 4.302,-38.148 8.325,-73.836 12.688,-112.508 m 571.72,541.872 c 22.375,32.29 43.997,63.495 68.01,98.146 -38.915,4.164 -74.989,8.028 -112.327,12.023 15.7,-39.032 29.708,-73.855 44.317,-110.169 m 370.49,-756.198 c 20.942,33.694 40.079,64.487 60.399,97.176 -43.056,2.438 -80.467,4.553 -118.363,6.701 18.913,-33.892 36.967,-66.248 57.964,-103.877 M 76.447,337.495 c -46.659,10.569 -89.642,20.305 -135.171,30.618 15.847,-42.539 29.845,-80.116 43.915,-117.879 29.487,28.199 58.251,55.703 91.256,87.261 m 313.744,-735.673 c 28.03,-29.293 55.83,-58.341 87.114,-91.036 10.626,46.493 20.442,89.453 30.851,135.005 -41.927,-15.627 -79.667,-29.693 -117.965,-43.969 m -1053.41,243.326 c -28.419,29.705 -56.161,58.701 -87.261,91.208 -10.578,-46.652 -20.304,-89.555 -30.62,-135.049 41.754,15.53 78.945,29.36 117.881,43.841 m 405.167,404.914 c 14.295,38.723 28.202,76.399 43.627,118.185 -45.73,-10.482 -88.623,-20.31 -134.82,-30.898 32.648,-31.25 61.727,-59.085 91.193,-87.287 m 43.853,-1171.336 c -15.859,42.826 -29.765,80.378 -45.002,121.516 -28.997,-31.836 -56.018,-61.503 -83.789,-91.993 40.254,-9.228 82.867,-18.996 128.791,-29.523 m 722.782,722.386 c -10.945,46.554 -20.968,89.191 -31.699,134.848 -31.345,-32.889 -58.737,-61.624 -86.543,-90.803 37.966,-14.142 75.63,-28.173 118.242,-44.045 M -750.269,-489.3 c 31.604,33.116 59.177,62.01 87.13,91.304 -39.045,14.436 -76.558,28.307 -118.335,43.755 10.661,-46.149 20.506,-88.748 31.205,-135.059 m 735.316,-313.808 c -14.395,-38.809 -28.326,-76.364 -43.93,-118.431 46.403,10.84 89.172,20.831 134.854,31.505 -32.59,31.157 -61.286,58.589 -90.924,86.926 m -543.739,189.723 c -41.039,-3.998 -80.476,-7.84 -125.52,-12.231 29.784,-37.048 57.233,-71.188 86.514,-107.607 14.181,43.56 26.466,81.31 39.006,119.838 M 414.72,66.973 c -23.16,-38.931 -43.652,-73.387 -64.451,-108.35 41.489,-5.4 81.21,-10.569 124.882,-16.255 -20.419,42.102 -39.52,81.485 -60.431,124.605 m -770.145,268.212 c -42.163,-20.537 -81.983,-39.932 -124.299,-60.546 39.09,-23.313 73.562,-43.873 108.187,-64.525 5.249,40.749 10.374,80.528 16.112,125.071 M -684.477,72.439 c 45.797,-4.34 85.691,-8.118 125.795,-11.918 -12.713,38.936 -25.132,76.963 -39.16,119.927 -29.516,-36.799 -56.72,-70.716 -86.635,-108.009 m 897.134,-896.554 c 37.076,29.788 71.204,57.205 107.645,86.482 -43.736,14.216 -81.507,26.492 -120.029,39.013 3.941,-39.951 7.885,-79.902 12.384,-125.495 m -698.131,-0.293 c 4.397,46.065 8.194,85.821 12.023,125.938 -39.412,-12.955 -77.059,-25.33 -119.821,-39.389 36.594,-29.38 70.553,-56.647 107.798,-86.549 m 810.406,90.742 c 29.66,37.27 56.793,71.363 86.045,108.117 -45.471,4.426 -85.467,8.316 -125.431,12.206 12.62,-38.557 24.972,-76.287 39.386,-120.323 M 200.439,145.825 c 38.614,12.547 76.778,24.95 120.3,39.093 -37.427,29.718 -71.695,56.927 -108.292,85.985 -4.388,-45.715 -8.189,-85.293 -12.008,-125.078 M -623.118,-41.406 c -21.277,35.535 -41.907,69.982 -64.78,108.177 -20.582,-42.526 -39.823,-82.282 -60.217,-124.413 44.291,5.753 84.102,10.923 124.997,16.236 m 143.295,-786.292 c 42.469,-20.566 82.407,-39.907 124.49,-60.284 -5.839,44.881 -11.009,84.631 -16.258,124.968 -34.999,-20.917 -69.535,-41.559 -108.232,-64.684 m 894.598,208.068 c 20.546,42.291 39.884,82.092 60.329,124.178 -44.212,-5.68 -84.153,-10.808 -125.097,-16.067 20.904,-34.894 41.607,-69.452 64.768,-108.111 M 206.907,-827.883 c -39.029,23.348 -73.584,44.016 -108.468,64.882 -5.272,-40.982 -10.406,-80.904 -16.076,-124.991 41.961,20.253 81.418,39.294 124.544,60.109 M -593.298,184.912 c 43.436,-14.213 81.479,-26.664 119.95,-39.253 -3.903,40.366 -7.767,80.337 -12.142,125.594 -36.796,-29.468 -71.022,-56.879 -107.808,-86.341 m -29.714,-696.421 c -40.995,5.271 -80.847,10.393 -125.173,16.095 20.464,-41.993 39.836,-81.744 60.514,-124.174 23.297,38.942 43.678,73.013 64.659,108.079 M 285.523,60.15 c 40.539,4.066 80.726,8.096 125.684,12.605 -29.963,37.312 -57.186,71.207 -86.485,107.689 C 310.586,137.063 298.169,98.959 285.523,60.15 M 82.251,335.16 c 5.804,-44.393 11.07,-84.648 16.37,-125.177 35.222,21.109 69.736,41.793 108.187,64.835 -42.638,20.655 -82.5,39.967 -124.557,60.342 m -218.733,-74.533 c 23.738,36.084 46.285,70.359 70.422,107.049 l -140.92,0 c 24.49,-37.191 47.022,-71.399 70.498,-107.049 m 0.006,-1074.288 c -23.9,-36.208 -46.451,-70.371 -70.444,-106.713 l 140.777,0 c -24.417,37.044 -46.891,71.146 -70.333,106.713 m 537.226,537.098 c 36.138,-23.814 70.294,-46.32 106.522,-70.192 l 0,140.62 c -37.175,-24.58 -71.261,-47.115 -106.522,-70.428 m -1181.324,-70.553 c 37.593,24.941 71.539,47.456 106.646,70.744 -35.56,23.438 -69.605,45.88 -106.646,70.295 l 0,-141.039 z m 90.864,-277.836 c -42.08,4.139 -84.172,8.274 -129.883,12.767 24.96,-49.272 51.499,-93.652 85.99,-134.207 15.333,42.428 29.53,81.705 43.893,121.44 m 1240.188,13.14 c -49.811,-4.898 -92.213,-9.068 -133.98,-13.175 14.892,-40.903 29.277,-80.404 45.768,-125.684 30.066,47.329 57.495,90.506 88.212,138.859 M -689.675,71.941 c -14.622,40.372 -28.99,80.043 -45.616,125.952 -30.055,-47.622 -57.607,-91.275 -87.704,-138.968 48.998,4.783 91.234,8.906 133.32,13.016 m 204.794,-901.481 c -40.554,-14.735 -80.25,-29.165 -126.127,-45.838 47.954,-30.059 91.489,-57.352 139.201,-87.261 -4.831,49.196 -8.925,90.864 -13.074,133.099 M 325.318,185.304 c 43.12,5.629 84.826,11.073 133.358,17.407 -40.391,40.156 -76.788,76.335 -116.129,115.444 -6.312,-48.669 -11.686,-90.094 -17.229,-132.851 M 198.757,410.042 c 4.879,-49.086 9.091,-91.495 13.265,-133.476 40.854,14.858 80.333,29.217 125.92,45.798 -47.996,30.234 -91.601,57.706 -139.185,87.678 m -683.606,-133.38 c 4.148,42.842 8.182,84.514 12.566,129.781 -48.876,-25.03 -93.802,-51.046 -134.216,-85.85 42.089,-15.199 81.412,-29.402 121.65,-43.931 M -731.388,-755.601 c 39.865,-39.875 76.319,-76.335 115.91,-115.935 6.235,48.886 11.637,91.246 16.985,133.176 -43.094,-5.591 -84.5,-10.961 -132.895,-17.241 M 193.428,412.716 c -52.98,18.68 -102.469,36.129 -155.509,54.828 15.603,-46.362 29.255,-86.922 42.87,-127.375 36.055,23.221 71.775,46.228 112.639,72.547 m -985.221,-617.97 c -27.989,30.576 -56.711,61.95 -89.913,98.222 -6.449,-56.65 -12.343,-108.446 -18.655,-163.877 41.592,25.152 77.896,47.106 108.568,65.655 m 649.832,-835.264 c -25.301,41.802 -47.44,78.377 -66.44,109.767 -30.371,-28.362 -61.391,-57.326 -97.235,-90.794 56.014,-6.493 107.705,-12.486 163.675,-18.973 M 27.787,462.742 c -0.025,2.3 -0.051,4.598 -0.073,6.899 -51.599,5.683 -103.197,11.363 -158.554,17.461 25.713,-42.415 47.836,-78.904 66.009,-108.873 30.777,28.083 61.697,56.298 92.618,84.513 M 550.133,59.011 c -30.263,47.68 -57.971,91.333 -88.014,138.668 -16.88,-46.72 -31.195,-86.339 -45.468,-125.84 42.319,-4.066 84.465,-8.118 133.482,-12.828 m 58.724,-167.355 c -33.276,-35.378 -62.636,-66.593 -90.758,-96.489 l 109.486,-66.174 c -6.471,56.218 -12.403,107.724 -18.728,162.663 M 198.888,-963.43 c 48.194,30.684 91.706,58.392 138.84,88.403 -46.279,16.692 -85.882,30.975 -125.894,45.408 -4.12,-42.587 -8.153,-84.281 -12.946,-133.811 m 143.276,95.978 c 42.207,33.404 78.868,69.72 112.045,112.461 -44.923,5.801 -86.693,11.197 -128.923,16.65 5.581,-42.695 10.987,-84.054 16.878,-129.111 m 285.223,585.57 c -42.446,-25.739 -78.728,-47.741 -108.305,-65.674 27.685,-30.315 56.413,-61.772 89.781,-98.305 6.427,56.882 12.222,108.184 18.524,163.979 m -1528.191,0.041 c 6.675,-56.659 12.716,-107.932 19.302,-163.842 33.665,35.944 62.627,66.868 90.985,97.144 -31.441,19.015 -68.077,41.17 -110.287,66.698 M 607.68,-102.08 C 588.569,-48.216 571.124,0.96 552.555,53.29 526.201,12.369 503.213,-23.326 480.11,-59.196 520.929,-72.917 561.209,-86.457 607.68,-102.08 M -466.437,-965.779 c 53.344,-18.725 102.741,-36.068 155.555,-54.607 -15.617,46.285 -29.287,86.798 -42.942,127.256 -36.259,-23.393 -71.909,-46.39 -112.613,-72.649 m 504.32,-54.898 c 53.919,19.121 103.105,36.563 155.408,55.109 -40.656,26.153 -76.367,49.125 -112.575,72.413 -13.536,-40.302 -27.158,-80.857 -42.833,-127.522 M -353.626,340.118 c 13.552,40.618 27.076,81.138 42.488,127.324 -53.426,-18.843 -102.829,-36.269 -155.177,-54.732 39.979,-25.754 75.683,-48.755 112.689,-72.592 m 906.484,-946.747 c 18.7,53.538 35.909,102.813 54.336,155.573 -46.776,-15.732 -86.999,-29.258 -127.087,-42.74 23.345,-36.208 46.432,-72.015 72.751,-112.833 M 32.947,-1021.771 c -36.413,34.979 -66.886,64.254 -96.537,92.736 -20.391,-33.649 -42.341,-69.876 -67.512,-111.416 55.977,6.372 107.444,12.234 164.049,18.68 m -913.587,919.637 c 46.77,15.777 87.242,29.427 127.509,43.011 -23.939,37.051 -46.908,72.602 -72.697,112.521 C -844.381,0.75 -861.686,-48.35 -880.64,-102.134 m 738.823,589.906 c -56.315,-6.669 -107.837,-12.771 -159.358,-18.872 0.121,-2.064 0.242,-4.132 0.367,-6.196 31.287,-28.563 62.575,-57.129 92.676,-84.606 18.705,30.936 40.64,67.214 66.315,109.674 M -731.576,202.647 c 48.819,-6.35 90.566,-11.778 133.195,-17.32 -5.498,42.574 -10.894,84.331 -17.206,133.201 -39.795,-39.76 -76.118,-76.048 -115.989,-115.881 M -880.679,-450.82 c 19.063,-53.832 36.521,-103.13 55.051,-155.462 26.224,40.737 49.419,76.769 72.487,112.601 -40.851,13.727 -81.105,27.257 -127.538,42.861 M 159.01,-1099.615 c 59.669,20.492 113.504,46.843 165.782,80.275 -44.591,18.298 -86.256,35.392 -127.298,52.23 -12.544,-43.193 -24.986,-86.029 -38.484,-132.505 m 395.039,489.153 c 17.151,-41.642 34.453,-83.642 52.638,-127.793 32.612,54.043 60.709,106.927 79.287,165.989 -45.829,-13.268 -88.716,-25.684 -131.925,-38.196 m -1437.925,161.688 c -39.3,21.653 -78.843,43.439 -125.103,68.925 14.803,-64.011 28.39,-122.77 42.938,-185.693 30.193,42.909 56.245,79.931 82.165,116.768 m 268.394,771.872 c 2.722,44.961 5.47,90.327 8.629,142.522 -51.046,-40.924 -98.078,-78.632 -148.847,-119.337 51.464,-8.51 95.2,-15.741 140.218,-23.185 m 20.566,-1341.244 c -0.82,-1.857 -1.64,-3.715 -2.46,-5.572 53.893,-26.159 107.785,-52.316 166.621,-80.872 -14.727,51.005 -27.293,94.546 -39.702,137.538 -42.096,-17.282 -83.276,-34.188 -124.459,-51.094 M -963.714,9.321 c -19.395,-59.416 -35.146,-117.48 -40.271,-179.889 42.067,23.361 81.319,45.162 119.94,66.612 -26.086,37.092 -51.78,73.626 -79.669,113.277 M 35.787,470.949 c 37.006,26.007 74.554,52.396 117.301,82.439 -63.951,14.57 -122.451,27.899 -186.083,42.399 25.33,-45.973 47.058,-85.41 68.782,-124.838 m 297.905,-5.275 c 3.254,-52.539 6.078,-98.084 8.839,-142.64 44.996,7.464 88.83,14.733 140.298,23.265 C 431.68,387.24 384.444,425.05 333.692,465.674 M 683.9,19.934 c 1.649,1.274 3.302,2.546 4.952,3.82 -26.15,53.574 -52.297,107.144 -80.671,165.274 C 588.157,140.372 571.021,98.732 554.029,57.441 597.357,44.929 640.626,32.434 683.9,19.934 M -883.844,-737.278 c 1.87,0.711 3.74,1.42 5.61,2.131 17.065,41.678 34.134,83.355 51.078,124.736 -42.944,12.445 -86.144,24.963 -129.344,37.481 -1.86,-0.992 -3.717,-1.987 -5.577,-2.98 26.076,-53.791 52.156,-107.578 78.233,-161.368 m 1619.852,564.17 c -14.886,64.276 -28.482,123 -42.995,185.671 -30.232,-42.944 -56.334,-80.023 -82.19,-116.749 39.306,-21.641 78.852,-43.413 125.185,-68.922 m -584.717,-931.894 c -41.652,29.258 -78.878,55.405 -115.463,81.106 -22.11,-40.146 -43.7,-79.341 -67.01,-121.667 25.237,4.06 47.188,6.354 68.523,11.297 36.834,8.539 73.287,18.721 113.95,29.264 M -433.03,543.445 c -1.171,1.809 -2.346,3.616 -3.517,5.425 -53.644,-26.109 -107.287,-52.214 -165.612,-80.601 48.528,-19.947 90.155,-37.061 131.762,-54.165 12.391,42.894 24.88,86.119 37.367,129.341 m 7.151,9.797 c 43.477,-30.589 80.454,-56.606 117.08,-82.376 21.785,39.511 43.541,78.961 69.006,125.138 -64.005,-14.708 -122.452,-28.138 -186.086,-42.762 m 117.01,-1577.071 c -37.153,-26.186 -74.538,-52.531 -116.94,-82.414 63.389,-14.538 122.059,-27.995 185.929,-42.644 -25.483,46.196 -47.306,85.751 -68.989,125.058 M -961.975,22.879 c 1.78,-0.941 3.561,-1.882 5.341,-2.827 43.13,12.468 86.259,24.935 129.574,37.453 -17.257,41.901 -34.524,83.824 -54.336,131.922 -28.502,-58.915 -54.541,-112.731 -80.579,-166.548 m 83.329,170.926 c 52.725,3.229 97.9,5.996 142.497,8.727 -7.307,44.333 -14.666,88.959 -23.163,140.5 -40.982,-51.247 -78.515,-98.187 -119.334,-149.227 M 693.303,-566.018 c 14.58,63.919 27.918,122.403 42.441,186.08 -46.343,-25.56 -85.771,-47.304 -124.835,-68.849 26.153,-37.213 52.131,-74.171 82.394,-117.231 m -1429.375,-189.36 c -45.025,2.706 -90.325,5.428 -137.931,8.287 34.067,-53.024 71.057,-100.634 115.559,-143.645 7.684,46.502 14.918,90.26 22.372,135.358 M 325.286,466.52 c -53.717,32.803 -106.726,60.552 -166.052,79.57 13.373,-46.151 25.875,-89.302 38.247,-132.001 41.904,17.189 83.157,34.115 127.805,52.431 m -932.018,-1485.257 c -3.252,52.425 -6.053,97.571 -8.849,142.67 -44.702,-7.371 -89.264,-14.72 -140.547,-23.176 51.123,-40.89 98.11,-78.473 149.396,-119.494 M 463.325,202.5 c 44.607,-2.712 90.143,-5.479 142.475,-8.66 -40.889,50.957 -78.766,98.155 -119.704,149.169 -8.414,-51.92 -15.61,-96.323 -22.771,-140.509 m 21.572,-1090.39 c 1.742,-1.235 3.484,-2.47 5.226,-3.705 37.543,47.141 75.088,94.281 115.32,144.795 -52.183,-3.172 -97.75,-5.942 -142.427,-8.658 7.374,-44.625 14.627,-88.527 21.881,-132.432 m -151.091,-130.981 c 51.2,41.126 98.142,78.837 148.87,119.583 -52.017,8.673 -96.314,16.057 -140.257,23.387 -2.7,-44.811 -5.418,-89.97 -8.613,-142.97 m 401.644,839.097 c -38.825,-34.731 -73.779,-65.999 -108.245,-96.828 35.503,-31.734 70.125,-62.68 108.245,-96.75 l 0,193.578 z m -1743.618,-0.083 0,-193.074 c 38.432,34.357 73.418,65.639 107.862,96.432 -35.235,31.568 -69.558,62.32 -107.862,96.642 m 775.625,-967.888 192.423,0 c -34.396,38.336 -65.703,73.227 -96.442,107.485 -31.626,-35.413 -62.269,-69.729 -95.981,-107.485 m 0.692,1741.515 c 33.269,-37.121 64.369,-71.813 95.474,-106.518 31.515,35.343 62.649,70.259 93.784,105.175 -0.482,1.847 -0.964,3.695 -1.449,5.546 -42.737,0 -85.477,0.402 -128.208,-0.185 -19.114,-0.262 -38.199,-2.508 -59.601,-4.018 m 106.209,122.008 -0.01,-6.274 c 30.241,-37.232 60.482,-74.465 90.162,-111.002 38.336,29.855 76.038,59.212 113.739,88.57 -0.127,1.847 -0.258,3.698 -0.386,5.546 -67.834,7.722 -135.671,15.441 -203.505,23.16 m 202.899,-1961.4 c 0.14,2.036 0.281,4.071 0.421,6.107 -37.714,29.341 -75.425,58.679 -113.222,88.084 -30.248,-37.283 -60.779,-74.918 -95.762,-118.038 73.058,8.354 140.812,16.099 208.563,23.847 m 397.553,187.528 c -1.088,2.109 -2.176,4.221 -3.265,6.334 -46.09,10.099 -92.181,20.199 -138.568,30.362 -10.987,-46.237 -22.187,-93.378 -33.388,-140.518 1.124,-1.459 2.25,-2.914 3.373,-4.372 57.282,36.065 114.566,72.129 171.848,108.194 M -921.239,486.429 c -1.653,1.071 -3.306,2.147 -4.959,3.219 -44.393,-55.507 -88.786,-111.014 -133.179,-166.522 1.343,-1.331 2.687,-2.661 4.03,-3.992 47.581,8.316 95.162,16.632 142.685,24.938 -2.904,48.19 -5.74,95.273 -8.577,142.357 m -137.235,-1357.924 c 41.674,-62.549 84.813,-118.893 137.184,-170.641 2.964,50.954 5.737,98.653 8.446,145.228 -48.956,8.546 -95.554,16.677 -145.63,25.413 m 708.301,-367.423 c -0.325,-2.176 -0.648,-4.35 -0.973,-6.526 67.987,-7.754 135.974,-15.508 203.962,-23.262 0.098,1.879 0.197,3.759 0.296,5.638 -30.273,37.345 -60.546,74.686 -90.496,111.628 -37.734,-29.265 -75.26,-58.373 -112.789,-87.478 m -661.327,861.539 c -37.653,30.483 -75.163,60.849 -112.673,91.214 -1.599,-0.654 -3.198,-1.311 -4.793,-1.969 7.843,-67.738 15.687,-135.473 23.53,-203.212 2.03,0.246 4.056,0.492 6.085,0.735 29.048,37.439 58.095,74.879 87.851,113.232 m 279.499,1019.783 c -1.528,1.216 -3.06,2.435 -4.588,3.651 -55.37,-44.329 -110.744,-88.659 -166.114,-132.988 1.136,-1.621 2.272,-3.242 3.405,-4.863 47.511,-2.824 95.021,-5.648 142.306,-8.459 8.494,48.496 16.743,95.579 24.991,142.659 m 585.174,67.882 c -0.163,1.889 -0.326,3.781 -0.492,5.673 -68.022,-7.839 -136.047,-15.68 -204.07,-23.52 0.255,-1.979 0.511,-3.954 0.766,-5.929 37.749,-29.364 75.496,-58.727 113.207,-88.058 30.164,37.238 60.377,74.538 90.589,111.834 M 625.958,508.229 c 1.104,1.893 2.211,3.785 3.315,5.674 -55.526,44.118 -111.053,88.237 -166.576,132.356 -1.181,-1.49 -2.358,-2.984 -3.536,-4.477 8.246,-47.157 16.491,-94.313 24.852,-142.108 47.587,2.869 94.766,5.712 141.945,8.555 M 748.361,159.808 c 1.567,1.302 3.13,2.607 4.694,3.912 -36.157,57.228 -72.314,114.455 -108.472,171.685 -1.892,-0.992 -3.784,-1.985 -5.677,-2.974 -10.175,-46.578 -20.352,-93.154 -30.477,-139.507 46.72,-11.056 93.327,-22.088 139.932,-33.116 M 638.795,-884.996 c 2.208,-0.842 4.416,-1.681 6.624,-2.524 35.944,57.215 71.884,114.429 107.827,171.644 -1.528,1.078 -3.054,2.16 -4.579,3.242 -47.102,-11.185 -94.204,-22.369 -140.209,-33.292 10.214,-46.815 20.276,-92.944 30.337,-139.07 m -1650.135,709.44 c -29.778,38.142 -59.436,76.125 -89.092,114.107 -1.727,-0.22 -3.453,-0.44 -5.18,-0.66 -7.731,-67.86 -15.463,-135.716 -23.807,-208.959 43.206,34.951 80.869,65.415 118.079,95.512 m 1837.922,-315.19 c 2.029,0.09 4.059,0.179 6.088,0.268 7.662,67.627 15.326,135.25 22.991,202.877 -1.94,0.198 -3.883,0.396 -5.823,0.594 -37.233,-30.225 -74.465,-60.453 -111.366,-90.408 29.379,-37.784 58.746,-75.556 88.11,-113.331 M 459.206,-1194.41 c 1.385,-1.596 2.773,-3.191 4.158,-4.787 55.453,44.416 110.906,88.831 166.359,133.247 -1.177,1.617 -2.355,3.235 -3.533,4.853 -47.676,2.783 -95.353,5.568 -142.263,8.306 -8.441,-48.34 -16.581,-94.98 -24.721,-141.619 m 326.875,317.765 c -1.442,1.503 -2.884,3.003 -4.326,4.506 -47.163,-8.243 -94.326,-16.482 -142.102,-24.829 2.891,-47.741 5.76,-95.191 8.632,-142.641 1.745,-0.845 3.488,-1.694 5.233,-2.54 44.186,55.169 88.375,110.338 132.563,165.504 M 653.659,489.339 c -1.813,-1.015 -3.625,-2.03 -5.438,-3.045 -2.84,-47.584 -5.68,-95.168 -8.494,-142.302 48.327,-8.459 95.433,-16.708 142.538,-24.953 1.401,1.17 2.802,2.345 4.203,3.516 -44.269,55.593 -88.541,111.19 -132.809,166.784 m 84.845,-665.022 c 37.561,-30.334 75.068,-60.623 112.578,-90.915 1.624,0.639 3.252,1.277 4.879,1.912 -7.907,67.697 -15.811,135.394 -23.715,203.087 -1.925,-0.223 -3.852,-0.446 -5.773,-0.67 -29.322,-37.804 -58.644,-75.607 -87.969,-113.414 m -1640.795,-885.739 c 52.919,-51.902 108.257,-96.605 170.756,-136.447 -8.935,50.832 -17.222,98.002 -25.515,145.187 -47.89,-2.882 -95.056,-5.722 -145.241,-8.74 M -1170.117,102.01 c 1.713,-0.696 3.427,-1.391 5.14,-2.087 44.661,18.929 89.322,37.858 133.486,56.576 -13.179,46.927 -25.997,92.577 -38.819,138.224 -2.042,0.457 -4.084,0.913 -6.123,1.369 -31.23,-64.694 -62.457,-129.388 -93.684,-194.082 m 257.359,234.065 c -43.984,-56.551 -81.14,-113.312 -111.059,-176.908 49.397,11.736 95.976,22.803 142.331,33.818 -10.179,46.579 -20.339,93.068 -31.272,143.09 m 166.13,-1388.18 c 32.06,-32.841 142.943,-101.518 173.73,-108.328 -11.053,46.385 -22.142,92.925 -33.122,139.003 -46.385,-10.118 -92.434,-20.164 -140.608,-30.675 m 36.482,1714.845 c 0.741,-1.85 1.481,-3.698 2.221,-5.546 46.136,-12.837 92.271,-25.674 138.54,-38.547 18.971,44.831 37.817,89.361 56.666,133.894 -0.759,1.57 -1.519,3.137 -2.278,4.707 -65.052,-31.505 -130.1,-63.006 -195.149,-94.508 m 140.557,-1834.293 c -46.467,-12.978 -92.325,-25.783 -138.186,-38.589 -0.631,-1.956 -1.26,-3.912 -1.892,-5.868 64.981,-31.438 129.966,-62.875 194.947,-94.31 0.648,1.685 1.293,3.373 1.937,5.058 -18.696,44.01 -37.395,88.017 -56.806,133.709 M 332.843,468.466 c 47.025,10.288 93.314,20.416 139.602,30.541 0.737,2.091 1.478,4.18 2.218,6.274 -57.294,36.007 -114.585,72.014 -176.701,111.052 12.707,-53.863 23.693,-100.436 34.881,-147.867 m -905.616,139.839 c -1.299,1.609 -2.598,3.216 -3.893,4.825 -57.237,-36.192 -114.474,-72.384 -171.708,-108.577 0.98,-1.869 1.96,-3.737 2.939,-5.606 46.554,-10.151 93.11,-20.301 139.507,-30.417 11.035,46.534 22.095,93.155 33.155,139.775 m 205.126,-1850.542 c 0.874,2.014 1.749,4.024 2.623,6.034 -21.498,43.242 -42.999,86.486 -64.088,128.904 -43.911,-20.503 -87.095,-40.67 -130.278,-60.833 -0.339,-1.909 -0.674,-3.814 -1.012,-5.719 64.254,-22.796 128.505,-45.589 192.755,-68.386 m 655.545,68.354 c -0.632,2.001 -1.261,4.002 -1.893,6.003 -43.601,20.291 -87.2,40.583 -129.985,60.495 -21.517,-43.506 -42.686,-86.311 -63.858,-129.117 0.721,-1.794 1.446,-3.587 2.167,-5.381 64.525,22.666 129.047,45.335 193.569,68 m 609.753,519.053 c -1.63,0.85 -3.258,1.701 -4.885,2.553 -44.441,-18.995 -88.882,-37.992 -134.127,-57.332 12.837,-45.947 25.697,-91.961 38.554,-137.979 1.85,-0.721 3.701,-1.445 5.552,-2.166 31.635,64.974 63.271,129.95 94.906,194.924 m -1779.114,-91.083 c -47.304,11.216 -93.918,22.263 -142.801,33.853 31.224,-63.134 66.714,-121.079 111.72,-176.459 10.83,49.694 20.873,95.772 31.081,142.606 m 1710.275,238.676 c -1.809,0.635 -3.619,1.27 -5.428,1.905 -43.053,-21.242 -86.106,-42.484 -129.085,-63.692 20.218,-43.286 40.618,-86.964 61.018,-130.642 1.975,-0.281 3.947,-0.565 5.923,-0.846 22.525,64.427 45.047,128.852 67.572,193.275 m -1996.013,-144.708 c 25.263,-70.135 56.286,-134.972 96.298,-198.614 13.811,49.592 26.61,95.561 39.284,141.074 -45.101,19.143 -89.159,37.839 -135.582,57.54 M 693.811,15.084 C 716.665,4.547 738.769,-5.061 760.33,-15.757 781.464,-26.239 802.049,-37.826 824.463,-49.773 815.139,10.339 772.29,127.142 754.296,144.718 734.378,102.032 714.303,59.005 693.811,15.084 m -454.155,-1319.82 c 0.951,-1.946 1.902,-3.889 2.853,-5.833 64.819,31.687 129.637,63.377 194.456,95.063 -0.798,1.794 -1.599,3.587 -2.397,5.38 -46.071,12.854 -92.143,25.707 -137.921,38.48 -19.267,-44.996 -38.129,-89.041 -56.991,-133.09 M 489.294,493.538 c -1.232,-1.698 -2.461,-3.395 -3.689,-5.093 l 0,-143.888 143.955,0 c 1.395,1.56 2.789,3.124 4.184,4.688 -48.149,48.097 -96.301,96.195 -144.45,144.293 m -918.269,60.68 c 21.051,42.858 42.303,86.128 63.555,129.398 -1.065,1.959 -2.134,3.918 -3.203,5.878 -64.05,-22.988 -128.099,-45.973 -192.149,-68.961 0.597,-1.879 1.197,-3.756 1.793,-5.635 43.356,-20.237 86.716,-40.475 130.004,-60.68 M -967.256,16.009 c -20.18,43.305 -40.513,86.949 -60.849,130.592 -1.995,0.332 -3.986,0.664 -5.98,0.995 -22.688,-64.352 -45.376,-128.705 -68.067,-193.058 1.882,-0.686 3.762,-1.372 5.641,-2.058 43.069,21.169 86.141,42.338 129.255,63.529 m -137.989,-515.724 c -38.553,27.569 -77.512,55.43 -116.471,83.294 -2.08,-0.654 -4.158,-1.305 -6.238,-1.956 16.083,-69.602 32.162,-139.204 48.245,-208.803 l 6.155,1.111 c 22.506,41.63 45.009,83.256 68.309,126.354 M 894.444,99.103 C 868.514,169.614 837.9,234.328 797.847,297.42 784.129,248.081 771.33,202.054 758.642,156.413 803.115,137.644 846.57,119.308 894.444,99.103 m -409.847,-996.636 0,-146.033 c 41.122,26.348 130.511,117.017 144.539,146.033 l -144.539,0 z m -1582.978,393.376 c 14.58,-69.449 38.426,-133.54 69.366,-197.449 21.635,46.505 41.802,89.858 61.701,132.627 -43.279,21.405 -86.214,42.641 -131.067,64.822 M 5.549,814.899 c -0.526,-2.351 -1.056,-4.7 -1.586,-7.048 27.857,-38.819 55.715,-77.637 83.011,-115.67 42.488,23.153 84.408,46.001 126.331,68.845 0.357,1.927 0.715,3.858 1.072,5.786 -69.611,16.028 -139.22,32.056 -208.828,48.087 m 283.743,-198.53 c -65.17,29.797 -128.661,55.194 -197.931,68.689 22.388,-45.389 43.589,-88.371 64.509,-130.786 43.347,20.177 86.377,40.2 133.422,62.097 M 214.23,-1319.995 c -0.201,2.227 -0.402,4.455 -0.6,6.682 -42.622,22.908 -85.244,45.82 -126.928,68.227 -27.994,-39.17 -55.708,-77.94 -83.418,-116.714 0.797,-1.972 1.592,-3.947 2.39,-5.922 69.519,15.91 139.037,31.817 208.556,47.727 M 296.51,618.5 c 46.646,13.09 92.398,25.924 141.364,39.661 C 373.521,697.42 309.459,728.988 238.517,754.852 258.84,707.063 277.473,663.264 296.51,618.5 M -905.616,-897.843 c 45.344,-55.405 92.344,-104.706 148.119,-147.066 l 0,147.066 -148.119,0 z m 545.755,-347.559 c -42.162,-22.608 -84.245,-45.172 -129.947,-69.676 71.938,-24.321 141.722,-41.256 215.526,-49.036 -29.855,41.416 -57.894,80.308 -85.579,118.712 m -397.613,1590.122 0,148.097 c -55.517,-44.811 -104.69,-92.484 -147.312,-148.097 l 147.312,0 z M 900.562,-627.496 c 2.096,-0.019 4.196,-0.041 6.295,-0.06 15.927,69.688 31.856,139.376 47.785,209.061 -2.115,0.648 -4.228,1.295 -6.34,1.943 -39.169,-28.094 -78.342,-56.187 -116.079,-83.253 23.282,-43.503 45.81,-85.598 68.339,-127.691 M -487.108,767.287 c 0.048,-2.065 0.096,-4.129 0.14,-6.197 42.457,-23.065 84.913,-46.129 127.072,-69.034 27.892,38.911 55.833,77.885 83.77,116.857 -0.428,1.982 -0.855,3.963 -1.28,5.945 -69.901,-15.856 -139.8,-31.715 -209.702,-47.571 M 906.982,74.902 c -2.116,-0.236 -4.232,-0.472 -6.344,-0.708 -22.94,-42.788 -45.877,-85.579 -68.313,-127.432 38.962,-27.998 77.896,-55.977 116.832,-83.959 1.892,0.527 3.785,1.051 5.68,1.577 -15.952,70.173 -31.903,140.349 -47.855,210.522 m -2134.955,-210.356 c 2.259,-0.316 4.518,-0.632 6.777,-0.948 38.943,27.969 77.886,55.935 116.022,83.323 -23.058,42.641 -45.794,84.683 -68.53,126.724 -2.148,0.195 -4.298,0.389 -6.446,0.584 -15.942,-69.892 -31.881,-139.788 -47.823,-209.683 M -23.132,814.641 c -76.778,7.802 -150.254,8.699 -226.234,-0.437 39.498,-34.836 76.028,-67.052 112.881,-99.55 36.875,32.53 73.418,64.762 113.353,99.987 M -1229.971,-391.311 c 35.423,38.984 67.027,73.201 97.514,108.385 2.418,2.792 -1.053,13.881 -4.94,18.415 -21.51,25.101 -44.077,49.295 -66.101,73.961 -7.378,8.265 -14.213,17.011 -21.297,25.541 -1.723,-0.61 -3.45,-1.219 -5.176,-1.829 l 0,-224.473 z m 2186.802,229.704 c -35.327,-38.943 -66.401,-72.883 -96.868,-107.355 -2.553,-2.891 -3.306,-11.376 -1.082,-13.891 30.889,-34.931 62.441,-69.272 97.95,-108.286 l 0,229.532 z M -20.761,-1369.685 c -42.153,37.207 -79.044,69.765 -115.82,102.223 -37.513,-33.211 -74.127,-65.622 -115.466,-102.223 l 231.286,0 z m -308.648,1094.6 c -0.201,-107.862 84.491,-193.879 191.568,-194.562 107.782,-0.692 194.35,85.583 194.567,193.901 0.214,106.346 -85.904,191.673 -193.98,192.209 -105.619,0.52 -191.957,-85.544 -192.155,-191.548 m 465.923,130.466 c -9.037,19.14 -18.074,38.279 -28.339,60.029 -24.466,-29.248 -45.038,-53.842 -66.012,-78.916 32.296,6.663 63.679,13.137 95.066,19.611 -24.753,-21.271 -49.505,-42.545 -72.554,-62.351 l 102.389,0 c -11.711,23.6 -21.137,42.602 -30.55,61.627 m 850.089,-132.956 c -2.52,-619.763 -499.476,-1119.192 -1117.992,-1121.493 -628.392,-2.338 -1131.286,501.643 -1127.623,1131.973 3.587,617.498 505.887,1117.226 1129.815,1113.362 616.634,-3.82 1114.489,-502.383 1115.8,-1123.842"
             style="fill:#e3c7b8;fill-opacity:1;fill-rule:nonzero;stroke:none"
             id="path3080" />
        </g>
      </g>
    </g>
  </g>
</svg>
