<?xml version="1.0" encoding="UTF-8" standalone="no"?>
<!-- Created with Inkscape (http://www.inkscape.org/) -->

<svg
   xmlns:dc="http://purl.org/dc/elements/1.1/"
   xmlns:cc="http://creativecommons.org/ns#"
   xmlns:rdf="http://www.w3.org/1999/02/22-rdf-syntax-ns#"
   xmlns:svg="http://www.w3.org/2000/svg"
   xmlns="http://www.w3.org/2000/svg"
   xmlns:sodipodi="http://sodipodi.sourceforge.net/DTD/sodipodi-0.dtd"
   xmlns:inkscape="http://www.inkscape.org/namespaces/inkscape"
   id="svg4244"
   version="1.1"
   inkscape:version="0.48.4 r9939"
   width="3738.45"
   height="3738"
   xml:space="preserve"
   sodipodi:docname="Leuca_Illustration.ai"><metadata
     id="metadata4250"><rdf:RDF><cc:Work
         rdf:about=""><dc:format>image/svg+xml</dc:format><dc:type
           rdf:resource="http://purl.org/dc/dcmitype/StillImage" /><dc:title></dc:title></cc:Work></rdf:RDF></metadata><defs
     id="defs4248"><clipPath
       clipPathUnits="userSpaceOnUse"
       id="clipPath4258"><path
         d="m 0,2990.405 2990.765,0 L 2990.765,0 0,0 0,2990.405 z"
         id="path4260" /></clipPath></defs><sodipodi:namedview
     pagecolor="#ffffff"
     bordercolor="#666666"
     borderopacity="1"
     objecttolerance="10"
     gridtolerance="10"
     guidetolerance="10"
     inkscape:pageopacity="0"
     inkscape:pageshadow="2"
     inkscape:window-width="705"
     inkscape:window-height="481"
     id="namedview4246"
     showgrid="false"
     inkscape:zoom="0.063135367"
     inkscape:cx="1869.225"
     inkscape:cy="1869"
     inkscape:window-x="0"
     inkscape:window-y="73"
     inkscape:window-maximized="0"
     inkscape:current-layer="g4252" /><g
     id="g4252"
     inkscape:groupmode="layer"
     inkscape:label="Leuca_Illustration"
     transform="matrix(1.25,0,0,-1.25,0,3738)"><g
       id="g4254"><g
         id="g4256"
         clip-path="url(#clipPath4258)"><g
           id="g4262"
           transform="translate(1676.7943,1863.3066)"><path
             d="M 0,0 C -11.959,-46.812 -22.418,-87.737 -33.799,-132.271 2.456,-101.783 35.409,-74.07 70.632,-44.449 46.102,-29.014 24.096,-15.163 0,0 m -329.844,-132.05 c -11.789,45.996 -22.286,86.955 -33.846,132.05 -24.185,-15.363 -46.594,-29.6 -70.572,-44.831 35.851,-29.949 68.473,-57.194 104.418,-87.219 m 0.569,-471.469 c -36.837,-30.96 -69.386,-58.32 -104.936,-88.196 23.935,-15.146 46.378,-29.349 70.271,-44.47 11.81,45.197 22.515,86.165 34.665,132.666 m 400.268,-88.213 c -36.642,30.573 -69.246,57.781 -104.86,87.499 11.666,-45.294 22.384,-86.917 33.986,-131.981 24.483,15.363 46.591,29.238 70.874,44.482 m 66.199,64.325 c -42.133,21.572 -80.321,41.126 -122.666,62.808 21.903,-42.617 41.55,-80.844 62.663,-121.918 20.939,20.628 39.574,38.987 60.003,59.11 m -82.858,111.201 c 30.076,-36.119 57.423,-68.958 87.261,-104.792 15.478,24.598 29.663,47.143 44.674,70.997 -46.094,11.806 -87.215,22.337 -131.935,33.795 m 22.345,466.109 c -21.083,-41.639 -40.394,-79.777 -61.477,-121.425 42.489,21.78 80.321,41.176 123.52,63.318 -21.457,20.097 -40.518,37.95 -62.043,58.107 m -494.328,-170.234 c -30.637,36.608 -58.031,69.34 -87.733,104.83 -15.546,-25.019 -29.655,-47.717 -44.143,-71.023 45.622,-11.695 86.28,-22.12 131.876,-33.807 m -23.672,-467.763 c 21.878,42.987 41.325,81.188 62.736,123.253 -42.494,-21.793 -80.7,-41.385 -120.669,-61.882 20.042,-21.227 37.997,-40.25 57.933,-61.371 m 23.574,172.125 c -45.566,-11.831 -87.108,-22.621 -132.798,-34.482 16.307,-24.828 30.794,-46.888 45.826,-69.769 30.059,36.029 57.16,68.515 86.972,104.251 m -23.429,466.229 c -20.335,-19.982 -39.421,-38.733 -59.88,-58.838 44.321,-22.945 83.959,-43.463 124.311,-64.351 -21.372,40.862 -41.912,80.13 -64.431,123.189 m 353.09,-582.469 0,-136.295 c 29.706,10.658 54.585,19.587 80.632,28.936 -29.269,38.975 -55.401,73.764 -80.632,107.359 m -88.544,674.83 c 9.6,-46.688 18.27,-88.838 27.725,-134.837 19.515,43.921 37.088,83.478 55.63,125.211 -28.622,3.307 -53.964,6.231 -83.355,9.626 m 395.529,-504.043 -137.133,0 c 34.372,-25.894 69.514,-52.366 108.013,-81.367 9.49,26.51 18.215,50.891 29.12,81.367 m -801.521,4.373 c 43.016,19.489 81.953,37.13 124.468,56.39 -46.315,9.299 -88.128,17.692 -134.285,26.957 3.306,-28.07 6.434,-54.636 9.817,-83.347 m 29.264,263.483 c -9.49,-26.795 -18.33,-51.754 -28.835,-81.426 l 136.831,0 c -33.914,25.571 -69.183,52.162 -107.996,81.426 m 278.273,-574.9 0,136.733 c -26.842,-35.652 -52.821,-70.152 -81.401,-108.111 26.888,-9.456 51.308,-18.04 81.401,-28.622 m 87.626,-9.953 c -9.141,45.957 -17.535,88.128 -26.799,134.697 -19.562,-43.73 -37.352,-83.508 -56.284,-125.836 29.34,-3.128 55.366,-5.903 83.083,-8.861 m 416.893,415.647 c -3.901,29.808 -7.339,56.059 -10.909,83.339 -43.225,-19.66 -82.089,-37.335 -124.052,-56.42 46.14,-9.201 87.797,-17.51 134.961,-26.919 M -93.028,-769.146 c -19.269,42.846 -36.872,81.983 -56.289,125.161 -9.345,-46.914 -17.739,-89.063 -26.888,-134.995 29.034,3.434 54.916,6.493 83.177,9.834 M -270.904,32.536 c 20.047,-43.934 37.573,-82.357 56.701,-124.276 9.29,46.45 17.709,88.544 26.88,134.417 -29.234,-3.549 -55.128,-6.69 -83.581,-10.141 m -4.267,-0.012 c -31.193,-11.339 -55.536,-20.191 -81.001,-29.447 29.069,-38.597 55.312,-73.441 81.001,-107.55 l 0,136.997 z M 228.741,-373.66 c -47.415,-9.566 -88.978,-17.951 -134.493,-27.13 43.28,-19.422 82.556,-37.05 125.127,-56.153 3.259,29.013 6.179,54.975 9.366,83.283 m -782.295,-169.427 c 38.899,29.371 73.641,55.601 106.403,80.335 l -134.502,0 c 10.186,-29.124 18.541,-53.017 28.099,-80.335 M -6.97,3.667 c -27.356,9.414 -52.145,17.943 -81.668,28.1 l 0,-136.707 c 25.715,34.198 51.784,68.868 81.668,108.607 m -451.052,-339.282 c -43.034,19.37 -82.213,37.011 -125.034,56.292 -3.072,-29.221 -5.848,-55.629 -8.776,-83.453 46.4,9.418 87.993,17.862 133.81,27.161 m 747.684,-335.029 c -49.65,13.48 -93.92,25.499 -140.171,38.057 22.979,-42.838 44.41,-82.778 68.226,-127.176 24.441,30.272 47.054,58.286 71.945,89.119 m -168.857,-169.27 c 30.892,25.308 59.093,48.41 88.6,72.578 -45.15,24.092 -84.792,45.252 -126.908,67.725 12.843,-47.045 24.806,-90.852 38.308,-140.303 m -372.372,-83.84 c -9.396,51.015 -17.662,95.88 -26.272,142.628 -28.597,-39.579 -55.171,-76.361 -84.758,-117.312 38.154,-8.699 73.092,-16.668 111.03,-25.316 m -261.312,819.693 c -23.365,43.301 -45.111,83.602 -68.906,127.707 -25.044,-31.589 -47.466,-59.867 -70.912,-89.442 48.137,-13.174 91.821,-25.129 139.818,-38.265 m 28.682,207.046 c -29.987,-24.066 -58.477,-46.93 -89.335,-71.694 45.01,-24.028 84.966,-45.358 127.434,-68.031 -12.953,47.513 -24.857,91.163 -38.099,139.725 m 857.895,-401.427 c -8.636,37.436 -16.787,72.777 -25.588,110.941 -41.593,-30.242 -78.52,-57.088 -116.963,-85.043 47.525,-8.636 92.267,-16.761 142.551,-25.898 m -1111.37,-139.479 c 8.963,-38.58 17.05,-73.402 25.843,-111.251 41.593,30.297 78.647,57.291 116.989,85.225 -47.297,8.619 -92.149,16.791 -142.832,26.026 m 968.508,-26 c 39.643,-28.72 76.442,-55.375 117.779,-85.324 8.526,38.028 16.464,73.437 24.875,110.976 -50.365,-9.057 -95.158,-17.11 -142.654,-25.652 m -825.141,191.428 c -39.502,28.512 -76.828,55.456 -117.779,85.021 -8.738,-38.465 -16.697,-73.521 -25.121,-110.596 50.212,8.988 95.374,17.067 142.9,25.575 m 228.537,-477.321 c -36.293,-31.614 -70.971,-61.826 -109.428,-95.323 35.588,-17.182 67.92,-32.787 102.263,-49.37 2.507,50.628 4.764,96.22 7.165,144.693 m 656.085,684.46 c -25.431,30.841 -48.601,58.937 -73.042,88.571 -24.117,-45.35 -45.226,-85.03 -67.656,-127.21 46.93,12.89 90.733,24.921 140.698,38.639 M -86.122,-780.829 c -8.644,-48.358 -16.719,-93.529 -25.61,-143.248 38.954,9.078 73.684,17.169 110.678,25.788 -29.829,41.185 -56.454,77.95 -85.068,117.46 m -398.385,-59.293 c 13.642,50.262 25.584,94.248 38.201,140.736 -43.586,-23.442 -83.445,-44.886 -127.196,-68.421 30.721,-24.964 58.736,-47.726 88.995,-72.315 m 486.725,90.436 c 2.376,-49.026 4.607,-94.992 7.047,-145.361 35.558,17.624 68.111,33.761 101.719,50.416 -38.708,33.79 -72.914,63.649 -108.766,94.945 m -660.763,88.077 c 34.385,39.621 64.406,74.206 94.928,109.377 -48.371,-2.376 -94.414,-4.637 -144.659,-7.106 17.097,-35.154 32.795,-67.44 49.731,-102.271 m 406.842,849.2 c -38.287,-8.951 -73.058,-17.085 -110.746,-25.895 29.97,-41.367 56.905,-78.545 84.835,-117.094 8.567,47.279 16.697,92.131 25.911,142.989 M 294.911,-74.741 c -34.19,-39.392 -64.07,-73.815 -94.767,-109.182 47.653,2.235 93.713,4.399 144.587,6.787 -16.986,34.912 -32.732,67.266 -49.82,102.395 m -406.885,261.962 c 9.133,-50.131 17.352,-95.204 26.009,-142.713 28.542,39.476 55.494,76.756 85.047,117.63 -38.444,8.683 -73.522,16.604 -111.056,25.083 m -400.335,-819.048 c -47.798,-13.323 -92.128,-25.681 -140.682,-39.217 24.475,-30.39 47.067,-58.439 71.627,-88.935 24.393,45.273 46.263,85.859 69.055,128.152 M 2.316,13.57 C 38.121,44.75 73.16,75.26 111.714,108.829 75.812,126.028 43.475,141.523 9.162,157.961 6.761,107.35 4.577,61.282 2.316,13.57 m 80.13,-50.73 c 43.425,23.361 83.317,44.822 127.847,68.778 -31.478,24.947 -60.152,47.666 -89.684,71.074 C 107.273,53.819 95.327,10.047 82.446,-37.16 m -740.787,-37.671 c -16.778,-34.295 -32.881,-67.223 -50.071,-102.36 51.057,-2.393 97.099,-4.548 144.68,-6.779 -30.883,35.622 -61.099,70.483 -94.609,109.139 M 344.931,-559.253 c -51.567,2.406 -97.461,4.543 -145.067,6.766 31.274,-35.843 61.507,-70.491 94.966,-108.842 16.672,33.965 32.494,66.204 50.101,102.076 M -365.887,13.34 c -2.388,48.924 -4.632,94.834 -7.105,145.513 -35.741,-17.921 -68.04,-34.121 -101.558,-50.934 38.695,-33.679 72.872,-63.428 108.663,-94.579 m 184.042,-799.957 c -20.365,-47.691 -39.136,-91.651 -58.192,-136.291 l 116.457,0 c -19.753,46.208 -38.286,89.556 -58.265,136.291 m 555.764,477.35 c -46.774,-20.199 -90.963,-39.281 -137.018,-59.17 47.487,-20.241 91.592,-39.038 137.018,-58.405 l 0,117.575 z M -738.157,-427.373 c 47.845,20.633 91.588,39.493 137.69,59.378 -47.649,20.306 -91.69,39.073 -137.69,58.677 l 0,-118.055 z m 615.023,614.577 -117.362,0 c 19.944,-46.497 38.715,-90.258 58.698,-136.844 20.038,46.744 38.801,90.512 58.664,136.844 m -596.213,-744.591 c -51.452,8.032 -101.154,15.796 -156.456,24.432 18.108,-49.931 34.274,-94.503 51.074,-140.813 37.406,41.312 70.474,77.827 105.382,116.381 m 843.7,-454.219 c -41.669,37.662 -79.101,71.495 -116.941,105.697 -8.041,-51.01 -15.81,-100.321 -24.539,-155.696 48.911,17.284 93.785,33.144 141.48,49.999 m 231.372,454.219 c 34.9,-38.524 68.409,-75.519 105.701,-116.687 16.906,47.258 32.962,92.127 50.53,141.238 -55.353,-8.699 -104.685,-16.451 -156.231,-24.551 M -371.042,-905.93 c -38.626,-34.878 -75.633,-68.286 -116.997,-105.633 47.861,-16.847 93.079,-32.762 141.574,-49.829 -8.844,55.948 -16.528,104.562 -24.577,155.462 M 7.463,169.444 C 45.647,204.003 82.96,237.776 124.536,275.404 75.995,292.327 31.164,307.958 -17.063,324.77 -8.308,269.335 -0.536,220.11 7.463,169.444 M 461.401,-62.272 c -38.049,-42.061 -71.575,-79.119 -105.68,-116.815 51.584,-8.036 101.388,-15.796 156.265,-24.347 -17.653,49.272 -33.556,93.645 -50.585,141.162 M -487.95,275.094 c 42.324,-38.257 79.357,-71.732 117.019,-105.773 8.011,51.35 15.766,101.064 24.368,156.188 -49.714,-17.726 -94.074,-33.543 -141.387,-50.415 m -231.465,-453.938 c -35.312,38.962 -68.732,75.842 -105.799,116.742 -16.927,-48.125 -32.689,-92.927 -49.756,-141.447 55.43,8.802 104.672,16.621 155.555,24.705 m 135.696,212.932 c -15.418,51.036 -29.625,98.047 -45.838,151.717 -36.187,-36.429 -69.99,-70.461 -105.96,-106.674 54.427,-16.149 101.451,-30.101 151.798,-45.043 m 842.978,157.395 c -44.228,27.577 -85.094,53.059 -128.565,80.164 -3.141,-56.939 -5.869,-106.504 -8.674,-157.404 45.04,25.35 87.844,49.438 137.239,77.24 M -822.583,-680.942 c 28.575,-44.809 54.244,-85.063 81.418,-127.681 27.181,48.376 51.511,91.681 76.836,136.759 -51.27,-2.941 -100.916,-5.788 -158.254,-9.078 m 193.047,-240.64 c 16.268,52.884 30.96,100.652 46.829,152.249 -52.451,-15.924 -99.892,-30.331 -154.91,-47.037 37.224,-36.238 70.963,-69.08 108.081,-105.212 M -741.463,72.523 c -27.352,-43.641 -52.901,-84.41 -80.296,-128.123 56.884,-3.26 106.479,-6.099 157.974,-9.048 -25.775,45.515 -50.233,88.706 -77.678,137.171 m 494.04,-1006.345 c -29.77,-42.578 -58.797,-84.095 -91.171,-130.401 52.055,-5.422 100.061,-10.424 149.733,-15.601 -21.003,52.366 -39.409,98.247 -58.562,146.002 m -377.094,6.328 c 45.855,-28.427 86.352,-53.526 130.01,-80.589 3.209,56.297 6.039,106.016 8.954,157.183 -44.924,-24.759 -88.502,-48.779 -138.964,-76.594 M 372.708,79.569 C 335.517,116.376 301.723,149.827 265.685,185.5 249.034,130.618 234.674,83.275 219.264,32.477 c 52.218,16.026 99.322,30.484 153.444,47.092 m 10.756,-382.198 c 48.66,-19.447 95.642,-38.218 147.221,-58.834 -5.899,51.227 -11.372,98.783 -17.211,149.491 -45.996,-32.073 -87.542,-61.044 -130.01,-90.657 m -82.591,238.087 c 51.227,2.992 100.997,5.899 157.681,9.205 -28.07,44.436 -53.748,85.086 -81.507,129.029 -27.267,-49.481 -50.964,-92.48 -76.174,-138.234 m -170.009,-944.242 c 44.555,28.333 85.315,54.253 127.885,81.324 -49.298,27.628 -92.794,52.001 -136.903,76.718 2.898,-50.815 5.72,-100.245 9.018,-158.042 M -622.864,190.969 c 48.809,-27.322 92.183,-51.597 137.405,-76.909 -3.056,51.652 -6.018,101.796 -9.346,158.093 -44.41,-28.155 -84.74,-53.722 -128.059,-81.184 M 220.089,-770.03 c 15.125,-50.73 29.51,-98.961 43.7,-146.542 35.818,34.772 70.071,68.023 105.111,102.03 -50.807,15.197 -98.047,29.327 -148.811,44.512 m -245.235,-293.81 c -33.174,47.309 -62.26,88.787 -91.141,129.972 -19.367,-48.367 -37.985,-94.864 -58.673,-146.525 50.351,5.563 98,10.828 149.814,16.553 m -721.884,761.254 c -43.008,29.923 -84.486,58.779 -130.571,90.84 -5.589,-51.81 -10.752,-99.645 -16.137,-149.568 52.494,21.015 98.791,39.549 146.708,58.728 M 383.596,-433.901 c 42.485,-29.578 84.477,-58.813 130.32,-90.729 5.745,51.929 10.998,99.382 16.569,149.729 -52.178,-20.96 -98.548,-39.582 -146.889,-59 m -721.944,761.174 c 33.225,-47.483 62.243,-88.961 90.971,-130.014 19.333,48.218 38.117,95.081 58.839,146.754 -51.091,-5.708 -98.608,-11.02 -149.81,-16.74 m -539.007,-851.975 c 47.458,33.119 88.813,61.979 130.129,90.818 -48.69,19.545 -95.616,38.385 -147.026,59.022 5.729,-50.807 11.088,-98.336 16.897,-149.84 M -115.93,196.97 c 29.799,43.003 58.596,84.562 90.576,130.711 -51.827,5.546 -99.871,10.692 -149.598,16.013 20.909,-51.983 39.566,-98.361 59.022,-146.724 M 377.493,-810.144 c 27.891,44.874 53.377,85.884 80.44,129.419 -57.343,3.247 -107.167,6.065 -157.638,8.925 25.189,-45.137 49.234,-88.23 77.198,-138.344 M 101.813,449.48 c -62.141,14.075 -119.386,27.042 -180.022,40.777 21.104,-56.654 39.748,-106.7 58.486,-156.992 39.272,37.556 77.58,74.185 121.536,116.215 m 417.848,-979.779 c 37.331,-39.013 74.355,-77.699 116.02,-121.242 14.152,61.919 27.224,119.134 41.087,179.8 -55.838,-20.811 -106.1,-39.544 -157.107,-58.558 m -1402.944,324.065 c -37.849,39.561 -74.797,78.179 -116.215,121.472 -14.088,-62.132 -27.042,-119.271 -40.781,-179.86 55.608,20.683 105.14,39.102 156.996,58.388 m 539.606,539.27 c 19.039,51.571 37.559,101.748 58.103,157.4 -60.904,-13.961 -118.03,-27.051 -179.554,-41.151 43.48,-41.619 82.208,-78.69 121.451,-116.249 m 58.405,-1560.001 c -21.122,57.037 -39.642,107.049 -59.935,161.837 -38.618,-42.4 -74.605,-81.911 -111.591,-122.518 53.611,-12.29 110.363,-25.298 171.526,-39.319 m 962.61,962.083 c -14.577,62.001 -27.926,118.787 -42.218,179.593 -41.746,-43.803 -78.226,-82.072 -115.259,-120.933 50.564,-18.835 100.725,-37.521 157.477,-58.66 M -999.218,-651.656 c 42.09,44.104 78.813,82.586 116.041,121.599 -52,19.226 -101.961,37.7 -157.599,58.274 14.198,-61.461 27.309,-118.196 41.558,-179.873 m 979.303,-417.934 c -19.171,-51.686 -37.725,-101.702 -58.507,-157.727 61.801,14.436 118.761,27.743 179.601,41.958 -43.403,41.495 -81.622,78.031 -121.094,115.769 m -724.157,252.676 c -54.657,-5.325 -107.18,-10.442 -167.17,-16.289 39.667,-49.341 76.224,-94.809 115.22,-143.312 18.886,58.014 35.248,108.289 51.95,159.601 M 552.33,89.195 C 521.484,37.347 494.192,-8.542 466.492,-55.107 521.748,-62.298 574.65,-69.183 632.812,-76.756 605.618,-20.684 580.179,31.767 552.33,89.195 M -473.36,446.403 c -56.153,-27.351 -109.186,-53.182 -165.542,-80.635 52.06,-31.049 97.97,-58.431 144.085,-85.936 6.991,54.27 13.816,107.248 21.457,166.571 M -911.595,96.475 c 60.993,-5.78 114.124,-10.812 167.535,-15.873 -16.931,51.856 -33.471,102.501 -52.153,159.72 -39.311,-49.009 -75.54,-94.18 -115.382,-143.847 M 283.219,-1097.567 c 49.379,39.672 94.831,76.187 143.363,115.179 -58.248,18.932 -108.552,35.281 -159.856,51.958 5.248,-53.208 10.501,-106.415 16.493,-167.137 m -929.78,-0.391 c 5.857,61.351 10.914,114.299 16.014,167.727 -52.49,-17.254 -102.629,-33.735 -159.58,-52.459 48.736,-39.128 93.963,-75.443 143.566,-115.268 m 1079.31,120.852 c 39.502,49.638 75.638,95.043 114.596,143.992 -60.56,5.894 -113.827,11.075 -167.052,16.255 16.808,-51.35 33.259,-101.6 52.456,-160.247 M 266.947,194.212 c 51.427,16.71 102.255,33.229 160.217,52.064 -49.845,39.578 -95.484,75.816 -144.225,114.515 -5.843,-60.883 -10.905,-113.593 -15.992,-166.579 M -829.876,-55.146 c -28.338,47.326 -55.812,93.203 -86.275,144.073 -27.411,-56.637 -53.038,-109.585 -80.198,-165.696 58.987,7.663 112.008,14.548 166.473,21.623 m 190.842,-1047.193 c 56.56,-27.39 109.751,-53.148 165.797,-80.287 -7.777,59.773 -14.662,112.713 -21.653,166.435 -46.611,-27.858 -92.607,-55.35 -144.144,-86.148 m 1191.436,277.108 c 27.364,56.323 53.118,109.331 80.347,165.381 -58.881,-7.564 -112.076,-14.394 -166.605,-21.397 27.84,-46.472 55.413,-92.498 86.258,-143.984 m -276.841,-277.355 c -51.979,31.096 -98,58.622 -144.459,86.412 -7.021,-54.581 -13.859,-107.75 -21.41,-166.465 55.885,26.973 108.433,52.332 165.869,80.053 M -790.161,246.268 c 57.848,-18.929 108.514,-35.512 159.75,-52.278 -5.198,53.761 -10.344,106.994 -16.171,167.269 -49.004,-39.247 -94.588,-75.753 -143.579,-114.991 m -39.575,-927.503 c -54.597,7.021 -107.673,13.842 -166.707,21.436 27.254,-55.927 53.055,-108.867 80.594,-165.377 31.027,51.865 58.171,97.24 86.113,143.941 m 1210,761.344 C 434.253,85.523 487.775,90.891 547.651,96.895 507.745,146.588 471.49,191.73 432.468,240.318 413.642,182.542 397.106,131.795 380.264,80.109 m -270.721,366.26 c 7.73,-59.123 14.742,-112.734 21.801,-166.711 46.91,28.113 92.875,55.66 144.086,86.348 -56.786,27.508 -109.875,53.228 -165.887,80.363 m -291.311,-99.262 c 31.614,48.056 61.643,93.704 93.789,142.568 l -187.68,0 c 32.617,-49.531 62.625,-95.09 93.891,-142.568 m 0.008,-1430.751 c -31.831,-48.223 -61.864,-93.721 -93.818,-142.122 l 187.488,0 c -32.519,49.336 -62.451,94.754 -93.67,142.122 m 715.484,715.314 c 48.129,-31.717 93.619,-61.691 141.867,-93.483 l 0,187.28 c -49.51,-32.736 -94.907,-62.748 -141.867,-93.797 m -1573.302,-93.963 c 50.067,33.216 95.276,63.203 142.033,94.218 -47.36,31.214 -92.701,61.103 -142.033,93.618 l 0,-187.836 z m 121.013,-370.026 c -56.042,5.512 -112.101,11.019 -172.98,17.003 33.242,-65.621 68.588,-124.727 114.524,-178.738 20.42,56.505 39.328,108.816 58.456,161.735 m 1651.698,17.5 c -66.339,-6.523 -122.811,-12.078 -178.436,-17.547 19.834,-54.474 38.992,-107.082 60.955,-167.387 40.041,63.033 76.573,120.537 117.481,184.934 M -918.518,95.812 c -19.473,53.768 -38.61,106.602 -60.751,167.744 -40.029,-63.424 -76.722,-121.562 -116.806,-185.079 65.256,6.37 121.506,11.861 177.557,17.335 m 272.748,-1200.603 c -54.011,-19.626 -106.878,-38.843 -167.978,-61.049 63.866,-40.033 121.846,-76.381 185.389,-116.215 -6.434,65.52 -11.886,121.013 -17.411,177.264 M 433.263,246.79 c 57.428,7.497 112.972,14.747 177.608,23.183 C 557.077,323.452 508.603,371.637 456.208,423.722 447.802,358.904 440.645,303.733 433.263,246.79 M 264.707,546.1 c 6.498,-65.375 12.108,-121.855 17.667,-177.766 54.41,19.788 106.988,38.912 167.701,60.993 C 386.154,469.594 328.08,506.181 264.707,546.1 M -645.728,368.462 c 5.525,57.058 10.897,112.556 16.736,172.843 -65.094,-33.335 -124.927,-67.983 -178.751,-114.336 56.055,-20.242 108.425,-39.158 162.015,-58.507 m -328.344,-1374.781 c 53.093,-53.106 101.643,-101.664 154.37,-154.404 8.304,65.107 15.499,121.523 22.622,177.366 -57.394,-7.446 -112.539,-14.599 -176.992,-22.962 M 257.61,549.661 c -70.559,24.878 -136.469,48.116 -207.11,73.02 20.782,-61.745 38.963,-115.765 57.096,-169.639 48.019,30.925 95.591,61.566 150.014,96.619 M -1054.52,-273.36 c -37.275,40.721 -75.528,82.506 -119.747,130.813 -8.589,-75.447 -16.438,-144.429 -24.844,-218.253 55.392,33.497 103.742,62.736 144.591,87.44 m 865.455,-1112.415 c -33.697,55.672 -63.182,104.383 -88.485,146.189 -40.45,-37.773 -81.762,-76.348 -129.5,-120.92 74.601,-8.648 143.443,-16.629 217.985,-25.269 M 37.007,616.285 c -0.034,3.064 -0.068,6.124 -0.097,9.188 -68.72,7.569 -137.439,15.133 -211.165,23.255 34.245,-56.488 63.709,-105.085 87.912,-144.999 40.989,37.403 82.17,74.979 123.35,112.556 M 732.674,78.592 C 692.369,142.092 655.468,200.229 615.456,263.271 592.975,201.05 573.91,148.284 554.901,95.676 611.262,90.261 667.393,84.864 732.674,78.592 m 78.209,-222.886 c -44.316,-47.117 -83.419,-88.689 -120.872,-128.505 l 145.815,-88.133 c -8.619,74.874 -16.52,143.47 -24.943,216.638 M 264.881,-1283.109 c 64.185,40.866 122.136,77.767 184.909,117.737 -61.634,22.231 -114.379,41.253 -167.667,60.475 -5.486,-56.718 -10.858,-112.246 -17.242,-178.212 m 190.817,127.826 c 56.212,44.487 105.038,92.854 149.223,149.776 -59.829,7.726 -115.459,14.912 -171.7,22.175 7.432,-56.862 14.632,-111.944 22.477,-171.951 m 379.864,779.868 c -56.531,-34.279 -104.851,-63.581 -144.243,-87.465 36.872,-40.373 75.133,-82.268 119.573,-130.924 8.559,75.757 16.277,144.081 24.67,218.389 m -2035.264,0.056 c 8.89,-75.46 16.935,-143.746 25.707,-218.207 44.835,47.87 83.407,89.055 121.175,129.377 -41.874,25.325 -90.666,54.831 -146.882,88.83 M 809.315,-135.951 C 783.863,-64.215 760.629,1.279 735.9,70.972 700.801,16.472 670.185,-31.066 639.417,-78.838 693.78,-97.112 747.425,-115.144 809.315,-135.951 M -621.206,-1286.237 c 71.044,-24.937 136.831,-48.035 207.169,-72.726 -20.798,61.643 -39.005,115.598 -57.19,169.482 -48.29,-31.155 -95.769,-61.784 -149.979,-96.756 m 671.66,-73.113 c 71.808,25.465 137.315,48.694 206.973,73.394 -54.146,34.831 -101.706,65.426 -149.928,96.441 -18.028,-53.675 -36.17,-107.686 -57.045,-169.835 M -470.963,452.974 c 18.049,54.095 36.059,108.059 56.586,169.571 -71.154,-25.095 -136.95,-48.304 -206.668,-72.893 53.246,-34.3 100.797,-64.933 150.082,-96.678 M 736.303,-807.917 c 24.904,71.303 47.824,136.929 72.366,207.195 -62.298,-20.952 -115.866,-38.967 -169.257,-56.922 31.092,-48.223 61.839,-95.91 96.891,-150.273 M 43.879,-1360.808 c -48.494,46.587 -89.08,85.574 -128.569,123.508 -27.156,-44.814 -56.391,-93.062 -89.913,-148.386 74.55,8.487 143.095,16.294 218.482,24.878 m -1216.727,1224.785 c 62.29,21.011 116.19,39.191 169.818,57.283 -31.882,49.344 -62.472,96.691 -96.819,149.856 -24.708,-70.117 -47.755,-135.509 -72.999,-207.139 m 983.974,785.643 c -75.001,-8.882 -143.618,-17.007 -212.235,-25.133 0.161,-2.75 0.323,-5.504 0.489,-8.253 41.669,-38.04 83.338,-76.084 123.427,-112.68 24.912,41.202 54.125,89.519 88.319,146.066 M -974.322,269.888 c 65.017,-8.457 120.618,-15.686 177.391,-23.068 -7.323,56.701 -14.509,112.314 -22.915,177.399 -53,-52.952 -101.375,-101.281 -154.476,-154.331 m -198.577,-870.296 c 25.389,-71.694 48.639,-137.349 73.318,-207.046 34.925,54.253 65.817,102.242 96.539,149.963 -54.406,18.283 -108.018,36.302 -169.857,57.083 m 1384.671,-864.074 c 79.467,27.292 151.165,62.387 220.79,106.913 -59.387,24.368 -114.877,47.134 -169.538,69.56 -16.706,-57.525 -33.276,-114.574 -51.252,-176.473 m 526.117,651.461 c 22.843,-55.46 45.885,-111.396 70.105,-170.196 43.433,71.975 80.852,142.406 105.594,221.066 -61.035,-17.671 -118.153,-34.207 -175.699,-50.87 m -1915.046,215.337 c -52.34,28.839 -105.004,57.853 -166.613,91.796 19.714,-85.251 37.81,-163.507 57.185,-247.309 40.212,57.147 74.907,106.454 109.428,155.513 m 357.451,1027.989 c 3.625,59.88 7.284,120.299 11.491,189.813 -67.984,-54.503 -130.621,-104.723 -198.236,-158.934 68.541,-11.334 126.789,-20.964 186.745,-30.879 m 27.39,-1786.285 c -1.092,-2.473 -2.184,-4.947 -3.277,-7.42 71.775,-34.84 143.55,-69.676 221.908,-107.707 -19.613,67.929 -36.349,125.917 -52.876,183.175 -56.063,-23.017 -110.907,-45.533 -165.755,-68.048 M -1283.487,12.414 c -25.83,-79.132 -46.807,-156.461 -53.632,-239.579 56.025,31.113 108.301,60.148 159.737,88.715 -34.742,49.4 -68.962,98.056 -106.105,150.864 M 47.661,627.215 c 49.285,34.636 99.293,69.782 156.223,109.794 -85.17,19.405 -163.082,37.156 -247.827,56.467 33.735,-61.227 62.672,-113.75 91.604,-166.261 m 396.753,-7.025 c 4.335,-69.972 8.096,-130.63 11.772,-189.97 59.927,9.94 118.307,19.621 186.851,30.985 C 574.917,515.73 512.008,566.086 444.414,620.19 M 910.826,26.548 c 2.197,1.696 4.398,3.392 6.596,5.087 -34.827,71.35 -69.65,142.696 -107.439,220.115 C 783.315,186.949 760.493,131.493 737.863,76.501 795.567,59.837 853.194,43.195 910.826,26.548 m -2087.94,-1008.465 c 2.49,0.948 4.98,1.891 7.471,2.839 22.728,55.507 45.46,111.013 68.026,166.125 -57.194,16.574 -114.727,33.246 -172.261,49.918 -2.478,-1.322 -4.951,-2.648 -7.429,-3.969 34.73,-71.639 69.463,-143.274 104.193,-214.913 M 980.225,-230.548 C 960.4,-144.944 942.291,-66.735 922.963,16.731 882.701,-40.463 847.937,-89.845 813.501,-138.756 c 52.349,-28.822 105.017,-57.819 166.724,-91.792 M 201.492,-1471.655 c -55.473,38.966 -105.051,73.789 -153.775,108.017 -29.447,-53.467 -58.201,-105.667 -89.246,-162.037 33.612,5.406 62.846,8.462 91.26,15.045 49.056,11.372 97.605,24.933 151.761,38.975 M -576.715,723.767 c -1.56,2.409 -3.124,4.815 -4.683,7.224 -71.444,-34.772 -142.887,-69.539 -220.565,-107.345 64.631,-26.566 120.07,-49.358 175.483,-72.137 16.502,57.126 33.135,114.694 49.765,172.258 m 9.524,13.046 c 57.903,-40.738 107.15,-75.387 155.929,-109.708 29.014,52.621 57.989,105.161 91.902,166.66 -85.242,-19.587 -163.082,-37.474 -247.831,-56.952 m 155.836,-2100.362 c -49.481,-34.874 -99.271,-69.96 -155.743,-109.76 84.422,-19.362 162.559,-37.283 247.623,-56.794 -33.939,61.525 -63.003,114.205 -91.88,166.554 m -869.816,1394.02 c 2.372,-1.254 4.743,-2.507 7.114,-3.765 57.441,16.604 114.881,33.208 172.568,49.88 -22.983,55.804 -45.979,111.638 -72.366,175.695 -37.959,-78.464 -72.637,-150.137 -107.316,-221.81 m 110.98,227.641 c 70.219,4.3 130.384,7.985 189.779,11.623 -9.732,59.042 -19.532,118.476 -30.85,187.119 -54.58,-68.252 -104.566,-130.767 -158.929,-198.742 M 923.35,-753.83 c 19.417,85.128 37.182,163.018 56.523,247.823 -61.72,-34.041 -114.231,-62.999 -166.257,-91.694 34.831,-49.561 69.429,-98.782 109.734,-156.129 m -1903.66,-252.192 c -59.965,3.604 -120.295,7.229 -183.698,11.037 45.371,-70.619 94.635,-134.026 153.902,-191.309 10.234,61.932 19.868,120.21 29.796,180.272 M 433.221,621.317 c -71.542,43.688 -142.139,80.644 -221.152,105.973 17.811,-61.465 34.462,-118.935 50.938,-175.802 55.809,22.894 110.75,45.435 170.214,69.829 M -808.053,-1356.766 c -4.331,69.82 -8.062,129.946 -11.785,190.008 -59.535,-9.817 -118.884,-19.604 -187.182,-30.866 68.086,-54.457 130.664,-104.511 198.967,-159.142 M 617.063,269.692 C 676.471,266.08 737.115,262.396 806.812,258.158 752.355,326.023 701.91,388.882 647.389,456.824 636.182,387.675 626.599,328.539 617.063,269.692 m 28.728,-1452.195 c 2.321,-1.645 4.641,-3.289 6.962,-4.934 49.998,62.782 100.002,125.564 153.583,192.839 -69.497,-4.224 -130.184,-7.913 -189.685,-11.53 9.821,-59.433 19.48,-117.902 29.14,-176.375 m -201.223,-174.442 c 68.187,54.772 130.706,104.996 198.266,159.262 -69.277,11.551 -128.272,21.385 -186.796,31.146 -3.596,-59.68 -7.217,-119.823 -11.47,-190.408 m 534.913,1117.52 c -51.707,-46.255 -98.259,-87.899 -144.161,-128.956 47.283,-42.265 93.393,-83.479 144.161,-128.854 l 0,257.81 z m -2322.172,-0.111 0,-257.138 c 51.185,45.757 97.78,87.418 143.652,128.429 -46.926,42.043 -92.637,82.998 -143.652,128.709 m 1032.987,-1289.046 256.271,0 c -45.808,51.058 -87.503,97.525 -128.442,143.151 -42.119,-47.164 -82.93,-92.867 -127.829,-143.151 m 0.922,2319.372 c 44.308,-49.438 85.727,-95.642 127.154,-141.862 41.971,47.071 83.436,93.572 124.902,140.073 -0.642,2.461 -1.284,4.921 -1.93,7.386 -56.917,0 -113.839,0.536 -170.748,-0.246 -25.457,-0.349 -50.875,-3.34 -79.378,-5.351 m 141.45,162.491 -0.012,-8.355 c 40.275,-49.586 80.55,-99.173 120.078,-147.833 51.057,39.761 101.268,78.859 151.48,117.957 -0.17,2.461 -0.345,4.926 -0.515,7.386 -90.342,10.285 -180.689,20.565 -271.031,30.845 m 270.224,-2612.217 c 0.187,2.712 0.374,5.423 0.561,8.134 -50.229,39.077 -100.453,78.15 -150.792,117.312 -40.283,-49.655 -80.946,-99.777 -127.536,-157.204 97.299,11.126 187.535,21.44 277.767,31.758 m 529.466,249.753 c -1.45,2.809 -2.899,5.622 -4.348,8.436 -61.384,13.45 -122.768,26.901 -184.547,40.436 -14.633,-61.579 -29.549,-124.362 -44.466,-187.144 1.496,-1.942 2.996,-3.88 4.492,-5.822 76.288,48.031 152.58,96.062 228.869,144.094 M -1226.918,647.831 c -2.201,1.428 -4.403,2.86 -6.604,4.288 -59.123,-73.925 -118.247,-147.85 -177.37,-221.776 1.789,-1.772 3.579,-3.544 5.368,-5.316 63.368,11.075 126.737,22.15 190.03,33.212 -3.868,64.18 -7.646,126.886 -11.424,189.592 m -182.771,-1808.499 c 55.502,-83.304 112.955,-158.343 182.703,-227.262 3.948,67.861 7.641,131.387 11.249,193.417 -65.2,11.381 -127.26,22.209 -193.952,33.845 m 943.324,-489.339 c -0.433,-2.898 -0.863,-5.792 -1.296,-8.691 90.546,-10.327 181.093,-20.654 271.639,-30.981 0.131,2.503 0.263,5.007 0.395,7.51 -40.318,49.735 -80.636,99.466 -120.524,148.666 -50.254,-38.975 -100.232,-77.741 -150.214,-116.504 m -880.763,1147.408 c -50.147,40.599 -100.104,81.04 -150.06,121.481 -2.129,-0.871 -4.259,-1.747 -6.383,-2.622 10.446,-90.215 20.892,-180.426 31.338,-270.64 2.702,0.327 5.401,0.654 8.104,0.977 38.686,49.863 77.372,99.726 117.001,150.804 m 372.24,1358.161 c -2.035,1.619 -4.075,3.242 -6.111,4.861 -73.742,-59.038 -147.489,-118.076 -221.232,-177.115 1.513,-2.158 3.026,-4.317 4.535,-6.476 63.275,-3.761 126.55,-7.522 189.524,-11.267 11.313,64.589 22.299,127.295 33.284,189.997 m 779.342,90.406 c -0.217,2.515 -0.434,5.036 -0.655,7.556 -90.593,-10.442 -181.19,-20.884 -271.783,-31.326 0.34,-2.635 0.68,-5.265 1.02,-7.896 50.275,-39.106 100.546,-78.213 150.77,-117.277 40.174,49.595 80.411,99.271 120.648,148.943 M 833.658,676.866 c 1.471,2.52 2.945,5.04 4.416,7.556 -73.951,58.758 -147.902,117.515 -221.849,176.273 -1.572,-1.985 -3.14,-3.973 -4.708,-5.962 10.981,-62.804 21.963,-125.608 33.097,-189.261 63.377,3.821 126.211,7.607 189.044,11.394 M 996.676,212.834 c 2.087,1.734 4.169,3.472 6.252,5.21 -48.155,76.216 -96.309,152.432 -144.464,228.653 -2.52,-1.322 -5.04,-2.644 -7.56,-3.961 -13.553,-62.035 -27.106,-124.065 -40.59,-185.797 62.221,-14.726 124.294,-29.418 186.362,-44.105 M 850.755,-1178.649 c 2.941,-1.122 5.882,-2.239 8.823,-3.361 47.869,76.199 95.735,152.398 143.605,228.597 -2.036,1.436 -4.068,2.877 -6.099,4.318 -62.731,-14.896 -125.463,-29.792 -186.732,-44.339 13.604,-62.348 27.003,-123.784 40.403,-185.215 m -2197.67,944.842 c -39.659,50.798 -79.157,101.383 -118.655,151.968 -2.299,-0.293 -4.598,-0.586 -6.897,-0.879 -10.297,-90.376 -20.595,-180.749 -31.708,-278.294 57.542,46.548 107.703,87.121 157.26,127.205 m 2447.767,-419.774 c 2.702,0.119 5.405,0.238 8.108,0.357 10.204,90.066 20.412,180.127 30.62,270.194 -2.584,0.263 -5.172,0.527 -7.756,0.79 -49.587,-40.254 -99.173,-80.512 -148.318,-120.405 39.128,-50.322 78.239,-100.627 117.346,-150.936 m -489.276,-937.15 c 1.845,-2.124 3.693,-4.249 5.538,-6.374 l 221.559,177.459 c -1.568,2.154 -3.137,4.309 -4.705,6.464 -63.496,3.705 -126.993,7.416 -189.469,11.062 -11.24,-64.38 -22.082,-126.495 -32.923,-188.611 m 435.337,423.204 c -1.921,2.002 -3.842,3.999 -5.762,6.001 -62.813,-10.977 -125.625,-21.95 -189.253,-33.068 3.85,-63.581 7.671,-126.776 11.496,-189.97 2.325,-1.126 4.645,-2.257 6.97,-3.383 58.847,73.475 117.698,146.95 176.549,220.42 M 870.551,651.707 c -2.414,-1.351 -4.828,-2.703 -7.242,-4.054 -3.782,-63.373 -7.565,-126.747 -11.313,-189.52 64.363,-11.267 127.099,-22.252 189.834,-33.234 1.866,1.56 3.732,3.124 5.597,4.684 -58.957,74.04 -117.919,148.084 -176.876,222.124 m 112.998,-885.684 c 50.024,-40.399 99.976,-80.738 149.933,-121.081 2.163,0.85 4.33,1.7 6.498,2.545 -10.531,90.16 -21.058,180.32 -31.585,270.475 -2.563,-0.298 -5.129,-0.595 -7.688,-0.893 -39.051,-50.347 -78.103,-100.694 -117.158,-151.046 m -2185.231,-1179.639 c 70.478,-69.123 144.178,-128.658 227.415,-181.721 -11.9,67.699 -22.936,130.52 -33.981,193.361 -63.782,-3.837 -126.598,-7.619 -193.434,-11.64 m -356.695,1549.474 c 2.282,-0.927 4.564,-1.853 6.847,-2.78 59.48,25.21 118.96,50.42 177.777,75.349 -17.551,62.498 -34.623,123.295 -51.698,184.089 -2.72,0.608 -5.44,1.215 -8.156,1.823 -41.593,-86.161 -83.181,-172.321 -124.77,-258.481 m 342.755,311.731 c -58.579,-75.315 -108.064,-150.91 -147.91,-235.609 65.787,15.631 127.821,30.369 189.558,45.04 -13.557,62.034 -27.088,123.949 -41.648,190.569 m 221.253,-1848.795 c 42.698,-43.739 190.374,-135.204 231.377,-144.273 -14.722,61.776 -29.49,123.759 -44.113,185.126 -61.775,-13.476 -123.104,-26.855 -187.264,-40.853 m 48.588,2283.852 c 0.986,-2.465 1.972,-4.926 2.958,-7.386 61.444,-17.098 122.888,-34.195 184.51,-51.338 25.265,59.705 50.364,119.011 75.468,178.321 -1.012,2.091 -2.023,4.178 -3.035,6.269 -86.636,-41.958 -173.268,-83.912 -259.901,-125.866 m 187.196,-2442.935 c -61.886,-17.284 -122.96,-34.339 -184.038,-51.393 -0.841,-2.605 -1.679,-5.21 -2.52,-7.815 86.543,-41.87 173.09,-83.739 259.633,-125.603 0.863,2.244 1.721,4.492 2.58,6.736 -24.9,58.613 -49.804,117.222 -75.655,178.075 M 443.284,623.909 c 62.629,13.701 124.277,27.19 185.925,40.675 0.981,2.783 1.967,5.567 2.953,8.355 -76.305,47.955 -152.606,95.91 -235.333,147.902 16.923,-71.737 31.555,-133.763 46.455,-196.932 M -762.827,810.148 c -1.729,2.142 -3.459,4.284 -5.184,6.426 -76.229,-48.201 -152.458,-96.403 -228.682,-144.604 1.304,-2.49 2.609,-4.977 3.914,-7.467 62,-13.518 124.005,-27.037 185.797,-40.509 14.696,61.975 29.426,124.065 44.155,186.154 m 273.19,-2464.575 c 1.165,2.682 2.329,5.359 3.494,8.037 -28.631,57.589 -57.266,115.182 -85.353,171.675 -58.482,-27.305 -115.994,-54.164 -173.507,-81.018 -0.45,-2.542 -0.897,-5.079 -1.347,-7.616 85.574,-30.361 171.144,-60.717 256.713,-91.078 m 873.063,91.035 c -0.842,2.665 -1.679,5.33 -2.521,7.994 -58.069,27.025 -116.134,54.049 -173.115,80.568 -28.657,-57.942 -56.85,-114.949 -85.047,-171.96 0.96,-2.388 1.925,-4.777 2.885,-7.165 85.936,30.186 171.867,60.377 257.798,90.563 m 812.077,691.282 c -2.172,1.13 -4.339,2.265 -6.506,3.399 -59.187,-25.299 -118.374,-50.598 -178.632,-76.356 17.097,-61.193 34.224,-122.475 51.346,-183.761 2.465,-0.961 4.93,-1.925 7.394,-2.886 42.133,86.535 84.266,173.069 126.398,259.604 m -2369.447,-121.307 c -62.999,14.938 -125.08,29.651 -190.183,45.086 41.585,-84.082 88.851,-161.254 148.79,-235.009 14.424,66.182 27.798,127.549 41.393,189.923 m 2277.766,317.873 c -2.409,0.845 -4.819,1.691 -7.229,2.537 -57.338,-28.291 -114.676,-56.582 -171.917,-84.826 26.927,-57.649 54.096,-115.82 81.265,-173.991 2.63,-0.374 5.257,-0.753 7.887,-1.127 30,85.804 59.995,171.607 89.994,257.407 m -2658.315,-192.724 c 33.646,-93.407 74.963,-179.759 128.251,-264.517 18.393,66.046 35.439,127.269 52.319,187.884 -60.066,25.495 -118.743,50.394 -180.57,76.633 M 924.026,20.089 c 30.437,-14.033 59.875,-26.829 88.591,-41.075 28.147,-13.96 55.562,-29.391 85.413,-45.302 -12.418,80.057 -69.484,235.617 -93.449,259.025 C 978.054,135.887 951.318,78.583 924.026,20.089 M 319.177,-1737.663 c 1.266,-2.593 2.533,-5.181 3.799,-7.769 86.327,42.201 172.653,84.406 258.979,126.606 -1.062,2.388 -2.129,4.777 -3.191,7.165 -61.359,17.118 -122.718,34.237 -183.686,51.249 -25.66,-59.927 -50.78,-118.587 -75.901,-177.251 M 651.648,657.3 c -1.641,-2.261 -3.277,-4.522 -4.913,-6.783 l 0,-191.632 191.721,0 c 1.857,2.078 3.714,4.16 5.571,6.243 C 779.902,529.185 715.773,593.242 651.648,657.3 m -1222.962,80.814 c 28.036,57.079 56.34,114.706 84.644,172.334 -1.42,2.609 -2.843,5.219 -4.267,7.828 -85.302,-30.616 -170.604,-61.227 -255.906,-91.843 0.795,-2.503 1.594,-5.002 2.388,-7.505 57.742,-26.952 115.489,-53.904 173.141,-80.814 m -716.89,-716.793 c -26.876,57.674 -53.956,115.799 -81.04,173.923 -2.656,0.442 -5.308,0.884 -7.964,1.326 -30.216,-85.705 -60.432,-171.411 -90.652,-257.117 2.507,-0.914 5.01,-1.827 7.513,-2.741 57.36,28.193 114.724,56.386 172.143,84.609 m -183.774,-686.849 c -51.347,36.719 -103.232,73.824 -155.118,110.933 -2.771,-0.871 -5.538,-1.738 -8.309,-2.605 21.42,-92.697 42.834,-185.393 64.253,-278.086 2.733,0.493 5.465,0.986 8.198,1.479 29.974,55.443 59.944,110.882 90.976,168.279 m 2663.21,797.514 c -34.534,93.908 -75.306,180.094 -128.65,264.121 -18.27,-65.711 -35.316,-127.01 -52.213,-187.795 59.23,-24.997 117.103,-49.416 180.863,-76.326 m -545.84,-1327.332 0,-194.488 c 54.767,35.091 173.817,155.844 192.499,194.488 l -192.499,0 z m -2108.229,523.903 c 19.417,-92.493 51.176,-177.85 92.382,-262.965 28.814,61.936 55.673,119.674 82.174,176.634 -57.64,28.508 -114.821,56.79 -174.556,86.331 M 7.39,1085.293 c -0.701,-3.132 -1.406,-6.26 -2.112,-9.388 37.101,-51.699 74.202,-103.397 110.555,-154.051 56.586,30.837 112.415,61.265 168.249,91.69 0.476,2.566 0.952,5.138 1.428,7.705 -92.709,21.346 -185.415,42.693 -278.12,64.044 M 385.283,820.887 c -86.794,39.685 -171.352,73.509 -263.607,91.482 29.817,-60.45 58.052,-117.694 85.914,-174.183 57.729,26.872 115.038,53.539 177.693,82.701 m -99.968,-2578.873 c -0.268,2.967 -0.536,5.933 -0.799,8.899 -56.765,30.51 -113.53,61.023 -169.045,90.865 -37.283,-52.166 -74.193,-103.801 -111.098,-155.44 1.062,-2.627 2.121,-5.257 3.183,-7.888 92.586,21.189 185.172,42.375 277.759,63.564 M 394.896,823.726 c 62.123,17.433 123.057,34.526 188.27,52.821 -85.705,52.285 -171.025,94.328 -265.506,128.773 27.067,-63.645 51.882,-121.977 77.236,-181.594 m -1601.007,-2019.484 c 60.39,-73.789 122.985,-139.449 197.268,-195.865 l 0,195.865 -197.268,0 z m 726.844,-462.884 c -56.153,-30.11 -112.199,-60.161 -173.065,-92.795 95.808,-32.392 188.747,-54.946 287.04,-65.307 -39.761,55.159 -77.104,106.955 -113.975,158.102 m -529.547,2117.744 0,197.237 c -73.938,-59.68 -139.427,-123.172 -196.192,-197.237 l 196.192,0 z M 1199.379,-835.707 c 2.792,-0.025 5.589,-0.055 8.385,-0.08 21.211,92.811 42.426,185.623 63.641,278.43 -2.818,0.862 -5.631,1.725 -8.445,2.588 -52.166,-37.415 -104.337,-74.831 -154.595,-110.877 31.007,-57.938 61.011,-114.001 91.014,-170.061 M -648.736,1021.882 c 0.063,-2.75 0.127,-5.499 0.187,-8.253 56.543,-30.718 113.087,-61.436 169.235,-91.941 37.148,51.822 74.359,103.729 111.566,155.632 -0.57,2.64 -1.139,5.279 -1.704,7.918 -93.096,-21.117 -186.188,-42.239 -279.284,-63.356 M 1207.93,99.756 c -2.818,-0.315 -5.636,-0.629 -8.449,-0.944 -30.552,-56.986 -61.1,-113.975 -90.98,-169.716 51.89,-37.288 103.742,-74.55 155.598,-111.816 2.52,0.701 5.041,1.398 7.565,2.099 -21.245,93.458 -42.49,186.919 -63.734,280.377 M -1635.43,-180.4 c 3.009,-0.421 6.018,-0.841 9.027,-1.262 51.864,37.249 103.729,74.495 154.518,110.971 -30.709,56.79 -60.989,112.781 -91.269,168.772 -2.86,0.259 -5.724,0.519 -8.584,0.778 -21.232,-93.084 -42.46,-186.171 -63.692,-279.259 M -30.807,1084.949 c -102.254,10.391 -200.11,11.585 -301.302,-0.582 52.604,-46.396 101.255,-89.302 150.336,-132.582 49.111,43.323 97.78,86.25 150.966,133.164 M -1638.09,-521.153 c 47.177,51.919 89.267,97.49 129.869,144.349 3.222,3.718 -1.402,18.486 -6.578,24.525 -28.648,33.429 -58.703,65.651 -88.035,98.502 -9.826,11.007 -18.929,22.656 -28.363,34.016 -2.295,-0.812 -4.594,-1.624 -6.893,-2.436 l 0,-298.956 z m 2912.41,305.922 c -47.05,-51.865 -88.434,-97.066 -129.011,-142.976 -3.4,-3.851 -4.403,-15.151 -1.441,-18.5 41.138,-46.522 83.16,-92.259 130.452,-144.217 l 0,305.693 z M -27.649,-1824.164 c -56.14,49.553 -105.272,92.914 -154.251,136.143 -49.961,-44.232 -98.723,-87.398 -153.779,-136.143 l 308.03,0 z m -411.062,1457.801 c -0.268,-143.652 112.526,-258.209 255.132,-259.119 143.546,-0.922 258.839,113.98 259.128,258.24 0.284,141.633 -114.409,255.272 -258.346,255.986 -140.664,0.693 -255.651,-113.928 -255.914,-255.107 m 620.522,173.758 c -12.036,25.49 -24.071,50.98 -37.743,79.947 -32.583,-38.954 -59.981,-71.707 -87.915,-105.102 43.012,8.874 84.809,17.497 126.61,26.119 -32.966,-28.329 -65.932,-56.662 -96.628,-83.041 l 131.232,0 c -15.597,31.432 -23.019,56.739 -35.556,82.077 m 1132.16,-177.072 c -3.358,-825.41 -665.209,-1490.555 -1488.957,-1493.619 -836.9,-3.115 -1506.661,668.094 -1501.782,1507.575 4.777,822.392 673.747,1487.936 1504.702,1482.79 821.24,-5.087 1484.29,-669.081 1486.037,-1496.746"
             style="fill:#e3c7b8;fill-opacity:1;fill-rule:nonzero;stroke:none"
             id="path4264" /></g></g></g></g></svg>