<?xml version="1.0" encoding="UTF-8" standalone="no"?>
<!-- Created with Inkscape (http://www.inkscape.org/) -->

<svg
   xmlns:dc="http://purl.org/dc/elements/1.1/"
   xmlns:cc="http://creativecommons.org/ns#"
   xmlns:rdf="http://www.w3.org/1999/02/22-rdf-syntax-ns#"
   xmlns:svg="http://www.w3.org/2000/svg"
   xmlns="http://www.w3.org/2000/svg"
   xmlns:sodipodi="http://sodipodi.sourceforge.net/DTD/sodipodi-0.dtd"
   xmlns:inkscape="http://www.inkscape.org/namespaces/inkscape"
   width="40.498837"
   height="112.53259"
   id="svg4923"
   version="1.1"
   inkscape:version="0.48.4 r9939"
   sodipodi:docname="New document 31">
  <defs
     id="defs4925">
    <clipPath
       clipPathUnits="userSpaceOnUse"
       id="clipPath3229">
      <path
         inkscape:connector-curvature="0"
         d="m 0,5034.388 1362,0 L 1362,0 0,0 0,5034.388 z"
         id="path3231" />
    </clipPath>
  </defs>
  <sodipodi:namedview
     id="base"
     pagecolor="#ffffff"
     bordercolor="#666666"
     borderopacity="1.0"
     inkscape:pageopacity="0.0"
     inkscape:pageshadow="2"
     inkscape:zoom="0.35"
     inkscape:cx="-70.464865"
     inkscape:cy="13.409118"
     inkscape:document-units="px"
     inkscape:current-layer="layer1"
     showgrid="false"
     fit-margin-top="0"
     fit-margin-left="0"
     fit-margin-right="0"
     fit-margin-bottom="0"
     inkscape:window-width="705"
     inkscape:window-height="481"
     inkscape:window-x="926"
     inkscape:window-y="633"
     inkscape:window-maximized="0" />
  <metadata
     id="metadata4928">
    <rdf:RDF>
      <cc:Work
         rdf:about="">
        <dc:format>image/svg+xml</dc:format>
        <dc:type
           rdf:resource="http://purl.org/dc/dcmitype/StillImage" />
        <dc:title></dc:title>
      </cc:Work>
    </rdf:RDF>
  </metadata>
  <g
     inkscape:label="Layer 1"
     inkscape:groupmode="layer"
     id="layer1"
     transform="translate(-445.46487,-433.2387)">
    <g
       transform="matrix(1.25,0,0,-1.25,-385.53563,5997.5981)"
       id="g3225">
      <g
         id="g3227"
         clip-path="url(#clipPath3229)">
        <g
           id="g3233"
           transform="translate(691.0457,4420.3052)">
          <path
             inkscape:connector-curvature="0"
             d="M 0,0 C -0.296,-0.643 -0.244,-1.72 0.08,-1.831 0.054,-1.233 0.028,-0.641 0,0 m -16.206,-42.124 c -0.041,0.23 -0.077,0.435 -0.117,0.658 -0.155,-0.037 -0.278,-0.064 -0.4,-0.096 -0.117,-0.031 -0.231,-0.065 -0.345,-0.098 0.141,-0.549 0.188,-0.575 0.862,-0.464 m -1.222,-8.4 c 0.536,-0.518 0.671,-0.583 1.065,-0.323 0.137,0.091 0.141,0.386 0.236,0.686 -0.507,-0.142 -0.881,-0.246 -1.301,-0.363 m 21.883,0.925 c 0.265,0.333 0.255,2.754 0,4.642 l 0,-4.642 z m 0.284,10.765 c -0.031,0.009 -0.062,0.019 -0.094,0.028 -0.064,-0.252 -0.19,-0.506 -0.184,-0.757 0.022,-0.846 0.091,-1.69 0.141,-2.535 0.018,-0.299 0.034,-0.597 0.051,-0.896 l 0.086,0.007 0,4.153 z m 0.522,11.358 c -0.034,1.622 0.4,3.237 -0.046,4.856 -0.101,-0.816 -0.17,-1.636 -0.255,-2.454 -0.087,-0.824 -0.081,-1.634 0.301,-2.402 m -21.979,-15.205 c 0,-0.257 -0.004,-0.483 0,-0.71 0.035,-1.536 0.069,-3.071 0.109,-4.608 0.02,-0.768 -0.306,-1.436 -0.607,-2.148 0.346,0.066 0.673,0.13 0.981,0.19 l 0,7.362 c -0.184,-0.032 -0.331,-0.058 -0.483,-0.086 m 0.208,16.892 c -0.036,0.004 -0.071,0.009 -0.107,0.014 -0.026,-0.613 -0.435,-1.127 -0.293,-1.8 0.175,-0.825 0.263,-1.671 0.373,-2.509 0.063,-0.477 0.155,-0.959 0.13,-1.434 -0.044,-0.841 -0.161,-1.679 -0.259,-2.517 -0.059,-0.511 -0.154,-1.005 -0.505,-1.428 -0.131,-0.158 -0.187,-0.417 -0.194,-0.633 -0.026,-0.886 0.005,-1.773 -0.033,-2.657 -0.039,-0.876 -0.084,-1.743 0.311,-2.562 0.714,0.044 0.772,0.099 0.733,0.554 -0.11,1.255 -0.205,2.51 -0.307,3.764 -0.03,0.369 -0.133,0.747 -0.082,1.104 0.152,1.064 0.43,2.113 0.533,3.18 0.096,0.98 0.062,1.976 0.021,2.963 -0.037,0.906 -0.163,1.81 -0.242,2.716 -0.036,0.414 -0.053,0.83 -0.079,1.245 m 8.512,52.235 c -0.786,0.079 -1.432,-0.205 -2.02,-0.7 -0.295,-0.247 -0.457,-0.552 -0.387,-0.91 0.09,-0.462 0.227,-0.922 0.4,-1.361 0.154,-0.386 0.376,-0.754 0.916,-0.544 0.066,0.025 0.153,-0.002 0.23,-0.006 0.845,-0.044 1.691,-0.09 2.536,-0.127 0.093,-0.004 0.22,0.011 0.276,0.069 0.382,0.393 0.717,0.812 0.586,1.422 -0.038,0.174 -0.039,0.357 -0.074,0.533 -0.135,0.683 -0.469,1.457 -1.279,1.517 -0.395,0.029 -0.789,0.071 -1.184,0.107 m 5.724,-2.449 c 0.03,-0.001 0.059,-0.003 0.09,-0.004 0.047,0.39 0.168,0.789 0.124,1.169 -0.082,0.711 -0.209,1.424 -0.415,2.107 -0.141,0.465 -0.369,0.953 -0.698,1.299 -0.399,0.42 -0.942,0.704 -1.426,1.041 -1.382,0.966 -2.915,1.11 -4.513,0.772 -0.751,-0.16 -1.489,-0.391 -2.224,-0.618 -1.001,-0.309 -1.742,-0.908 -2.067,-1.947 -0.12,-0.38 -0.28,-0.747 -0.406,-1.125 -0.226,-0.671 -0.273,-1.36 -0.133,-2.055 0.188,-0.933 0.419,-1.855 0.994,-2.644 0.147,-0.202 0.297,-0.403 0.46,-0.623 0.731,0.598 1.416,1.156 2.27,1.479 -0.067,0.083 -0.136,0.158 -0.193,0.241 -0.421,0.605 -0.715,1.282 -0.661,2.012 0.055,0.774 0.837,2.167 1.877,2.316 0.706,0.101 1.44,0.131 2.149,0.066 1.446,-0.135 2.174,-1.017 2.271,-2.272 0.064,-0.83 0.1,-1.704 -0.461,-2.595 0.365,0 0.713,-0.107 0.883,0.021 0.423,0.32 0.565,1.379 0.351,1.873 -0.039,0.09 -0.04,0.198 -0.046,0.298 -0.068,1.104 -0.27,2.161 -1.03,3.03 -0.287,0.328 -0.722,0.436 -1.155,0.312 -0.102,-0.029 -0.271,0.005 -0.344,0.076 -0.199,0.193 -0.386,0.264 -0.654,0.141 -0.105,-0.05 -0.254,-0.013 -0.382,-0.001 -0.431,0.037 -0.861,0.097 -1.293,0.116 -0.458,0.02 -0.917,0.005 -1.369,0.005 -0.051,0.377 0.093,0.645 0.403,0.7 0.729,0.125 1.453,0.347 2.209,0.183 0.07,-0.016 0.148,0.006 0.222,0.017 0.307,0.044 0.63,0.173 0.919,0.118 0.575,-0.108 1.144,-0.283 1.692,-0.493 0.926,-0.355 1.557,-1.005 1.857,-1.975 0.22,-0.708 0.133,-1.515 0.676,-2.122 0.041,-0.045 0.021,-0.149 0.022,-0.227 0.002,-0.23 10e-4,-0.46 10e-4,-0.691 m -10.891,-60.185 c -0.035,-0.09 -0.041,-0.146 -0.072,-0.178 -0.442,-0.454 -1.039,-0.477 -1.609,-0.53 -0.157,-0.014 -0.323,0.196 -0.5,0.249 -0.176,0.053 -0.371,0.038 -0.558,0.053 0.064,-0.154 0.1,-0.333 0.202,-0.456 0.099,-0.116 0.268,-0.174 0.406,-0.257 0.088,-0.052 0.182,-0.094 0.262,-0.156 0.294,-0.23 0.554,-0.523 0.88,-0.687 0.616,-0.312 1.269,-0.552 1.87,-0.807 0.204,0.143 0.355,0.241 0.498,0.349 0.607,0.464 1.064,1.006 1.018,1.838 -0.006,0.11 0.073,0.247 0.153,0.334 0.366,0.399 0.606,0.85 0.693,1.392 0.057,0.348 0.138,0.675 -0.298,0.861 0.116,0.016 0.231,0.032 0.248,0.034 0.057,0.233 0.096,0.405 0.141,0.575 0.035,0.134 0.119,0.268 0.113,0.399 -0.026,0.561 -0.071,1.121 -0.121,1.681 -0.081,0.905 -0.161,1.811 -0.262,2.714 -0.08,0.713 -0.173,1.425 -0.291,2.132 -0.141,0.835 -0.362,1.657 -0.465,2.495 -0.203,1.652 -0.615,3.246 -1.175,4.806 -0.047,0.128 -0.194,0.27 -0.324,0.31 -0.81,0.248 -1.585,0.287 -2.193,-0.464 -0.177,-0.219 -0.393,-0.408 -0.578,-0.621 -0.063,-0.072 -0.118,-0.175 -0.123,-0.268 -0.041,-0.687 -0.085,-1.374 -0.096,-2.062 -0.02,-1.153 0.002,-2.307 -0.029,-3.459 -0.012,-0.495 -0.141,-0.987 -0.168,-1.483 -0.033,-0.624 -0.035,-1.25 -0.015,-1.874 0.015,-0.484 0.122,-0.968 0.121,-1.451 -0.001,-0.575 -0.092,-1.148 -0.114,-1.723 -0.021,-0.566 -0.004,-1.133 -0.004,-1.699 0.126,0.229 0.163,0.47 0.192,0.711 0.018,0.151 -0.028,0.328 0.035,0.453 0.531,1.052 0.418,2.181 0.389,3.289 -0.028,1.089 -0.054,2.155 0.652,3.087 0.067,0.09 0.02,0.291 -0.016,0.431 -0.082,0.316 -0.241,0.621 -0.274,0.939 -0.044,0.431 0.016,0.871 0.005,1.307 -0.013,0.562 0.054,1.157 -0.11,1.677 -0.146,0.465 -0.231,0.9 -0.214,1.378 0.019,0.503 0.873,1.2 1.365,1.083 0.075,-0.018 0.137,-0.096 0.178,-0.126 -0.31,-0.249 -0.578,-0.547 -0.913,-0.709 -0.342,-0.166 -0.334,-0.41 -0.333,-0.691 10e-4,-0.104 0.007,-0.207 0.016,-0.309 0.026,-0.325 0.22,-0.453 0.526,-0.338 0.42,0.155 0.841,0.309 1.255,0.481 0.103,0.043 0.166,0.174 0.267,0.232 0.068,0.039 0.22,0.058 0.248,0.02 0.191,-0.253 0.111,-0.507 -0.195,-0.607 -0.341,-0.112 -0.695,-0.187 -1.037,-0.299 -0.101,-0.033 -0.256,-0.137 -0.254,-0.207 0.005,-0.315 0.051,-0.631 0.095,-0.945 0.024,-0.174 0.109,-0.346 0.103,-0.517 -0.022,-0.649 -0.07,-1.297 -0.107,-1.944 1.04,-0.213 1.361,0.051 1.01,-1.834 0.156,-0.049 0.319,-0.087 0.467,-0.153 0.049,-0.022 0.083,-0.122 0.082,-0.187 -0.001,-0.031 -0.095,-0.079 -0.15,-0.086 -0.088,-0.012 -0.18,0.007 -0.269,0.009 -0.456,0.011 -0.514,-0.048 -0.52,-0.536 0.314,-0.035 0.632,-0.058 0.945,-0.11 0.092,-0.015 0.172,-0.107 0.257,-0.165 -0.098,-0.063 -0.188,-0.161 -0.294,-0.182 -0.187,-0.038 -0.385,-0.05 -0.575,-0.034 -0.424,0.037 -0.537,-0.229 -0.572,-0.564 -0.09,-0.863 -0.128,-1.734 -0.268,-2.589 -0.076,-0.462 0.129,-0.686 0.435,-0.921 0.253,-0.196 0.534,-0.378 0.723,-0.626 0.14,-0.184 0.266,-0.502 0.203,-0.696 -0.17,-0.527 -0.43,-1.025 -1.083,-1.126 -0.426,-0.066 -0.849,-0.161 -1.271,-0.256 -0.094,-0.022 -0.175,-0.101 -0.347,-0.205 0.188,-0.044 0.265,-0.062 0.357,-0.083 -0.01,-0.115 -0.021,-0.227 -0.039,-0.437 0.491,0.117 0.938,0.223 1.426,0.338 m -3.102,-15.023 c -0.142,-0.039 -0.224,-0.07 -0.31,-0.082 -0.334,-0.05 -0.486,-0.194 -0.409,-0.57 0.047,-0.229 -0.026,-0.483 -0.034,-0.725 -0.017,-0.474 -0.043,-0.948 -0.034,-1.421 0.011,-0.526 0.076,-1.052 0.08,-1.578 0.004,-0.323 -0.06,-0.646 -0.095,-0.984 -0.468,0.189 -0.639,0.491 -0.772,0.919 -0.3,0.955 -0.141,1.915 -0.123,2.866 0.013,0.781 -0.238,1.344 -0.834,1.811 -0.489,0.383 -0.481,0.403 -0.13,0.932 0.082,0.125 0.228,0.207 0.315,0.33 0.084,0.118 0.183,0.262 0.184,0.397 0.004,0.729 -0.025,1.458 -0.034,2.187 -0.007,0.667 0.077,1.347 -0.027,1.998 -0.084,0.523 -0.022,0.981 0.135,1.457 0.036,0.109 0.041,0.228 0.055,0.342 0.063,0.53 -0.071,0.67 -0.598,0.704 -0.421,0.027 -0.839,0.093 -1.258,0.141 0.004,0.044 0.009,0.088 0.013,0.131 l 1.649,0 c 0.026,0.601 0.027,0.568 -0.552,0.526 -0.412,-0.031 -0.832,0.048 -1.248,0.078 -0.002,0.069 -0.004,0.139 -0.005,0.21 0.554,0.083 1.108,0.166 1.648,0.247 -0.068,1.338 -0.134,2.652 -0.197,3.891 -0.59,0.133 -1.138,0.243 -1.677,0.383 -0.245,0.064 -0.439,0.185 -0.536,0.481 -0.235,0.723 -0.527,1.425 -0.797,2.136 -0.052,-0.159 -0.049,-0.329 -0.052,-0.498 -0.018,-1.204 -0.03,-2.409 -0.059,-3.613 -0.028,-1.142 -0.097,-2.283 -0.101,-3.425 -0.001,-0.587 0.101,-1.175 0.156,-1.762 0.142,-1.484 0.261,-2.969 0.437,-4.448 0.058,-0.478 0.339,-0.93 0.385,-1.407 0.105,-1.099 0.113,-2.208 0.19,-3.31 0.045,-0.646 0.078,-1.306 0.235,-1.929 0.274,-1.085 0.745,-2.083 1.696,-2.764 0.259,-0.185 0.54,-0.346 0.825,-0.489 0.245,-0.122 0.51,-0.204 0.768,-0.299 0.427,-0.158 0.401,0.29 0.588,0.452 0.105,0.09 0.204,0.207 0.257,0.332 0.069,0.163 0.126,0.346 0.123,0.519 -0.006,0.395 -0.066,0.789 -0.077,1.184 -0.008,0.313 0.025,0.627 0.039,0.941 0.024,0.55 0.046,1.1 0.073,1.65 0.033,0.674 0.071,1.347 0.108,2.059 m 10.274,30.716 c -0.514,-0.264 -0.901,-0.463 -1.288,-0.662 -0.029,0.049 -0.059,0.098 -0.088,0.146 0.281,0.207 0.557,0.423 0.846,0.618 0.165,0.112 0.257,0.197 0.169,0.428 -0.151,0.394 -0.268,0.804 -0.365,1.215 -0.08,0.339 -0.285,0.598 -0.59,0.647 -0.51,0.084 -1.043,0.13 -1.555,0.079 -0.611,-0.061 -0.944,-0.582 -1.304,-1.015 -0.155,-0.186 -0.371,-0.389 -0.395,-0.601 -0.064,-0.598 -0.093,-1.208 -0.041,-1.805 0.056,-0.635 0.222,-1.261 0.341,-1.89 0.139,-0.74 0.268,-1.483 0.429,-2.219 0.038,-0.176 0.149,-0.37 0.287,-0.484 0.117,-0.097 0.402,-0.178 0.47,-0.115 0.214,0.199 0.46,0.453 0.505,0.718 0.048,0.291 -0.101,0.586 -0.442,0.777 -0.237,0.133 -0.457,0.427 -0.536,0.692 -0.258,0.871 -0.453,1.76 -0.664,2.644 -0.048,0.199 -0.102,0.411 -0.079,0.609 0.02,0.185 0.138,0.358 0.246,0.613 0.108,-0.158 0.146,-0.195 0.163,-0.241 0.172,-0.504 0.425,-0.854 1.055,-0.8 0.151,0.013 0.432,-0.274 0.471,-0.46 0.069,-0.337 0.009,-0.703 -0.012,-1.056 -0.018,-0.291 -0.122,-0.593 -0.074,-0.871 0.078,-0.452 0.298,-0.881 0.369,-1.334 0.107,-0.671 0.239,-1.312 0.76,-1.812 0.163,0.049 0.353,0.105 0.558,0.167 0.089,-0.307 0.017,-0.476 -0.251,-0.589 -0.378,-0.16 -0.747,-0.346 -1.113,-0.535 -0.057,-0.03 -0.078,-0.132 -0.115,-0.201 0.073,-0.037 0.152,-0.109 0.221,-0.103 0.096,0.01 0.184,0.085 0.279,0.122 0.605,0.233 1.21,0.463 1.816,0.695 0.018,-0.044 0.036,-0.086 0.053,-0.13 -0.449,-0.21 -0.881,-0.471 -1.349,-0.616 -0.565,-0.175 -0.632,-0.581 -0.61,-1.044 0.037,-0.751 0.157,-1.5 0.15,-2.249 -0.009,-1.21 0.054,-2.425 -0.266,-3.623 -0.231,-0.866 -0.363,-1.76 -0.519,-2.644 -0.025,-0.136 0.017,-0.317 0.096,-0.43 0.421,-0.597 0.862,-1.18 1.302,-1.763 0.05,-0.065 0.134,-0.132 0.21,-0.141 0.697,-0.087 1.384,-0.051 2.047,0.203 0.119,0.045 0.279,0.094 0.329,0.188 0.245,0.472 0.46,0.961 0.692,1.459 -0.107,0.007 -0.172,0.011 -0.221,0.014 0.322,0.5 0.637,0.988 0.947,1.478 0.068,0.108 0.097,0.249 0.182,0.338 0.314,0.326 0.322,0.67 0.255,1.112 -0.13,0.847 -0.077,1.723 -0.22,2.567 -0.131,0.774 -0.317,1.575 -0.674,2.262 -0.241,0.465 -0.46,0.906 -0.565,1.414 -0.207,1.005 -0.09,2.064 -0.649,3.014 -0.618,1.048 -0.724,2.267 -0.944,3.441 -0.109,0.576 -0.208,1.154 -0.319,1.773 M 1.708,7.707 C 0.514,7.988 0.464,8.043 0.366,9.109 0.365,9.122 0.363,9.135 0.362,9.148 c -0.138,1.881 -0.297,3.761 -0.406,5.644 -0.041,0.715 0.034,1.437 0.059,2.236 -0.273,0.626 -0.921,0.857 -1.608,1.032 -0.172,0.044 -0.349,0.083 -0.51,0.156 -0.947,0.427 -1.883,0.88 -2.837,1.291 -0.672,0.289 -1.356,0.56 -2.054,0.779 -1.118,0.349 -2.286,0.146 -3.41,0.093 -1.057,-0.049 -2.098,-0.487 -3.139,-0.779 -0.377,-0.106 -0.736,-0.279 -1.102,-0.423 -0.408,-0.158 -0.852,-0.262 -1.212,-0.493 -0.372,-0.24 -0.654,-0.615 -0.994,-0.909 -0.261,-0.228 -0.37,-0.502 -0.378,-0.837 -0.006,-0.23 -0.026,-0.46 -0.055,-0.689 -0.202,-1.594 -0.397,-3.189 -0.617,-4.781 -0.117,-0.854 -0.32,-1.699 -0.408,-2.556 -0.088,-0.842 -0.08,-1.694 -0.112,-2.542 -0.002,-0.05 0.003,-0.106 0.024,-0.15 0.249,-0.52 0.502,-1.037 0.785,-1.622 0.218,0.439 0.418,0.822 0.597,1.213 0.324,0.703 1.316,1.256 2.057,1.111 0.117,-0.023 0.244,-0.138 0.301,-0.245 0.024,-0.046 -0.101,-0.211 -0.193,-0.27 -0.386,-0.251 -0.843,-0.423 -1.171,-0.734 -0.789,-0.744 -0.99,-1.749 -0.705,-2.729 0.361,-1.245 0.153,-2.411 -0.272,-3.532 -0.483,-1.278 -1.237,-2.414 -2.139,-3.466 -0.58,-0.675 -1.013,-1.486 -1.451,-2.269 -0.349,-0.625 -0.473,-1.346 -0.808,-1.994 -0.624,-1.207 -1.152,-2.464 -1.694,-3.712 -0.507,-1.165 -1.073,-2.316 -1.438,-3.526 -0.294,-0.971 -0.325,-2.021 -0.474,-3.037 -0.067,-0.454 -0.2,-0.91 -0.189,-1.363 0.019,-0.701 0.054,-1.42 0.227,-2.095 0.342,-1.341 0.727,-2.678 1.202,-3.976 0.357,-0.976 0.827,-1.897 0.697,-2.989 -0.029,-0.24 0.127,-0.518 0.241,-0.757 0.273,-0.576 0.586,-1.131 0.855,-1.708 0.254,-0.546 0.539,-1.092 0.689,-1.669 0.17,-0.655 0.17,-1.352 0.31,-2.017 0.08,-0.381 0.229,-0.781 0.46,-1.088 0.268,-0.356 0.61,-0.716 1.143,-0.652 0.088,0.01 0.206,0.091 0.24,0.17 0.268,0.621 0.528,1.246 0.773,1.876 0.12,0.306 0.271,0.623 0.288,0.942 0.039,0.739 0.019,1.482 -0.002,2.223 -0.024,0.833 -0.119,1.667 -0.101,2.498 0.013,0.609 -0.088,1.135 -0.592,1.502 -0.797,0.581 -1.584,1.195 -2.642,1.222 -0.113,0.003 -0.231,0.031 -0.338,0.072 -0.14,0.056 -0.27,0.136 -0.404,0.206 0.155,0.11 0.297,0.245 0.465,0.32 0.085,0.037 0.221,-0.029 0.329,-0.062 0.702,-0.21 1.401,-0.427 2.102,-0.637 0.321,-0.095 0.861,0.188 0.862,0.49 0.005,1.309 0.014,2.62 -0.048,3.927 -0.021,0.463 -0.54,0.872 -1.083,0.464 -0.06,-0.044 -0.131,-0.074 -0.199,-0.106 -0.518,-0.249 -1.034,-0.499 -1.554,-0.742 -0.258,-0.121 -0.523,-0.23 -0.786,-0.343 -0.043,0.039 -0.088,0.078 -0.132,0.117 0.076,0.159 0.11,0.385 0.236,0.463 0.275,0.172 0.588,0.341 0.902,0.379 0.772,0.095 1.318,0.612 1.96,0.947 0.021,0.011 0.018,0.068 0.038,0.156 -0.625,-0.088 -1.224,-0.172 -1.917,-0.269 1.549,0.552 2.995,1.067 4.437,1.582 -0.062,0.217 -0.093,0.325 -0.131,0.459 0.211,0.094 0.439,0.291 0.597,0.246 0.303,-0.088 0.491,0.05 0.692,0.183 0.537,0.351 1.067,0.711 1.586,1.087 0.09,0.066 0.111,0.227 0.175,0.371 -0.787,0.03 -0.932,0.189 -0.98,0.878 -0.047,0.657 0.122,1.279 0.45,1.807 0.709,1.142 1.501,2.233 2.258,3.345 0.055,0.083 0.15,0.172 0.147,0.255 -0.021,0.455 0.231,0.77 0.506,1.084 0.246,0.281 0.341,0.28 0.508,-0.056 0.094,-0.189 0.152,-0.395 0.24,-0.632 0.31,0.33 0.615,0.615 1.034,0.442 0.342,-0.142 0.643,-0.384 0.976,-0.59 0.475,1.566 0.616,3.249 0.712,4.951 0.18,-0.349 0.434,-0.711 0.411,-1.055 -0.064,-0.984 -0.162,-1.98 -0.394,-2.936 -0.352,-1.455 -0.831,-2.88 -1.248,-4.32 -0.048,-0.167 -0.046,-0.347 -0.078,-0.61 0.149,0.087 0.21,0.101 0.227,0.136 0.46,0.933 1.005,1.836 1.345,2.81 0.347,0.995 0.49,2.062 0.733,3.095 0.023,0.094 0.128,0.168 0.195,0.25 0.041,-0.023 0.081,-0.047 0.122,-0.071 -0.271,-1.28 -0.117,-2.608 -0.444,-3.872 -0.323,-1.248 -0.755,-2.47 -1.139,-3.702 0.055,-0.028 0.11,-0.057 0.164,-0.085 0.128,0.201 0.346,0.393 0.367,0.606 0.062,0.617 0.562,0.887 0.9,1.286 0.111,0.132 0.271,0.242 0.332,0.392 0.219,0.534 0.407,1.08 0.601,1.622 0.136,0.378 0.264,0.758 0.426,1.223 0.123,-0.153 0.224,-0.221 0.235,-0.302 0.123,-0.909 -0.468,-1.636 -0.64,-2.482 0.031,-0.01 0.067,-0.019 0.1,-0.033 0.68,-0.287 0.806,-0.746 0.436,-1.358 -0.296,-0.491 -0.533,-1.018 -0.774,-1.54 -0.041,-0.09 0.029,-0.232 0.049,-0.35 0.101,0.053 0.238,0.079 0.298,0.162 0.6,0.819 1.189,1.647 1.778,2.476 0.118,0.166 0.223,0.342 0.334,0.514 0.042,-0.011 0.086,-0.022 0.129,-0.033 -0.01,-0.164 0.022,-0.344 -0.036,-0.489 -0.165,-0.418 -0.329,-0.844 -0.559,-1.227 -0.47,-0.779 -0.983,-1.532 -1.492,-2.316 0.072,-0.068 0.161,-0.152 0.246,-0.234 -0.229,-0.588 -0.22,-0.678 0.089,-1.052 0.13,-0.156 0.256,-0.316 0.406,-0.501 0.819,0.582 1.645,1.194 2.497,1.767 0.855,0.575 1.736,1.109 2.605,1.661 0.038,-0.043 0.077,-0.087 0.115,-0.131 -0.219,-0.211 -0.418,-0.449 -0.659,-0.63 -1.371,-1.023 -2.753,-2.032 -4.126,-3.053 -0.097,-0.073 -0.241,-0.252 -0.215,-0.302 0.357,-0.664 0.235,-1.522 1.004,-2.04 0.733,-0.495 1.036,-1.341 1.284,-2.187 0.112,-0.379 0.103,-0.592 -0.288,-0.754 -0.208,-0.087 -0.378,-0.267 -0.565,-0.405 0.03,-0.052 0.06,-0.105 0.09,-0.158 0.321,0.102 0.642,0.204 0.964,0.307 0.274,-0.519 0.261,-0.563 -0.24,-0.784 -0.07,-0.031 -0.156,-0.045 -0.21,-0.094 -0.103,-0.091 -0.188,-0.201 -0.28,-0.305 0.139,-0.067 0.284,-0.202 0.411,-0.187 0.315,0.036 0.63,0.121 0.932,0.227 0.275,0.097 0.449,0.053 0.521,-0.241 0.151,-0.627 0.343,-1.25 0.43,-1.887 0.07,-0.509 -0.014,-1.037 0.015,-1.554 0.031,-0.539 0.114,-1.074 0.176,-1.621 0.646,0.241 1.189,0.443 1.74,0.65 0.111,-0.357 -0.094,-0.424 -0.283,-0.518 -0.632,-0.312 -1.261,-0.63 -1.888,-0.954 -0.073,-0.038 -0.157,-0.115 -0.173,-0.187 -0.08,-0.375 -0.196,-0.755 -0.194,-1.133 0.004,-0.874 0.029,-1.75 0.117,-2.619 0.109,-1.069 0.271,-2.134 0.449,-3.195 0.098,-0.587 0.413,-0.67 0.849,-0.293 0.254,0.22 0.534,0.408 0.802,0.611 0.049,-0.037 0.097,-0.075 0.147,-0.112 -0.079,-0.159 -0.131,-0.337 -0.239,-0.472 -0.239,-0.3 -0.51,-0.574 -0.76,-0.867 -0.16,-0.189 -0.131,-0.352 0.135,-0.364 0.221,-0.011 0.449,0.023 0.665,0.074 0.309,0.074 0.61,0.18 0.914,0.273 0.019,-0.045 0.037,-0.09 0.055,-0.136 -0.073,-0.048 -0.14,-0.114 -0.221,-0.145 -0.444,-0.172 -0.886,-0.35 -1.339,-0.497 -0.696,-0.226 -0.699,-0.215 -0.671,-0.933 0.008,-0.179 0.019,-0.359 0.016,-0.538 -0.046,-2.271 0.077,-4.522 0.614,-6.744 0.124,-0.51 0.042,-1.069 0.061,-1.606 0.017,-0.49 -0.002,-0.986 0.075,-1.466 0.084,-0.527 0.419,-0.816 0.968,-0.988 0.789,-0.247 1.792,0.363 1.789,1.202 -0.002,0.486 -0.076,0.977 -0.04,1.459 0.042,0.56 0.173,1.11 -0.044,1.664 -0.043,0.11 -0.02,0.249 -0.02,0.375 -0.002,0.548 -0.001,1.096 -0.001,1.642 -0.586,-0.114 -1.185,-0.554 -1.944,-0.396 0.322,0.358 0.853,0.635 1.429,0.771 0.434,0.102 0.981,0.685 0.967,1.028 -0.063,1.61 -0.134,3.22 -0.184,4.831 -0.036,1.105 -0.157,2.224 -0.034,3.313 0.137,1.205 0.461,2.396 0.789,3.569 0.438,1.571 0.41,3.107 -0.044,4.664 -0.164,0.562 -0.249,1.153 -0.312,1.738 -0.086,0.801 -0.174,1.61 -0.16,2.413 0.02,1.072 0.151,2.14 0.21,3.211 0.053,0.949 0.145,1.903 0.088,2.847 -0.062,1.032 -0.22,2.065 -0.436,3.077 -0.231,1.084 -0.577,2.144 -0.872,3.214 -0.007,0.024 -0.011,0.05 -0.014,0.076 -0.155,1.117 -0.686,2.086 -1.205,3.062 -0.245,0.46 -0.458,0.939 -0.67,1.415 -0.15,0.338 -0.274,0.688 -0.413,1.031 -0.416,1.035 -0.925,2.046 -0.812,3.218 0.011,0.113 -0.1,0.23 -0.116,0.35 -0.083,0.6 -0.335,1.252 -0.183,1.789 0.207,0.73 0.083,1.394 -0.018,2.073 -0.056,0.38 -0.298,0.736 -0.466,1.096 -0.139,0.298 -0.319,0.578 -0.437,0.883 -0.124,0.32 -0.26,0.657 -0.279,0.992 -0.056,0.968 -0.053,1.938 -0.081,2.908 -0.002,0.083 -0.033,0.193 -0.091,0.242 -0.401,0.336 -0.781,0.673 -1.308,0.852 -1.907,0.645 -3.795,1.345 -5.691,2.02 -0.107,0.039 -0.227,0.082 -0.336,0.072 -0.879,-0.089 -1.76,-0.173 -2.636,-0.291 -0.477,-0.066 -0.939,-0.101 -1.474,0.079 0.328,0.195 0.595,0.328 0.831,0.501 0.438,0.321 0.914,0.413 1.451,0.389 0.753,-0.033 1.512,-0.039 2.265,0.004 1.04,0.06 2.032,-0.203 3.039,-0.373 C -4.021,8.501 -2.363,7.807 -0.699,7.13 -0.536,7.064 -0.358,6.978 -0.245,6.85 0.303,6.224 0.846,5.594 1.349,4.934 1.441,4.814 1.382,4.518 1.301,4.346 1.212,4.159 1.002,4.033 0.871,3.86 0.625,3.538 0.391,3.207 0.17,2.867 0.132,2.809 0.176,2.687 0.202,2.601 0.25,2.438 0.359,2.28 0.36,2.119 0.366,1.297 0.388,0.472 0.324,-0.347 0.237,-1.441 0.588,-2.484 0.637,-3.566 c 0.037,-0.81 0.368,-1.61 0.599,-2.405 0.07,-0.238 0.28,-0.432 0.369,-0.667 0.283,-0.738 0.54,-1.487 0.806,-2.232 0.412,-1.16 0.823,-2.32 1.235,-3.481 0.037,-0.104 0.079,-0.207 0.119,-0.311 -0.03,0.42 -0.161,0.809 -0.233,1.208 -0.257,1.412 -0.599,2.792 -1.134,4.137 -0.515,1.295 -0.92,2.639 -1.28,3.986 C 0.932,-2.633 0.901,-1.883 0.885,-1.156 0.863,-0.223 0.831,0.728 0.98,1.641 1.135,2.602 1.456,3.546 2.085,4.339 2.14,4.408 2.171,4.497 2.203,4.58 2.504,5.356 2.567,6.175 2.59,6.994 2.598,7.294 2.457,7.6 2.462,7.902 c 0.026,1.358 0.101,2.717 0.114,4.075 0.007,0.666 -0.066,1.336 -0.139,2 -0.081,0.738 -0.24,1.469 -0.296,2.208 -0.036,0.475 -0.228,0.853 -0.551,1.147 -1.487,1.355 -3.192,2.322 -5.166,2.773 -0.46,0.105 -0.927,0.294 -1.479,0.03 0.215,-0.09 0.372,-0.163 0.534,-0.222 0.78,-0.289 1.576,-0.541 2.336,-0.872 0.57,-0.247 1.134,-0.542 1.63,-0.912 C 0.056,17.674 0.89,17.502 1.265,16.74 1.274,16.719 1.31,16.711 1.323,16.691 1.425,16.521 1.552,16.36 1.617,16.176 1.684,15.985 1.677,15.77 1.723,15.569 1.924,14.693 2.036,13.807 2.015,12.907 1.989,11.83 1.971,10.752 1.916,9.677 1.882,9.028 1.782,8.384 1.708,7.707 m -4.134,-44.365 c -0.272,-0.573 -0.581,-1.114 -0.792,-1.692 -0.235,-0.639 -0.704,-1.103 -1.245,-1.354 -0.612,-0.284 -1.341,-0.328 -2.024,-0.445 -0.248,-0.043 -0.544,-0.074 -0.76,0.022 -0.337,0.152 -0.68,0.368 -0.921,0.642 -0.379,0.432 -0.676,0.936 -1.007,1.409 -0.217,0.308 -0.432,0.617 -0.642,0.915 -0.492,-0.548 -1.052,-1.096 -1.524,-1.713 -0.667,-0.873 -0.968,-0.773 -1.877,-0.443 -0.688,0.251 -1.303,0.704 -1.949,1.07 -0.121,0.068 -0.234,0.15 -0.412,0.266 -0.051,-0.482 -0.069,-0.913 -0.147,-1.332 -0.241,-1.306 0.068,-2.593 0.089,-3.888 0.032,-2.058 0,-4.117 0.008,-6.177 0.008,-2.009 0.029,-4.017 0.052,-6.026 0.005,-0.436 0.048,-0.871 0.058,-1.307 10e-4,-0.093 -0.058,-0.195 -0.11,-0.28 -0.26,-0.428 -0.509,-0.863 -0.796,-1.274 -0.434,-0.622 -1.311,-0.756 -1.951,-0.337 -0.117,0.077 -0.269,0.117 -0.411,0.139 -0.585,0.09 -0.995,0.475 -1.281,0.92 -0.475,0.742 -0.889,1.533 -1.247,2.34 -0.154,0.346 -0.118,0.782 -0.139,1.178 -0.055,1.029 -0.05,2.062 -0.15,3.085 -0.114,1.171 -0.283,2.339 -0.487,3.498 -0.239,1.355 -0.458,2.705 -0.503,4.087 -0.026,0.763 -0.316,1.515 -0.36,2.278 -0.06,1.072 -0.019,2.15 0.013,3.225 0.023,0.796 0.094,1.59 0.157,2.383 0.059,0.73 0.233,1.466 0.177,2.184 -0.061,0.778 -0.228,1.582 -0.534,2.296 -0.374,0.872 -0.679,1.728 -0.537,2.675 0.088,0.585 -0.078,1.086 -0.324,1.589 -0.934,1.906 -1.569,3.921 -2.185,5.945 -0.178,0.588 0.101,1.087 0.18,1.621 0.249,1.665 0.505,3.329 0.829,4.98 0.142,0.724 0.412,1.432 0.699,2.116 0.75,1.79 1.532,3.565 2.326,5.335 0.144,0.319 0.414,0.581 0.624,0.871 0.669,0.925 1.332,1.856 2.007,2.777 0.264,0.362 0.526,0.732 0.837,1.053 0.691,0.712 1,1.607 1.225,2.528 0.139,0.567 0.272,1.184 0.188,1.745 -0.078,0.512 -0.363,1.059 -0.713,1.45 -0.798,0.889 -1.097,1.863 -0.954,3.039 0.187,1.543 0.317,3.093 0.454,4.641 0.132,1.499 0.241,3 0.361,4.5 0.042,0.537 0.109,1.073 0.118,1.61 0.007,0.406 0.188,0.672 0.496,0.896 0.247,0.181 0.498,0.363 0.715,0.577 0.75,0.745 1.746,0.955 2.694,1.273 0.36,0.122 0.716,0.253 1.131,0.4 -0.207,0.361 -0.356,0.656 -0.535,0.931 -1.138,1.749 -1.258,3.639 -0.712,5.587 0.178,0.634 0.48,1.257 0.84,1.809 0.248,0.377 0.658,0.689 1.059,0.916 1.273,0.716 2.625,1.216 4.105,1.299 1.212,0.069 2.342,-0.302 3.438,-0.718 1.111,-0.421 1.863,-1.3 2.418,-2.341 0.096,-0.181 0.195,-0.362 0.31,-0.532 0.572,-0.84 0.518,-1.788 0.441,-2.724 -0.098,-1.193 -0.44,-2.322 -1.091,-3.365 0.081,-0.056 0.149,-0.111 0.223,-0.152 0.078,-0.044 0.162,-0.076 0.27,-0.124 -0.173,-0.392 0.05,-0.543 0.382,-0.656 1.14,-0.389 1.963,-1.232 2.874,-1.967 0.949,-0.763 1.439,-1.735 1.77,-2.867 0.393,-1.345 0.433,-2.706 0.4,-4.083 C 3.221,11.607 3.22,11.568 3.219,11.529 3.168,9.621 3.138,7.71 3.057,5.802 3.03,5.193 2.897,4.583 2.756,3.987 2.704,3.771 2.521,3.547 2.337,3.407 1.761,2.97 1.623,2.341 1.603,1.699 1.565,0.505 1.617,-0.692 1.588,-1.887 1.555,-3.231 2.026,-4.439 2.511,-5.651 2.915,-6.66 3.334,-7.664 3.7,-8.688 3.893,-9.227 3.998,-9.8 4.125,-10.362 c 0.375,-1.666 0.738,-3.333 1.111,-4.999 0.188,-0.84 0.463,-1.669 0.56,-2.518 0.12,-1.041 0.079,-2.1 0.133,-3.15 0.062,-1.167 0.179,-2.332 0.219,-3.5 0.027,-0.763 -0.049,-1.531 -0.06,-2.297 -0.014,-0.873 0.021,-1.749 -0.015,-2.621 -0.077,-1.873 -0.162,-3.746 -0.29,-5.617 -0.073,-1.069 -0.278,-2.129 -0.349,-3.199 -0.097,-1.433 -0.145,-2.872 -0.173,-4.308 -0.025,-1.222 0.038,-2.446 0.007,-3.668 C 5.23,-47.702 5.132,-49.164 5.061,-50.626 5.036,-51.139 5.014,-51.653 4.985,-52.165 4.98,-52.252 4.958,-52.344 4.921,-52.422 4.739,-52.797 4.523,-53.159 4.371,-53.546 4.169,-54.059 3.713,-54.283 3.33,-54.61 2.694,-55.155 2,-54.825 1.337,-54.862 c -0.318,-0.017 -0.575,0.194 -0.785,0.484 -0.542,0.751 -0.567,1.636 -0.654,2.482 -0.107,1.047 -0.045,2.109 -0.103,3.162 -0.031,0.556 -0.195,1.105 -0.242,1.663 -0.093,1.12 -0.146,2.244 -0.221,3.366 -0.067,0.996 -0.082,2.001 -0.231,2.985 -0.121,0.801 -0.419,1.574 -0.61,2.366 -0.068,0.283 -0.066,0.585 -0.075,0.879 -0.02,0.691 -0.105,0.782 -0.842,0.817"
             style="fill:#be8f42;fill-opacity:1;fill-rule:nonzero;stroke:none"
             id="path3235" />
        </g>
        <g
           id="g3237"
           transform="translate(685.0814,4419.1221)">
          <path
             inkscape:connector-curvature="0"
             d="M 0,0 C 0.22,0.522 0.166,0.586 -0.473,0.564 -0.456,0.266 -0.429,-0.01 0,0 M -3.387,1.246 C -3.395,1.218 -3.404,1.189 -3.413,1.162 -2.75,0.909 -2.084,0.666 -1.426,0.399 -1.115,0.272 -0.919,0.364 -0.742,0.684 -1.64,0.875 -2.513,1.061 -3.387,1.246 m 6.791,-0.817 0,-0.602 C 2.575,-0.007 1.774,0.153 0.941,0.321 0.891,0.141 0.848,-0.015 0.786,-0.237 1.516,-0.396 2.223,-0.545 2.928,-0.707 3.052,-0.735 3.163,-0.815 3.279,-0.872 3.259,-0.928 3.238,-0.984 3.217,-1.04 c -0.623,0.117 -1.25,0.216 -1.868,0.355 -0.684,0.154 -0.701,0.18 -0.998,-0.432 -0.336,-0.692 -0.63,-1.405 -0.944,-2.108 -0.068,-0.151 -0.143,-0.299 -0.237,-0.494 -0.186,0.334 -0.298,0.587 -0.143,0.961 0.324,0.781 0.571,1.594 0.85,2.395 -0.224,0.209 -0.344,0.101 -0.459,-0.128 -0.281,-0.56 -0.579,-1.11 -0.863,-1.649 -0.41,0.736 -0.252,1.44 0.233,2.148 -0.379,0.121 -0.709,0.214 -1.029,0.33 -1.211,0.441 -2.416,0.898 -3.63,1.33 -0.666,0.237 -1.349,0.428 -2.019,0.658 -0.102,0.035 -0.231,0.161 -0.243,0.259 -0.019,0.155 0.037,0.249 0.247,0.36 0.357,0.187 0.633,0.076 0.929,0.002 1.444,-0.36 2.88,-0.75 4.325,-1.107 1.121,-0.277 2.251,-0.517 3.376,-0.779 0.884,-0.206 1.767,-0.42 2.66,-0.632"
             style="fill:#be8f42;fill-opacity:1;fill-rule:nonzero;stroke:none"
             id="path3239" />
        </g>
        <g
           id="g3241"
           transform="translate(685.9547,4423.0859)">
          <path
             inkscape:connector-curvature="0"
             d="M 0,0 C -0.893,0.201 -1.766,0.404 -2.643,0.595 -3.49,0.779 -4.34,0.951 -5.189,1.131 -5.275,1.148 -5.392,1.162 -5.434,1.221 -5.507,1.325 -5.532,1.461 -5.577,1.584 -5.475,1.601 -5.365,1.65 -5.271,1.63 -3.954,1.352 -2.642,1.063 -1.326,0.783 -0.864,0.684 -0.396,0.616 0.064,0.504 0.147,0.484 0.237,0.328 0.247,0.228 0.253,0.167 0.107,0.093 0,0"
             style="fill:#be8f42;fill-opacity:1;fill-rule:nonzero;stroke:none"
             id="path3243" />
        </g>
        <g
           id="g3245"
           transform="translate(685.0469,4424.4678)">
          <path
             inkscape:connector-curvature="0"
             d="m 0,0 c -1.386,0.126 -2.748,0.312 -3.985,0.961 0.01,0.043 0.02,0.086 0.031,0.13 0.682,-0.16 1.368,-0.309 2.047,-0.484 C -1.259,0.44 -0.516,0.561 0,0"
             style="fill:#be8f42;fill-opacity:1;fill-rule:nonzero;stroke:none"
             id="path3247" />
        </g>
        <g
           id="g3249"
           transform="translate(693.5006,4397.6309)">
          <path
             inkscape:connector-curvature="0"
             d="m 0,0 c -0.078,-0.09 -0.138,-0.215 -0.236,-0.263 -0.82,-0.399 -1.646,-0.784 -2.471,-1.172 -0.04,-0.019 -0.089,-0.016 -0.134,-0.023 -0.016,0.037 -0.033,0.073 -0.049,0.108 0.932,0.49 1.864,0.978 2.796,1.467 C -0.062,0.078 -0.032,0.039 0,0"
             style="fill:#be8f42;fill-opacity:1;fill-rule:nonzero;stroke:none"
             id="path3251" />
        </g>
        <g
           id="g3253"
           transform="translate(683.1613,4401.5962)">
          <path
             inkscape:connector-curvature="0"
             d="m 0,0 c -0.341,-0.082 -0.675,-0.151 -1.004,-0.242 -0.593,-0.163 -0.824,-1.038 -0.381,-1.461 0.062,-0.059 0.207,-0.093 0.286,-0.065 0.519,0.189 1.034,0.39 1.54,0.61 0.064,0.028 0.104,0.193 0.095,0.288 -0.022,0.224 -0.08,0.445 -0.127,0.69 C 0.73,-0.337 1.014,-0.919 0.916,-1.178 0.896,-1.23 0.842,-1.281 0.79,-1.309 c -0.472,-0.262 -0.954,-0.506 -1.418,-0.78 -0.468,-0.275 -1.279,0.2 -1.225,0.794 0.017,0.197 -0.042,0.401 -0.051,0.603 -0.004,0.076 0.004,0.18 0.051,0.23 C -1.479,-0.061 -1,0.157 -0.481,0.312 -0.196,0.396 -0.075,0.271 0,0"
             style="fill:#be8f42;fill-opacity:1;fill-rule:nonzero;stroke:none"
             id="path3255" />
        </g>
        <g
           id="g3257"
           transform="translate(683.4561,4383.8013)">
          <path
             inkscape:connector-curvature="0"
             d="M 0,0 C 0.846,0.183 1.651,0.356 2.488,0.538 2.181,0.021 0.479,-0.341 0,0"
             style="fill:#be8f42;fill-opacity:1;fill-rule:nonzero;stroke:none"
             id="path3259" />
        </g>
        <g
           id="g3261"
           transform="translate(686.1722,4383.1914)">
          <path
             inkscape:connector-curvature="0"
             d="m 0,0 c -0.841,-0.32 -1.716,-0.418 -2.607,-0.417 -0.006,0.038 -0.013,0.077 -0.019,0.116 0.869,0.145 1.739,0.291 2.609,0.435 C -0.011,0.09 -0.006,0.044 0,0"
             style="fill:#be8f42;fill-opacity:1;fill-rule:nonzero;stroke:none"
             id="path3263" />
        </g>
      </g>
    </g>
  </g>
</svg>
