<?xml version="1.0" encoding="UTF-8" standalone="no"?>
<!-- Created with Inkscape (http://www.inkscape.org/) -->

<svg
   xmlns:dc="http://purl.org/dc/elements/1.1/"
   xmlns:cc="http://creativecommons.org/ns#"
   xmlns:rdf="http://www.w3.org/1999/02/22-rdf-syntax-ns#"
   xmlns:svg="http://www.w3.org/2000/svg"
   xmlns="http://www.w3.org/2000/svg"
   xmlns:sodipodi="http://sodipodi.sourceforge.net/DTD/sodipodi-0.dtd"
   xmlns:inkscape="http://www.inkscape.org/namespaces/inkscape"
   width="18.7075"
   height="18.9135"
   id="svg4391"
   version="1.1"
   inkscape:version="0.48.4 r9939"
   sodipodi:docname="New document 12">
  <defs
     id="defs4393" />
  <sodipodi:namedview
     id="base"
     pagecolor="#ffffff"
     bordercolor="#666666"
     borderopacity="1.0"
     inkscape:pageopacity="0.0"
     inkscape:pageshadow="2"
     inkscape:zoom="0.35"
     inkscape:cx="9.35375"
     inkscape:cy="9.4567474"
     inkscape:document-units="px"
     inkscape:current-layer="layer1"
     showgrid="false"
     fit-margin-top="0"
     fit-margin-left="0"
     fit-margin-right="0"
     fit-margin-bottom="0"
     inkscape:window-width="705"
     inkscape:window-height="481"
     inkscape:window-x="926"
     inkscape:window-y="633"
     inkscape:window-maximized="0" />
  <metadata
     id="metadata4396">
    <rdf:RDF>
      <cc:Work
         rdf:about="">
        <dc:format>image/svg+xml</dc:format>
        <dc:type
           rdf:resource="http://purl.org/dc/dcmitype/StillImage" />
        <dc:title></dc:title>
      </cc:Work>
    </rdf:RDF>
  </metadata>
  <g
     inkscape:label="Layer 1"
     inkscape:groupmode="layer"
     id="layer1"
     transform="translate(-365.64625,-522.90543)">
    <path
       inkscape:connector-curvature="0"
       d="m 384.35375,541.61293 -18.7075,0 0,-18.7075 18.7075,0 0,18.7075 z"
       style="fill:#fdebda;fill-opacity:1;fill-rule:nonzero;stroke:none"
       id="path3814" />
    <g
       id="g3820"
       transform="matrix(1.25,0,0,-1.25,380.6178,523.28018)">
      <path
         inkscape:connector-curvature="0"
         d="m 0,0 c 0,-0.767 -0.002,-1.534 0.002,-2.301 0.001,-0.103 -0.024,-0.137 -0.132,-0.136 -0.419,0.005 -0.839,0.004 -1.258,-0.004 -0.143,-0.002 -0.287,-0.024 -0.427,-0.051 -0.27,-0.049 -0.461,-0.267 -0.472,-0.572 -0.019,-0.538 -0.017,-1.078 -0.027,-1.617 -0.002,-0.098 0.061,-0.084 0.12,-0.084 0.683,-0.001 1.366,0 2.049,0 l 0.157,0 C -0.08,-5.636 -0.17,-6.488 -0.26,-7.348 l -2.051,0 c 0,-0.061 0,-0.111 0,-0.162 -10e-4,-2.392 -10e-4,-4.785 -0.002,-7.178 0,-0.048 -0.003,-0.096 -0.004,-0.143 l -2.805,0 c 10e-4,0.048 0.002,0.095 0.002,0.143 0.001,2.385 0.001,4.77 0.001,7.155 l 0,0.18 -1.868,0 c -0.004,0.048 -0.009,0.082 -0.009,0.117 0,0.779 0.002,1.558 -0.002,2.337 -10e-4,0.105 0.028,0.136 0.134,0.135 0.539,-0.005 1.079,0 1.618,-0.004 0.1,-0.001 0.128,0.031 0.128,0.13 0.004,0.699 0,1.398 0.025,2.096 0.018,0.51 0.125,1.005 0.363,1.465 0.257,0.496 0.655,0.833 1.182,1.002 0.32,0.103 0.656,0.159 0.943,0.227 L 0.004,0.174 0,0 z"
         style="fill:#294c62;fill-opacity:1;fill-rule:nonzero;stroke:none"
         id="path3822" />
    </g>
  </g>
</svg>
