<?xml version="1.0" encoding="UTF-8" standalone="no"?>
<!-- Created with Inkscape (http://www.inkscape.org/) -->

<svg
   xmlns:dc="http://purl.org/dc/elements/1.1/"
   xmlns:cc="http://creativecommons.org/ns#"
   xmlns:rdf="http://www.w3.org/1999/02/22-rdf-syntax-ns#"
   xmlns:svg="http://www.w3.org/2000/svg"
   xmlns="http://www.w3.org/2000/svg"
   xmlns:sodipodi="http://sodipodi.sourceforge.net/DTD/sodipodi-0.dtd"
   xmlns:inkscape="http://www.inkscape.org/namespaces/inkscape"
   width="169.51627"
   height="172.76952"
   id="svg4423"
   version="1.1"
   inkscape:version="0.48.4 r9939"
   sodipodi:docname="New document 12">
  <defs
     id="defs4425">
    <clipPath
       clipPathUnits="userSpaceOnUse"
       id="clipPath3870">
      <path
         inkscape:connector-curvature="0"
         d="m 0,5034.388 1362,0 L 1362,0 0,0 0,5034.388 z"
         id="path3872" />
    </clipPath>
  </defs>
  <sodipodi:namedview
     id="base"
     pagecolor="#ffffff"
     bordercolor="#666666"
     borderopacity="1.0"
     inkscape:pageopacity="0.0"
     inkscape:pageshadow="2"
     inkscape:zoom="0.35"
     inkscape:cx="84.758138"
     inkscape:cy="86.384739"
     inkscape:document-units="px"
     inkscape:current-layer="layer1"
     showgrid="false"
     fit-margin-top="0"
     fit-margin-left="0"
     fit-margin-right="0"
     fit-margin-bottom="0"
     inkscape:window-width="705"
     inkscape:window-height="481"
     inkscape:window-x="926"
     inkscape:window-y="633"
     inkscape:window-maximized="0" />
  <metadata
     id="metadata4428">
    <rdf:RDF>
      <cc:Work
         rdf:about="">
        <dc:format>image/svg+xml</dc:format>
        <dc:type
           rdf:resource="http://purl.org/dc/dcmitype/StillImage" />
        <dc:title></dc:title>
      </cc:Work>
    </rdf:RDF>
  </metadata>
  <g
     inkscape:label="Layer 1"
     inkscape:groupmode="layer"
     id="layer1"
     transform="translate(-290.24186,-445.97741)">
    <g
       transform="matrix(1.25,0,0,-1.25,-983.23616,3496.7816)"
       id="g3866">
      <g
         id="g3868"
         clip-path="url(#clipPath3870)">
        <g
           id="g3874"
           transform="translate(1099.1002,2313.5171)">
          <path
             inkscape:connector-curvature="0"
             d="M 0,0 C -0.076,0.572 0.037,1.282 -0.265,1.617 -0.636,2.027 -1.428,2.415 -1.907,2.293 -3.055,2 -4.173,1.486 -5.208,0.893 -5.621,0.655 -6.125,-0.226 -5.988,-0.458 -5.673,-0.987 -4.893,-1.716 -4.473,-1.62 -3.037,-1.29 -1.675,-0.637 0,0 m 23.39,23.842 c 0.012,-0.149 0.025,-0.296 0.037,-0.444 -0.526,-0.752 -1.049,-1.507 -1.581,-2.253 -0.642,-0.901 -0.203,-1.63 0.56,-1.981 0.458,-0.211 1.317,-0.086 1.72,0.233 0.701,0.559 1.209,1.37 1.768,2.102 0.75,0.982 1.091,2.08 -0.285,2.68 -0.58,0.253 -1.47,-0.203 -2.219,-0.337 m -92.813,37.842 c 0.566,1.725 1.147,3.168 1.446,4.668 0.065,0.324 -0.83,1.019 -1.397,1.221 -0.326,0.117 -1.106,-0.3 -1.292,-0.67 -0.558,-1.123 -1.022,-2.315 -1.318,-3.529 -0.104,-0.434 0.249,-1.238 0.634,-1.465 0.488,-0.29 1.222,-0.165 1.927,-0.225 m 44.374,-66.06 c 0.295,-0.015 0.59,-0.028 0.884,-0.043 0.321,-0.095 0.643,-0.268 0.963,-0.271 1.437,-0.007 2.891,-0.072 4.304,0.119 0.453,0.061 1.2,0.957 1.114,1.287 -0.142,0.541 -0.814,1.251 -1.339,1.321 -1.355,0.181 -2.756,0.111 -4.131,0.009 -0.407,-0.03 -0.894,-0.419 -1.142,-0.783 -0.323,-0.474 -0.445,-1.086 -0.653,-1.639 M 13.682,8.865 c 0.157,0.022 0.314,0.043 0.47,0.065 -0.027,0.726 0.181,1.579 -0.131,2.149 -0.57,1.052 -1.524,0.814 -2.361,0.174 -0.733,-0.56 -1.444,-1.15 -2.166,-1.727 -0.717,-0.57 -1.081,-1.19 -0.39,-2.047 0.645,-0.803 1.366,-1.042 2.24,-0.4 0.79,0.579 1.56,1.189 2.338,1.786 m -84.593,31.423 c 0.043,0.091 0.187,0.25 0.173,0.395 -0.146,1.537 -0.217,3.094 -0.56,4.588 -0.079,0.346 -1.143,0.69 -1.702,0.622 -0.398,-0.047 -0.997,-0.789 -1.006,-1.229 -0.019,-1.252 0.14,-2.523 0.378,-3.756 0.187,-0.978 1.958,-1.373 2.717,-0.62 m 6.244,37.398 c 1.268,-1.16 2.081,-1.566 2.852,-0.185 0.472,0.847 1.12,1.593 1.622,2.425 0.656,1.092 0.204,2.414 -1,2.518 -1.902,0.164 -2.186,-1.731 -3.001,-2.85 -0.406,-0.554 -0.367,-1.431 -0.473,-1.908 m 15.802,14.696 c 0.159,0.002 0.319,0.002 0.48,0.005 0.028,0.753 0.338,1.667 0.026,2.232 -0.603,1.081 -1.589,1.156 -2.56,0.215 -0.573,-0.553 -1.248,-1.001 -1.848,-1.531 -0.736,-0.646 -1.314,-1.343 -0.465,-2.325 0.8,-0.929 1.609,-0.94 2.505,-0.122 0.591,0.541 1.239,1.019 1.862,1.526 M 33.423,33.435 c 0.624,1.819 1.274,3.309 1.574,4.867 0.076,0.384 -0.901,1.159 -1.532,1.43 -0.381,0.164 -1.33,-0.149 -1.502,-0.503 -0.601,-1.228 -1.128,-2.54 -1.356,-3.875 -0.084,-0.499 0.639,-1.272 1.174,-1.686 0.37,-0.283 1.051,-0.165 1.642,-0.233 m -72.491,66.156 c 0.322,0.049 0.885,0.017 1.34,0.222 0.985,0.448 1.899,1.055 2.877,1.525 0.976,0.468 1.634,0.933 1.058,2.208 -0.584,1.292 -1.385,1.56 -2.59,0.956 -0.769,-0.385 -1.535,-0.772 -2.304,-1.153 -1.783,-0.886 -2.009,-2.194 -0.381,-3.758 M 32.526,59.754 c -0.266,0.01 -0.532,0.018 -0.798,0.028 C 31.71,59.221 31.708,58.657 31.673,58.096 31.463,54.751 31.392,51.39 30.997,48.067 30.209,41.455 27.474,35.506 23.979,29.961 19.134,22.279 13.14,15.613 5.819,10.119 -6.032,1.223 -19.094,-1.358 -33.336,2.383 c -9.73,2.559 -17.782,7.967 -24.124,15.759 -6.118,7.517 -9.965,16.06 -10.73,25.821 -0.621,7.899 0.285,15.602 3.586,22.873 6.15,13.556 16.452,23.264 29.026,30.759 5.418,3.228 11.492,4.413 17.681,5.098 1.427,0.158 2.844,0.387 4.268,0.583 -0.027,0.145 -0.054,0.291 -0.079,0.435 -6.743,-0.139 -13.344,-0.975 -19.565,-3.856 -6.889,-3.189 -12.97,-7.54 -18.404,-12.792 -6.737,-6.509 -12.288,-13.986 -15.357,-22.823 -6.586,-18.972 -2.169,-35.879 11.47,-50.176 8.766,-9.184 19.803,-14.219 32.75,-14.416 7.271,-0.112 14.289,1.052 20.829,4.343 8.49,4.274 15.592,10.272 21.546,17.668 6.719,8.342 11.681,17.476 12.684,28.346 0.297,3.23 0.198,6.498 0.281,9.749 m 7.166,3.279 C 39.569,63.008 39.444,62.981 39.321,62.956 39.288,62.701 39.218,62.444 39.23,62.191 39.361,59.314 39.743,56.427 39.602,53.564 39.083,43.033 36.337,33.086 30.236,24.42 23.929,15.463 16.171,7.868 6.761,2.107 -10.528,-8.477 -28.371,-9.491 -46.311,-0.009 c -13.339,7.051 -22.34,18.134 -26.78,32.631 -4.211,13.754 -2.882,27.151 3.204,40.15 3.575,7.641 8.737,14.099 14.436,20.223 9.416,10.111 20.995,15.868 34.642,17.58 2.6,0.324 5.214,0.545 7.822,0.814 -0.635,0.447 -1.289,0.545 -1.939,0.53 -12.426,-0.285 -23.925,-3.636 -33.752,-11.349 -9.942,-7.803 -17.946,-17.322 -23.092,-29.021 -3.175,-7.226 -5.006,-14.777 -4.979,-22.691 0.043,-12.478 3.878,-23.725 11.305,-33.746 0.533,-0.718 1.125,-1.392 1.703,-2.107 -0.343,-0.435 -0.688,-0.872 -1.033,-1.312 0.067,-0.186 0.134,-0.372 0.201,-0.558 0.677,0.122 1.355,0.244 2.141,0.386 -0.03,-0.494 -0.062,-1.05 -0.098,-1.65 2.764,0.791 2.707,-2.6 4.406,-2.721 -0.018,-0.862 -0.031,-1.538 -0.051,-2.576 0.679,0.631 1.098,1.02 1.558,1.447 0.466,-0.981 0.652,-2.281 2.237,-2.009 0.149,0.027 0.35,-0.278 0.534,-0.418 6.801,-5.131 14.399,-8.535 22.763,-10.031 12.387,-2.217 24.163,-0.177 35.258,5.715 7.27,3.86 13.462,9.11 19.142,15.026 5.824,6.064 10.614,12.753 13.592,20.697 3.185,8.492 4.581,17.173 3.314,26.206 -0.086,0.621 -0.349,1.217 -0.531,1.826 M 25.181,11.07 C 18.793,4.355 11.283,-1.407 2.712,-5.621 c -8.671,-4.264 -17.965,-5.977 -27.61,-5.339 -15.095,0.995 -27.908,7.22 -38.344,17.965 -10.611,10.926 -16.416,24.146 -17.026,39.499 -0.521,13.143 3.058,25.16 10.238,36.067 5.527,8.397 11.827,16.254 20.287,21.864 8.624,5.721 18.208,9.245 28.588,10.233 3.267,0.311 6.585,0.509 9.85,0.305 2.117,-0.132 4.339,-0.782 6.236,-1.746 2.573,-1.306 3.767,-3.743 3.368,-6.681 -0.431,-3.165 -2.091,-5.707 -5.222,-6.482 -3.228,-0.799 -6.607,-1.054 -9.94,-1.335 -6.229,-0.526 -12.248,-1.749 -17.718,-4.916 -5.233,-3.028 -9.816,-6.897 -14.128,-11.117 -5.501,-5.383 -9.697,-11.555 -12.099,-18.931 -1.961,-6.018 -2.246,-12.132 -1.425,-18.332 1.147,-8.663 4.219,-16.526 9.897,-23.276 3.23,-3.843 7.028,-6.993 11.311,-9.605 10.098,-6.158 20.939,-7.804 32.32,-4.899 6.207,1.582 11.889,4.643 16.623,8.982 6.287,5.761 11.941,12.152 15.615,19.965 2.964,6.308 4.428,12.978 3.93,20.02 -0.184,2.592 -0.168,5.205 -0.094,7.806 0.072,2.499 1.005,4.776 2.586,6.678 2.594,3.123 8.728,3.281 11.485,-1.889 2,-3.751 2.085,-7.892 2.229,-11.989 C 44.071,45.762 41.505,34.94 36.028,24.896 33.255,19.808 29.621,15.278 25.181,11.07"
             style="fill:#be8f42;fill-opacity:1;fill-rule:nonzero;stroke:none"
             id="path3876" />
        </g>
        <g
           id="g3878"
           transform="translate(1082.7318,2433.0078)">
          <path
             inkscape:connector-curvature="0"
             d="M 0,0 C 0.386,2.178 -1.071,4.266 -3.251,4.651 -5.43,5.037 -7.515,3.58 -7.902,1.4 -8.289,-0.779 -6.829,-2.865 -4.651,-3.251 -2.473,-3.637 -0.386,-2.178 0,0 m -10.779,1.911 c 0.667,3.764 4.274,6.286 8.039,5.617 3.765,-0.666 6.285,-4.274 5.618,-8.038 -0.669,-3.765 -4.275,-6.287 -8.04,-5.618 -3.764,0.667 -6.286,4.274 -5.617,8.039"
             style="fill:#be8f42;fill-opacity:1;fill-rule:nonzero;stroke:none"
             id="path3880" />
        </g>
        <g
           id="g3882"
           transform="translate(1151.4104,2370.0203)">
          <path
             inkscape:connector-curvature="0"
             d="M 0,0 C 0.386,2.178 -1.071,4.266 -3.251,4.651 -5.43,5.038 -7.515,3.58 -7.902,1.4 -8.289,-0.779 -6.829,-2.865 -4.651,-3.251 -2.473,-3.637 -0.386,-2.178 0,0 m -10.779,1.911 c 0.667,3.764 4.274,6.286 8.037,5.618 3.767,-0.667 6.287,-4.275 5.62,-8.039 -0.669,-3.765 -4.275,-6.287 -8.04,-5.618 -3.764,0.667 -6.286,4.274 -5.617,8.039"
             style="fill:#be8f42;fill-opacity:1;fill-rule:nonzero;stroke:none"
             id="path3884" />
        </g>
      </g>
    </g>
  </g>
</svg>
