<?xml version="1.0" encoding="UTF-8" standalone="no"?>
<!-- Created with Inkscape (http://www.inkscape.org/) -->

<svg
   xmlns:dc="http://purl.org/dc/elements/1.1/"
   xmlns:cc="http://creativecommons.org/ns#"
   xmlns:rdf="http://www.w3.org/1999/02/22-rdf-syntax-ns#"
   xmlns:svg="http://www.w3.org/2000/svg"
   xmlns="http://www.w3.org/2000/svg"
   xmlns:sodipodi="http://sodipodi.sourceforge.net/DTD/sodipodi-0.dtd"
   xmlns:inkscape="http://www.inkscape.org/namespaces/inkscape"
   width="292.5"
   height="292.5"
   id="svg5162"
   version="1.1"
   inkscape:version="0.48.4 r9939"
   sodipodi:docname="leuca.svg">
  <defs
     id="defs5164">
    <clipPath
       clipPathUnits="userSpaceOnUse"
       id="clipPath3314">
      <path
         inkscape:connector-curvature="0"
         d="m 0,4804.439 1024,0 L 1024,0 0,0 0,4804.439 z"
         id="path3316" />
    </clipPath>
  </defs>
  <sodipodi:namedview
     id="base"
     pagecolor="#ffffff"
     bordercolor="#666666"
     borderopacity="1.0"
     inkscape:pageopacity="0.0"
     inkscape:pageshadow="2"
     inkscape:zoom="1.4"
     inkscape:cx="14.821059"
     inkscape:cy="-193.36366"
     inkscape:document-units="px"
     inkscape:current-layer="g3312"
     showgrid="false"
     fit-margin-top="0"
     fit-margin-left="0"
     fit-margin-right="0"
     fit-margin-bottom="0"
     inkscape:window-width="2560"
     inkscape:window-height="1605"
     inkscape:window-x="0"
     inkscape:window-y="73"
     inkscape:window-maximized="1" />
  <metadata
     id="metadata5167">
    <rdf:RDF>
      <cc:Work
         rdf:about="">
        <dc:format>image/svg+xml</dc:format>
        <dc:type
           rdf:resource="http://purl.org/dc/dcmitype/StillImage" />
        <dc:title />
      </cc:Work>
    </rdf:RDF>
  </metadata>
  <g
     inkscape:label="Layer 1"
     inkscape:groupmode="layer"
     id="layer1"
     transform="translate(-228.75038,-46.498503)">
    <g
       clip-path="url(#clipPath3314)"
       id="g3312"
       transform="matrix(1.25,0,0,-1.25,-265,5919.4284)">
      <g
         id="g5447"
         transform="translate(3.04e-4,53.585068)">
        <g
           id="g3338"
           transform="translate(521.2833,4504.9248)">
          <path
             inkscape:connector-curvature="0"
             d="m 0,0 -2.054,-5.045 c -5.141,-10.833 -10.474,-17.147 -22.513,-17.367 l -79.981,0.457 0,104.852 c 0,0.346 1.074,1.321 5.975,1.691 l 7.981,0.468 0.678,1.193 -36.24,0 0.675,-1.185 3.425,-0.361 c 6.325,-0.429 7.28,-0.66 7.28,-1.232 l 0,-104.308 c 0,-0.103 -0.167,-1.022 -5.989,-1.462 l -4.846,-0.473 -0.674,-1.187 120.3,0 L 1.361,0 0,0 z"
             style="fill:#be8f42;fill-opacity:1;fill-rule:nonzero;stroke:none"
             id="path3340" />
        </g>
        <g
           id="g3342"
           transform="translate(427.6856,4500.978)">
          <path
             inkscape:connector-curvature="0"
             d="m 0,0 -11.253,-0.465 -0.68,-1.196 71.338,0 -0.894,20.409 -1.244,0.183 -0.874,-1.793 C 51.308,6.378 45.993,0.106 33.886,-0.114 l -18.865,0.451 0,35.451 8.153,-0.221 c 10.691,-0.228 11.055,-0.951 11.694,-8.701 l 0.15,-1.452 1.211,-0.212 0.4,21.029 -1.199,0.21 -0.457,-3.128 -0.274,-0.857 C 33.157,37.623 33.157,37.623 27.71,37.541 26.675,37.525 25.501,37.507 24.092,37.458 l -9.071,0 0,31.556 20.149,0 c 8.718,0 13.587,-4.093 18.618,-15.665 l 0.971,-1.709 1.079,-0.238 -3.228,19.045 -57.366,0 0.682,-1.197 2.763,-0.349 C 5.014,68.473 5.97,68.242 5.97,67.668 L 5.97,1.46 C 5.97,1.357 5.802,0.438 0,0"
             style="fill:#be8f42;fill-opacity:1;fill-rule:nonzero;stroke:none"
             id="path3344" />
        </g>
        <g
           id="g3346"
           transform="translate(526.256,4537.9419)">
          <path
             inkscape:connector-curvature="0"
             d="M 0,0 0.675,-1.188 3.321,-1.433 C 11.63,-1.912 15.416,-3.12 15.416,-4.04 l 0.13,-40.205 c 0,-17.251 -7.437,-25.285 -23.404,-25.285 -18.049,0 -25.748,6.603 -25.748,22.078 l 0,44.101 c 0,0.344 1.074,1.32 5.98,1.69 l 6.675,0.469 0.677,1.192 -35.585,0 0.677,-1.192 5.244,-0.354 c 6.745,-0.458 7.281,-0.913 7.281,-1.461 l 0,-44.903 c 0,-18.005 9.356,-25.688 31.284,-25.688 18.761,0 28.679,10.032 28.679,29.011 l 0,40.205 c 0,1.854 3.385,2.503 8.849,2.95 L 28.921,-1.188 29.596,0 0,0 z"
             style="fill:#be8f42;fill-opacity:1;fill-rule:nonzero;stroke:none"
             id="path3348" />
        </g>
        <g
           id="g3350"
           transform="translate(573.0359,4519.5454)">
          <path
             inkscape:connector-curvature="0"
             d="m 0,0 -2.62,-4.824 c -6.469,-11.542 -14.189,-16.25 -26.645,-16.25 -9.166,0 -16.919,3.485 -22.417,10.078 -5.456,6.542 -8.34,15.683 -8.34,26.434 0,10.407 2.894,19.308 8.367,25.744 5.609,6.594 13.552,10.08 22.969,10.08 7.571,0 14.237,-2.555 17.258,-4.942 l 8.51,-16.021 1.178,0 -1.557,20.254 -5.914,-2.745 c -5.791,3.319 -12.382,5.001 -19.591,5.001 -11.348,0 -21.592,-3.852 -28.846,-10.849 -7.201,-6.945 -11.168,-16.689 -11.168,-27.439 0,-21.869 16.312,-37.142 39.667,-37.142 8.15,0 16.706,2.548 21.586,5.083 l 1.994,1.208 0.721,0.616 L 0.988,0.541 0,0 z"
             style="fill:#be8f42;fill-opacity:1;fill-rule:nonzero;stroke:none"
             id="path3352" />
        </g>
        <g
           id="g3354"
           transform="translate(601.8227,4482.2842)">
          <path
             inkscape:connector-curvature="0"
             d="m 0,0 -4.342,-0.12 -0.682,-1.198 32.201,0 -0.679,1.193 -3.814,0.24 c -5.83,0.334 -6.688,1.758 -9.378,7.732 l -27.644,67.664 -1.427,0 -0.082,-0.139 c -1.342,-2.243 -2.482,-3.6 -4.664,-4.348 l -0.264,-0.09 2.895,-6.93 -18.063,-43.781 C -43.922,1.74 -44.535,0.988 -52.372,0.113 l -2.238,-0.247 -0.674,-1.184 28.034,0 -0.676,1.189 -2.901,0.243 c -5.155,0.365 -7.949,0.794 -8.923,2.128 -1.099,1.505 0.039,4.46 2.144,9.552 5.727,13.749 7.159,17.296 7.468,18.273 l 25.641,0 L 6.112,3.549 C 6.403,2.838 6.37,2.256 6.01,1.769 5.295,0.802 3.268,0.206 0,0 m -5.094,31.615 -24.435,0 c 0.54,1.091 1.939,4.489 6.295,15.061 2.685,6.516 5.358,13.033 6.118,14.887 L -5.094,31.615 z"
             style="fill:#be8f42;fill-opacity:1;fill-rule:nonzero;stroke:none"
             id="path3356" />
        </g>
      </g>
    </g>
  </g>
</svg>
