<?xml version="1.0" encoding="UTF-8" standalone="no"?>
<!-- Created with Inkscape (http://www.inkscape.org/) -->

<svg
   xmlns:dc="http://purl.org/dc/elements/1.1/"
   xmlns:cc="http://creativecommons.org/ns#"
   xmlns:rdf="http://www.w3.org/1999/02/22-rdf-syntax-ns#"
   xmlns:svg="http://www.w3.org/2000/svg"
   xmlns="http://www.w3.org/2000/svg"
   xmlns:sodipodi="http://sodipodi.sourceforge.net/DTD/sodipodi-0.dtd"
   xmlns:inkscape="http://www.inkscape.org/namespaces/inkscape"
   width="88.723747"
   height="21.25075"
   id="svg4655"
   version="1.1"
   inkscape:version="0.48.4 r9939"
   sodipodi:docname="New document 21">
  <defs
     id="defs4657">
    <clipPath
       clipPathUnits="userSpaceOnUse"
       id="clipPath3108">
      <path
         inkscape:connector-curvature="0"
         d="m 0,4804.439 1024,0 L 1024,0 0,0 0,4804.439 z"
         id="path3110" />
    </clipPath>
    <clipPath
       clipPathUnits="userSpaceOnUse"
       id="clipPath3116">
      <path
         inkscape:connector-curvature="0"
         d="m 912.475,75.1319 14.201,0 0,-14.2012 -14.201,0 0,14.2012 z"
         id="path3118" />
    </clipPath>
    <clipPath
       clipPathUnits="userSpaceOnUse"
       id="clipPath3204">
      <path
         inkscape:connector-curvature="0"
         d="m 950.708,75.6829 15,0 0,-15 -15,0 0,15 z"
         id="path3206" />
    </clipPath>
  </defs>
  <sodipodi:namedview
     id="base"
     pagecolor="#ffffff"
     bordercolor="#666666"
     borderopacity="1.0"
     inkscape:pageopacity="0.0"
     inkscape:pageshadow="2"
     inkscape:zoom="1.4"
     inkscape:cx="83.093605"
     inkscape:cy="10.625377"
     inkscape:document-units="px"
     inkscape:current-layer="g3106"
     showgrid="false"
     fit-margin-top="0"
     fit-margin-left="0"
     fit-margin-right="0"
     fit-margin-bottom="0"
     inkscape:window-width="705"
     inkscape:window-height="481"
     inkscape:window-x="926"
     inkscape:window-y="633"
     inkscape:window-maximized="0" />
  <metadata
     id="metadata4660">
    <rdf:RDF>
      <cc:Work
         rdf:about="">
        <dc:format>image/svg+xml</dc:format>
        <dc:type
           rdf:resource="http://purl.org/dc/dcmitype/StillImage" />
        <dc:title></dc:title>
      </cc:Work>
    </rdf:RDF>
  </metadata>
  <g
     inkscape:label="Layer 1"
     inkscape:groupmode="layer"
     id="layer1"
     transform="translate(-281.80487,-521.73681)">
    <g
       transform="matrix(1.25,0,0,-1.25,-738.93988,617.40106)"
       id="g3104">
      <g
         id="g3106"
         clip-path="url(#clipPath3108)">
        <g
           id="g3136"
           transform="translate(838.1046,75.4798)">
          <path
             inkscape:connector-curvature="0"
             d="M 0,0 0,-5.054 C 0,-5.453 0.022,-5.747 0.067,-5.937 0.111,-6.127 0.193,-6.283 0.314,-6.407 0.422,-6.52 0.545,-6.601 0.683,-6.651 0.82,-6.702 0.999,-6.732 1.22,-6.744 l 0,-0.134 -2.678,0 0,0.134 c 0.221,0.012 0.4,0.042 0.537,0.093 0.138,0.05 0.261,0.131 0.369,0.244 0.12,0.124 0.202,0.281 0.247,0.473 0.044,0.192 0.067,0.485 0.067,0.88 l 0,4.287 c 0,0.391 -0.023,0.683 -0.067,0.874 -0.045,0.192 -0.127,0.35 -0.247,0.474 -0.104,0.112 -0.225,0.193 -0.363,0.244 -0.137,0.05 -0.318,0.081 -0.543,0.093 l 0,0.133 2.236,0 4.717,-6.018 0,4.194 c 0,0.399 -0.022,0.694 -0.066,0.883 C 5.384,0.3 5.302,0.457 5.182,0.581 5.073,0.693 4.95,0.774 4.813,0.825 4.675,0.875 4.496,0.906 4.276,0.918 l 0,0.133 2.677,0 0,-0.133 C 6.566,0.918 6.264,0.805 6.047,0.581 5.927,0.457 5.845,0.299 5.8,0.107 5.756,-0.084 5.734,-0.376 5.734,-0.767 l 0,-6.111 -0.262,0 L 0,0 z"
             style="fill:#fdebda;fill-opacity:1;fill-rule:nonzero;stroke:none"
             id="path3138" />
        </g>
        <g
           id="g3140"
           transform="translate(846.7599,71.1199)">
          <path
             inkscape:connector-curvature="0"
             d="m 0,0 c 0,-0.673 0.151,-1.243 0.453,-1.711 0.341,-0.523 0.757,-0.784 1.249,-0.784 0.209,0 0.412,0.058 0.61,0.174 0.198,0.116 0.368,0.279 0.511,0.488 0.151,0.216 0.273,0.488 0.366,0.815 0.093,0.327 0.139,0.643 0.139,0.948 0,0.318 -0.049,0.638 -0.147,0.961 C 3.082,1.213 2.949,1.491 2.782,1.723 2.465,2.16 2.076,2.379 1.615,2.379 1.177,2.379 0.8,2.149 0.482,1.689 0.161,1.228 0,0.665 0,0 m -1.057,-0.067 c 0,0.628 0.232,1.187 0.697,1.679 0.565,0.596 1.241,0.895 2.027,0.895 0.786,0 1.46,-0.299 2.022,-0.895 0.464,-0.495 0.697,-1.057 0.697,-1.685 0,-0.619 -0.221,-1.171 -0.662,-1.655 -0.542,-0.596 -1.228,-0.894 -2.057,-0.894 -0.828,0 -1.516,0.298 -2.062,0.894 -0.213,0.232 -0.377,0.492 -0.491,0.778 -0.114,0.287 -0.171,0.581 -0.171,0.883"
             style="fill:#fdebda;fill-opacity:1;fill-rule:nonzero;stroke:none"
             id="path3142" />
        </g>
        <g
           id="g3144"
           transform="translate(854.2824,72.8424)">
          <path
             inkscape:connector-curvature="0"
             d="m 0,0 4.124,0 0,1.865 C 4.124,2.264 4.102,2.558 4.058,2.748 4.013,2.938 3.931,3.094 3.811,3.218 3.702,3.33 3.579,3.412 3.442,3.462 3.304,3.513 3.123,3.543 2.899,3.555 l 0,0.134 3.712,0 0,-0.134 C 6.39,3.543 6.211,3.513 6.073,3.462 5.936,3.412 5.813,3.33 5.704,3.218 5.584,3.094 5.502,2.937 5.458,2.745 5.413,2.553 5.391,2.26 5.391,1.865 l 0,-4.282 c 0,-0.394 0.022,-0.687 0.067,-0.877 0.044,-0.189 0.126,-0.348 0.246,-0.476 0.109,-0.108 0.232,-0.189 0.369,-0.241 0.138,-0.052 0.317,-0.084 0.538,-0.096 l 0,-0.133 -3.712,0 0,0.133 c 0.224,0.012 0.405,0.044 0.543,0.096 0.137,0.052 0.26,0.133 0.369,0.241 0.12,0.124 0.202,0.281 0.247,0.47 0.044,0.19 0.066,0.485 0.066,0.883 l 0,2.144 -4.124,0 0,-2.144 C 0,-2.811 0.022,-3.105 0.067,-3.297 0.111,-3.488 0.194,-3.646 0.314,-3.77 0.418,-3.878 0.539,-3.959 0.677,-4.011 0.814,-4.063 0.995,-4.095 1.22,-4.107 l 0,-0.133 -3.712,0 0,0.133 c 0.225,0.012 0.406,0.044 0.543,0.096 0.138,0.052 0.259,0.133 0.363,0.241 0.124,0.124 0.207,0.281 0.25,0.47 0.042,0.19 0.064,0.485 0.064,0.883 l 0,4.282 c 0,0.399 -0.022,0.693 -0.064,0.883 -0.043,0.19 -0.126,0.346 -0.25,0.47 -0.104,0.112 -0.226,0.194 -0.366,0.244 -0.139,0.051 -0.319,0.081 -0.54,0.093 l 0,0.134 3.712,0 0,-0.134 C 0.999,3.543 0.82,3.513 0.683,3.462 0.545,3.412 0.422,3.33 0.314,3.218 0.194,3.094 0.111,2.937 0.067,2.745 0.022,2.553 0,2.26 0,1.865 L 0,0 z"
             style="fill:#fdebda;fill-opacity:1;fill-rule:nonzero;stroke:none"
             id="path3146" />
        </g>
        <g
           id="g3148"
           transform="translate(862.5952,71.1199)">
          <path
             inkscape:connector-curvature="0"
             d="m 0,0 c 0,-0.673 0.151,-1.243 0.453,-1.711 0.341,-0.523 0.757,-0.784 1.249,-0.784 0.209,0 0.412,0.058 0.61,0.174 0.198,0.116 0.368,0.279 0.511,0.488 0.151,0.216 0.273,0.488 0.366,0.815 0.093,0.327 0.139,0.643 0.139,0.948 0,0.318 -0.049,0.638 -0.147,0.961 C 3.082,1.213 2.949,1.491 2.782,1.723 2.465,2.16 2.076,2.379 1.615,2.379 1.177,2.379 0.8,2.149 0.482,1.689 0.161,1.228 0,0.665 0,0 m -1.057,-0.067 c 0,0.628 0.232,1.187 0.697,1.679 0.565,0.596 1.241,0.895 2.027,0.895 0.786,0 1.46,-0.299 2.022,-0.895 0.464,-0.495 0.697,-1.057 0.697,-1.685 0,-0.619 -0.221,-1.171 -0.662,-1.655 -0.542,-0.596 -1.228,-0.894 -2.057,-0.894 -0.829,0 -1.516,0.298 -2.062,0.894 -0.213,0.232 -0.377,0.492 -0.491,0.778 -0.114,0.287 -0.171,0.581 -0.171,0.883"
             style="fill:#fdebda;fill-opacity:1;fill-rule:nonzero;stroke:none"
             id="path3150" />
        </g>
        <g
           id="g3152"
           transform="translate(819.0068,63.7825)">
          <path
             inkscape:connector-curvature="0"
             d="m 0,0 3.991,0 0,1.804 C 3.991,2.191 3.969,2.475 3.926,2.659 3.883,2.843 3.804,2.994 3.688,3.114 3.583,3.223 3.464,3.302 3.331,3.35 3.197,3.399 3.022,3.429 2.805,3.44 l 0,0.13 3.592,0 0,-0.13 C 6.183,3.429 6.01,3.399 5.877,3.35 5.744,3.302 5.625,3.223 5.52,3.114 5.404,2.994 5.324,2.842 5.281,2.656 5.238,2.471 5.216,2.187 5.216,1.804 l 0,-4.142 c 0,-0.382 0.022,-0.666 0.065,-0.849 0.043,-0.184 0.123,-0.337 0.239,-0.461 0.105,-0.105 0.224,-0.183 0.357,-0.233 0.133,-0.051 0.306,-0.082 0.52,-0.093 l 0,-0.129 -3.592,0 0,0.129 c 0.217,0.011 0.392,0.042 0.526,0.093 0.133,0.05 0.252,0.128 0.357,0.233 0.116,0.12 0.195,0.272 0.238,0.455 0.043,0.184 0.065,0.469 0.065,0.855 l 0,2.074 -3.991,0 0,-2.074 C 0,-2.72 0.022,-3.004 0.065,-3.19 0.108,-3.375 0.187,-3.528 0.304,-3.648 0.405,-3.753 0.522,-3.831 0.655,-3.881 0.788,-3.932 0.963,-3.963 1.18,-3.974 l 0,-0.129 -3.591,0 0,0.129 c 0.217,0.011 0.392,0.042 0.525,0.093 0.133,0.05 0.25,0.128 0.352,0.233 0.119,0.12 0.2,0.272 0.241,0.455 0.041,0.184 0.062,0.469 0.062,0.855 l 0,4.142 c 0,0.387 -0.021,0.671 -0.062,0.855 -0.041,0.184 -0.122,0.335 -0.241,0.455 -0.102,0.109 -0.22,0.188 -0.355,0.236 -0.134,0.049 -0.309,0.079 -0.522,0.09 l 0,0.13 3.591,0 0,-0.13 C 0.967,3.429 0.794,3.399 0.661,3.35 0.528,3.302 0.409,3.223 0.304,3.114 0.187,2.994 0.108,2.842 0.065,2.656 0.022,2.471 0,2.187 0,1.804 L 0,0 z"
             style="fill:#fdebda;fill-opacity:1;fill-rule:nonzero;stroke:none"
             id="path3154" />
        </g>
        <g
           id="g3156"
           transform="translate(827.8824,62.5482)">
          <path
             inkscape:connector-curvature="0"
             d="m 0,0 c 0,-0.843 0.229,-1.554 0.688,-2.132 0.207,-0.259 0.425,-0.447 0.656,-0.565 0.231,-0.118 0.497,-0.176 0.799,-0.176 0.306,0 0.574,0.058 0.805,0.174 0.23,0.116 0.45,0.305 0.659,0.567 0.459,0.581 0.689,1.298 0.689,2.149 0,0.468 -0.063,0.911 -0.19,1.328 C 3.98,1.762 3.802,2.116 3.573,2.406 3.387,2.645 3.18,2.819 2.952,2.927 2.724,3.036 2.454,3.091 2.143,3.091 1.836,3.091 1.569,3.037 1.344,2.93 1.119,2.822 0.911,2.648 0.719,2.406 0.49,2.119 0.312,1.766 0.187,1.347 0.062,0.929 0,0.479 0,0 m -1.054,0.065 c 0,0.489 0.104,0.941 0.313,1.358 0.21,0.418 0.514,0.781 0.915,1.092 0.299,0.23 0.622,0.407 0.968,0.53 0.345,0.124 0.694,0.186 1.045,0.186 0.447,0 0.88,-0.099 1.298,-0.295 C 3.904,2.74 4.27,2.463 4.583,2.106 5.094,1.524 5.35,0.863 5.35,0.122 5.35,-0.25 5.283,-0.609 5.15,-0.955 5.016,-1.301 4.822,-1.616 4.566,-1.901 4.252,-2.256 3.881,-2.53 3.453,-2.725 3.024,-2.92 2.576,-3.017 2.109,-3.017 c -0.462,0 -0.903,0.094 -1.325,0.283 -0.421,0.189 -0.784,0.457 -1.089,0.802 -0.241,0.271 -0.426,0.578 -0.555,0.922 -0.13,0.345 -0.194,0.703 -0.194,1.075"
             style="fill:#fdebda;fill-opacity:1;fill-rule:nonzero;stroke:none"
             id="path3158" />
        </g>
        <g
           id="g3160"
           transform="translate(834.7517,59.6968)">
          <path
             inkscape:connector-curvature="0"
             d="m 0,0 0.013,1.799 0.1,-0.004 C 0.235,1.337 0.38,0.976 0.549,0.713 0.865,0.226 1.263,-0.018 1.743,-0.018 c 0.334,0 0.609,0.112 0.827,0.336 0.218,0.224 0.327,0.507 0.327,0.85 0,0.148 -0.024,0.299 -0.072,0.453 C 2.777,1.775 2.712,1.907 2.631,2.017 2.547,2.13 2.429,2.239 2.276,2.344 2.124,2.448 1.891,2.58 1.577,2.74 1.301,2.88 1.09,2.997 0.943,3.093 0.797,3.189 0.678,3.286 0.588,3.385 0.338,3.658 0.213,3.991 0.213,4.383 0.213,4.624 0.262,4.856 0.359,5.08 0.457,5.303 0.593,5.495 0.767,5.655 1.075,5.94 1.439,6.082 1.86,6.082 1.997,6.082 2.123,6.068 2.239,6.04 2.355,6.013 2.511,5.958 2.705,5.877 2.851,5.819 2.949,5.782 3.002,5.766 3.054,5.75 3.101,5.742 3.141,5.742 c 0.102,0 0.17,0.074 0.205,0.222 l 0.1,0 0.031,-1.729 -0.101,0 C 3.298,4.51 3.231,4.722 3.174,4.869 3.117,5.015 3.05,5.151 2.972,5.276 2.83,5.502 2.673,5.67 2.502,5.779 2.331,5.888 2.134,5.942 1.911,5.942 1.586,5.942 1.329,5.832 1.141,5.611 1.063,5.521 1.001,5.415 0.956,5.293 0.911,5.17 0.889,5.048 0.889,4.926 0.889,4.441 1.2,4.05 1.824,3.753 L 2.437,3.457 C 2.91,3.233 3.251,2.986 3.46,2.715 3.697,2.413 3.816,2.061 3.816,1.66 3.816,1.393 3.763,1.138 3.655,0.895 3.504,0.556 3.278,0.294 2.976,0.11 2.673,-0.074 2.318,-0.166 1.908,-0.166 1.534,-0.166 1.173,-0.092 0.828,0.057 0.648,0.135 0.54,0.18 0.505,0.192 0.47,0.203 0.431,0.209 0.388,0.209 0.248,0.209 0.153,0.139 0.1,0 L 0,0 z"
             style="fill:#fdebda;fill-opacity:1;fill-rule:nonzero;stroke:none"
             id="path3162" />
        </g>
        <g
           id="g3164"
           transform="translate(841.6992,62.7508)">
          <path
             inkscape:connector-curvature="0"
             d="M 0,0 0.427,0 C 0.715,0 0.936,0.021 1.091,0.063 1.247,0.105 1.385,0.183 1.508,0.296 1.792,0.555 1.935,0.899 1.935,1.329 1.935,1.567 1.893,1.786 1.81,1.984 1.727,2.183 1.609,2.345 1.455,2.47 1.278,2.618 1.067,2.705 0.823,2.732 0.757,2.737 0.604,2.74 0.366,2.74 L 0,2.74 0,0 z M 0,-0.14 0,-1.704 C 0,-2 0.017,-2.22 0.05,-2.364 0.084,-2.507 0.145,-2.626 0.235,-2.719 0.314,-2.8 0.404,-2.86 0.508,-2.9 0.61,-2.939 0.746,-2.963 0.915,-2.971 l 0,-0.101 -2.784,0 0,0.101 c 0.168,0.008 0.304,0.032 0.407,0.071 0.103,0.04 0.194,0.1 0.273,0.181 0.093,0.093 0.155,0.211 0.187,0.353 0.032,0.143 0.048,0.363 0.048,0.662 l 0,3.211 c 0,0.25 -0.011,0.442 -0.033,0.577 -0.022,0.136 -0.059,0.245 -0.111,0.33 -0.075,0.116 -0.171,0.202 -0.288,0.259 -0.116,0.056 -0.267,0.091 -0.453,0.102 l -0.03,0 0,0.1 2.627,0 C 1.217,2.875 1.555,2.852 1.773,2.806 1.991,2.759 2.19,2.666 2.37,2.527 2.782,2.213 2.989,1.795 2.989,1.272 2.989,0.741 2.779,0.351 2.361,0.104 2.144,-0.023 1.879,-0.1 1.568,-0.127 1.47,-0.135 1.231,-0.14 0.854,-0.14 L 0,-0.14 z"
             style="fill:#fdebda;fill-opacity:1;fill-rule:nonzero;stroke:none"
             id="path3166" />
        </g>
        <g
           id="g3168"
           transform="translate(848.4505,65.6263)">
          <path
             inkscape:connector-curvature="0"
             d="M 0,0 0,-0.1 C -0.166,-0.109 -0.3,-0.132 -0.403,-0.17 -0.506,-0.208 -0.598,-0.269 -0.68,-0.353 -0.793,-0.469 -0.863,-0.63 -0.889,-0.837 -0.906,-0.991 -0.915,-1.168 -0.915,-1.368 l 0,-3.211 c 0,-0.241 0.012,-0.431 0.035,-0.571 0.023,-0.139 0.061,-0.251 0.113,-0.335 0.076,-0.116 0.173,-0.203 0.292,-0.259 0.119,-0.057 0.278,-0.091 0.475,-0.103 l 0,-0.1 -2.784,0 0,0.1 c 0.168,0.009 0.304,0.033 0.407,0.072 0.104,0.039 0.194,0.1 0.273,0.181 0.093,0.093 0.155,0.21 0.187,0.353 0.032,0.142 0.048,0.363 0.048,0.662 l 0,3.211 c 0,0.299 -0.016,0.52 -0.048,0.662 -0.032,0.142 -0.094,0.26 -0.187,0.353 -0.079,0.084 -0.17,0.145 -0.275,0.183 -0.104,0.038 -0.24,0.061 -0.405,0.07 l 0,0.1 L 0,0 z"
             style="fill:#fdebda;fill-opacity:1;fill-rule:nonzero;stroke:none"
             id="path3170" />
        </g>
        <g
           id="g3172"
           transform="translate(851.9081,65.491)">
          <path
             inkscape:connector-curvature="0"
             d="m 0,0 c -0.183,0 -0.379,-0.006 -0.588,-0.017 -0.448,-0.024 -0.781,-0.08 -1,-0.17 -0.219,-0.09 -0.4,-0.246 -0.542,-0.466 -0.131,-0.204 -0.231,-0.479 -0.301,-0.828 l -0.1,0.009 0.078,1.607 5.895,0 0.078,-1.607 -0.1,-0.009 C 3.341,-1.078 3.219,-0.772 3.052,-0.564 2.885,-0.356 2.642,-0.208 2.322,-0.117 2.052,-0.039 1.595,0 0.95,0 l 0,-4.444 C 0.95,-4.74 0.966,-4.96 1,-5.104 1.033,-5.247 1.095,-5.366 1.185,-5.459 1.266,-5.543 1.359,-5.604 1.462,-5.642 1.565,-5.68 1.699,-5.703 1.865,-5.712 l 0,-0.1 -2.784,0 0,0.1 c 0.168,0.009 0.304,0.032 0.407,0.07 0.103,0.038 0.195,0.099 0.277,0.183 0.09,0.093 0.151,0.211 0.185,0.353 C -0.017,-4.964 0,-4.743 0,-4.444 L 0,0 z"
             style="fill:#fdebda;fill-opacity:1;fill-rule:nonzero;stroke:none"
             id="path3174" />
        </g>
        <g
           id="g3176"
           transform="translate(859.6876,62.2496)">
          <path
             inkscape:connector-curvature="0"
             d="M 0,0 -0.915,2.257 -1.777,0 0,0 z m 2.736,-2.57 -2.862,0 0,0.1 c 0.258,0.023 0.438,0.066 0.54,0.131 0.18,0.113 0.27,0.269 0.27,0.47 0,0.119 -0.041,0.279 -0.122,0.479 l -0.074,0.183 -0.418,1.028 -1.917,0 -0.227,-0.601 -0.109,-0.27 c -0.13,-0.319 -0.195,-0.571 -0.195,-0.753 0,-0.108 0.023,-0.208 0.071,-0.301 0.048,-0.093 0.113,-0.169 0.194,-0.227 0.113,-0.078 0.258,-0.125 0.436,-0.139 l 0,-0.1 -1.952,0 0,0.1 c 0.154,0.009 0.289,0.046 0.405,0.113 0.116,0.067 0.229,0.174 0.34,0.323 0.093,0.119 0.183,0.272 0.272,0.459 0.089,0.188 0.206,0.469 0.351,0.843 l 1.595,4.109 0.248,0 1.895,-4.579 c 0.142,-0.346 0.256,-0.593 0.34,-0.741 0.084,-0.148 0.176,-0.26 0.274,-0.336 0.07,-0.052 0.15,-0.092 0.24,-0.119 0.09,-0.028 0.225,-0.052 0.405,-0.072 l 0,-0.1 z"
             style="fill:#fdebda;fill-opacity:1;fill-rule:nonzero;stroke:none"
             id="path3178" />
        </g>
        <g
           id="g3180"
           transform="translate(863.2239,59.6792)">
          <path
             inkscape:connector-curvature="0"
             d="m 0,0 0,0.104 c 0.293,0 0.52,0.083 0.68,0.249 0.09,0.093 0.152,0.211 0.185,0.355 0.033,0.144 0.05,0.364 0.05,0.66 l 0,3.211 C 0.915,4.887 0.897,5.114 0.861,5.261 0.824,5.407 0.757,5.527 0.658,5.62 0.577,5.696 0.486,5.751 0.386,5.786 0.286,5.821 0.157,5.841 0,5.847 l 0,0.1 2.784,0 0,-0.1 C 2.624,5.838 2.494,5.816 2.392,5.781 2.29,5.747 2.2,5.691 2.122,5.616 2.023,5.52 1.956,5.399 1.922,5.254 1.887,5.109 1.869,4.884 1.869,4.579 l 0,-2.514 C 1.869,1.679 1.879,1.391 1.9,1.202 1.92,1.014 1.959,0.86 2.017,0.741 2.119,0.531 2.27,0.378 2.471,0.281 2.671,0.184 2.937,0.135 3.268,0.135 c 0.345,0 0.637,0.046 0.873,0.137 0.237,0.092 0.431,0.233 0.582,0.425 0.102,0.131 0.185,0.279 0.25,0.445 0.066,0.165 0.126,0.383 0.181,0.653 L 5.259,1.786 5.202,0 0,0 z"
             style="fill:#fdebda;fill-opacity:1;fill-rule:nonzero;stroke:none"
             id="path3182" />
        </g>
        <g
           id="g3184"
           transform="translate(872.1274,65.6263)">
          <path
             inkscape:connector-curvature="0"
             d="M 0,0 0,-0.1 C -0.166,-0.109 -0.3,-0.132 -0.403,-0.17 -0.506,-0.208 -0.598,-0.269 -0.68,-0.353 -0.793,-0.469 -0.863,-0.63 -0.889,-0.837 -0.906,-0.991 -0.915,-1.168 -0.915,-1.368 l 0,-3.211 c 0,-0.241 0.012,-0.431 0.035,-0.571 0.023,-0.139 0.061,-0.251 0.113,-0.335 0.076,-0.116 0.173,-0.203 0.292,-0.259 0.119,-0.057 0.278,-0.091 0.475,-0.103 l 0,-0.1 -2.784,0 0,0.1 c 0.168,0.009 0.304,0.033 0.407,0.072 0.104,0.039 0.194,0.1 0.273,0.181 0.093,0.093 0.155,0.21 0.187,0.353 0.032,0.142 0.048,0.363 0.048,0.662 l 0,3.211 c 0,0.299 -0.016,0.52 -0.048,0.662 -0.032,0.142 -0.094,0.26 -0.187,0.353 -0.079,0.084 -0.17,0.145 -0.275,0.183 -0.104,0.038 -0.24,0.061 -0.405,0.07 l 0,0.1 L 0,0 z"
             style="fill:#fdebda;fill-opacity:1;fill-rule:nonzero;stroke:none"
             id="path3186" />
        </g>
        <g
           id="g3188"
           transform="translate(875.5853,65.491)">
          <path
             inkscape:connector-curvature="0"
             d="m 0,0 c -0.183,0 -0.379,-0.006 -0.588,-0.017 -0.448,-0.024 -0.781,-0.08 -1,-0.17 -0.219,-0.09 -0.4,-0.246 -0.542,-0.466 -0.131,-0.204 -0.231,-0.479 -0.301,-0.828 l -0.1,0.009 0.078,1.607 5.895,0 0.078,-1.607 -0.1,-0.009 C 3.341,-1.078 3.219,-0.772 3.052,-0.564 2.885,-0.356 2.642,-0.208 2.322,-0.117 2.052,-0.039 1.595,0 0.95,0 l 0,-4.444 C 0.95,-4.74 0.966,-4.96 1,-5.104 1.033,-5.247 1.095,-5.366 1.185,-5.459 1.266,-5.543 1.359,-5.604 1.462,-5.642 1.565,-5.68 1.699,-5.703 1.865,-5.712 l 0,-0.1 -2.784,0 0,0.1 c 0.168,0.009 0.304,0.032 0.407,0.07 0.103,0.038 0.195,0.099 0.277,0.183 0.09,0.093 0.151,0.211 0.185,0.353 C -0.017,-4.964 0,-4.743 0,-4.444 L 0,0 z"
             style="fill:#fdebda;fill-opacity:1;fill-rule:nonzero;stroke:none"
             id="path3190" />
        </g>
        <g
           id="g3192"
           transform="translate(881.9308,59.6792)">
          <path
             inkscape:connector-curvature="0"
             d="M 0,0 0,0.129 C 0.214,0.141 0.388,0.17 0.523,0.219 0.658,0.268 0.778,0.347 0.882,0.455 0.998,0.575 1.077,0.727 1.118,0.911 1.16,1.094 1.18,1.379 1.18,1.765 L 1.186,2.861 C 1.186,3.019 1.154,3.193 1.091,3.384 1.019,3.605 0.873,3.882 0.652,4.216 L -0.804,6.402 -1.062,6.796 C -1.253,7.08 -1.441,7.276 -1.625,7.38 -1.718,7.437 -1.812,7.476 -1.906,7.498 -1.999,7.521 -2.13,7.536 -2.299,7.544 l 0,0.129 3.665,0 0,-0.129 C 1.055,7.525 0.856,7.496 0.77,7.459 0.56,7.369 0.455,7.206 0.455,6.97 0.455,6.884 0.479,6.786 0.526,6.678 0.572,6.569 0.648,6.432 0.753,6.267 L 2.277,3.884 3.581,5.919 3.727,6.149 C 3.865,6.367 3.935,6.58 3.935,6.79 3.935,7.03 3.858,7.215 3.704,7.347 3.551,7.478 3.335,7.544 3.058,7.544 l 0,0.129 2.586,0 0,-0.129 C 5.449,7.521 5.299,7.488 5.194,7.445 5.089,7.402 4.982,7.332 4.873,7.234 4.619,6.995 4.336,6.637 4.025,6.161 L 2.743,4.205 C 2.59,3.972 2.496,3.802 2.462,3.693 2.428,3.584 2.411,3.401 2.411,3.142 l 0,-1.377 c 0,-0.401 0.02,-0.688 0.06,-0.863 C 2.51,0.728 2.59,0.579 2.709,0.455 2.915,0.238 3.21,0.129 3.592,0.129 L 3.592,0 0,0 z"
             style="fill:#fdebda;fill-opacity:1;fill-rule:nonzero;stroke:none"
             id="path3194" />
        </g>
        <g
           id="g3196"
           transform="translate(877.7721,66.7952)">
          <path
             inkscape:connector-curvature="0"
             d="M 0,0 -50.231,0.182 -50.23,0.432 0.001,0.25 0,0 z"
             style="fill:#fdebda;fill-opacity:1;fill-rule:nonzero;stroke:none"
             id="path3198" />
        </g>
      </g>
    </g>
  </g>
</svg>
