<?xml version="1.0" encoding="UTF-8" standalone="no"?>
<!-- Created with Inkscape (http://www.inkscape.org/) -->

<svg
   xmlns:dc="http://purl.org/dc/elements/1.1/"
   xmlns:cc="http://creativecommons.org/ns#"
   xmlns:rdf="http://www.w3.org/1999/02/22-rdf-syntax-ns#"
   xmlns:svg="http://www.w3.org/2000/svg"
   xmlns="http://www.w3.org/2000/svg"
   xmlns:sodipodi="http://sodipodi.sourceforge.net/DTD/sodipodi-0.dtd"
   xmlns:inkscape="http://www.inkscape.org/namespaces/inkscape"
   width="76.179932"
   height="283.34009"
   id="svg4309"
   version="1.1"
   inkscape:version="0.48.4 r9939"
   sodipodi:docname="New document 9">
  <defs
     id="defs4311">
    <clipPath
       clipPathUnits="userSpaceOnUse"
       id="clipPath3586">
      <path
         inkscape:connector-curvature="0"
         d="m 0,5034.388 1362,0 L 1362,0 0,0 0,5034.388 z"
         id="path3588" />
    </clipPath>
  </defs>
  <sodipodi:namedview
     id="base"
     pagecolor="#ffffff"
     bordercolor="#666666"
     borderopacity="1.0"
     inkscape:pageopacity="0.0"
     inkscape:pageshadow="2"
     inkscape:zoom="0.35"
     inkscape:cx="-540.89909"
     inkscape:cy="122.59015"
     inkscape:document-units="px"
     inkscape:current-layer="g3584"
     showgrid="false"
     fit-margin-top="0"
     fit-margin-left="0"
     fit-margin-right="0"
     fit-margin-bottom="0"
     inkscape:window-width="705"
     inkscape:window-height="481"
     inkscape:window-x="926"
     inkscape:window-y="633"
     inkscape:window-maximized="0" />
  <metadata
     id="metadata4314">
    <rdf:RDF>
      <cc:Work
         rdf:about="">
        <dc:format>image/svg+xml</dc:format>
        <dc:type
           rdf:resource="http://purl.org/dc/dcmitype/StillImage" />
        <dc:title></dc:title>
      </cc:Work>
    </rdf:RDF>
  </metadata>
  <g
     inkscape:label="Layer 1"
     inkscape:groupmode="layer"
     id="layer1"
     transform="translate(-915.89909,1114.102)">
    <g
       transform="matrix(1.25,0,0,-1.25,-260.6433,3595.0323)"
       id="g3582">
      <g
         id="g3584"
         clip-path="url(#clipPath3586)">
        <path
           inkscape:connector-curvature="0"
           d="m 808.21,891.679 -116.93,0 0,23.947 116.93,0 0,-23.947 z"
           style="fill:none;stroke:#fdebda;stroke-width:2;stroke-linecap:butt;stroke-linejoin:miter;stroke-miterlimit:10;stroke-opacity:1;stroke-dasharray:none"
           id="path3590" />
        <g
           id="g3592"
           transform="translate(944.9501,3714.1104)">
          <path
             inkscape:connector-curvature="0"
             d="M 0,0 C -0.328,1.278 -0.595,2.325 -0.865,3.381 -1.439,2.314 -1.171,1.053 0,0 m 55.405,2.957 c 0.074,-0.041 0.148,-0.081 0.222,-0.121 0.211,0.539 0.664,1.113 0.586,1.612 -0.16,1.005 -0.277,2.145 -1.351,2.759 0.186,-1.455 0.364,-2.853 0.543,-4.25 M 29.509,24.854 c 0.121,0.384 0.194,0.505 0.192,0.624 -0.031,1.581 0.002,3.169 -0.154,4.743 -0.05,0.51 -0.604,0.98 -1.021,1.611 -0.548,-1.158 -0.853,-4.338 -0.445,-5.322 0.238,-0.57 0.839,-0.994 1.428,-1.656 M 10.627,5.203 c -0.101,0.087 -0.203,0.173 -0.305,0.259 0.326,0.44 0.735,0.839 0.959,1.326 0.438,0.956 0.92,1.929 1.108,2.951 0.199,1.084 -0.382,1.641 -1.528,1.719 0.148,-0.347 0.3,-0.635 0.392,-0.938 0.126,-0.415 0.376,-0.886 0.282,-1.257 C 11.165,7.797 10.689,6.333 9.436,5.361 8.511,4.643 7.487,4.056 6.525,3.381 6.318,3.235 6.197,2.966 6.038,2.753 6.314,2.642 6.667,2.366 6.851,2.448 c 1.213,0.539 2.456,1.059 3.552,1.787 0.723,0.479 1.22,1.293 1.817,1.958 -0.069,0.06 -0.14,0.119 -0.211,0.181 C 11.548,5.982 11.088,5.593 10.627,5.203 m 30.434,30.975 c 0.136,-0.027 0.272,-0.054 0.411,-0.08 0.199,0.368 0.571,0.734 0.567,1.105 -0.026,2.173 0.71,4.449 -0.867,6.456 -0.132,0.167 -0.063,0.474 -0.161,0.683 -0.537,1.151 -0.902,2.454 -1.698,3.394 -1.076,1.272 -2.807,1.88 -3.847,3.275 -0.152,0.202 -0.443,0.392 -0.687,0.422 -1.546,0.186 -3.129,0.578 -4.641,0.422 -2.312,-0.236 -4.562,-0.938 -6.865,-1.295 -2.494,-0.387 -4.117,-1.878 -5.409,-3.835 -0.166,-0.253 -0.074,-0.998 0.114,-1.096 0.333,-0.172 1.018,-0.203 1.231,0.018 1.737,1.797 4.07,2.289 6.349,2.88 1.426,0.37 2.882,0.648 4.342,0.876 1.094,0.173 2.26,0.44 3.31,0.225 0.942,-0.194 2.477,0.13 2.621,-1.587 0.007,-0.094 0.282,-0.165 0.424,-0.261 1.454,-0.99 2.603,-2.197 2.941,-3.994 0.048,-0.259 0.119,-0.567 0.29,-0.749 1.147,-1.22 1.063,-2.726 1.159,-4.213 0.057,-0.885 0.272,-1.763 0.416,-2.646 m 4.672,-50.497 c -1.416,-0.282 -1.704,-0.614 -1.374,-1.748 0.658,-2.262 0.495,-4.549 0.457,-6.836 -0.016,-0.879 0.011,-1.759 -0.021,-2.638 -0.064,-1.681 -0.029,-3.381 -0.261,-5.038 -0.491,-3.506 -1.107,-6.982 -1.002,-10.567 0.062,-2.087 -0.036,-4.211 -0.391,-6.256 -0.3,-1.715 -0.346,-3.314 0.47,-5.196 0.263,2.504 0.403,4.783 0.762,7.024 0.466,2.92 1.076,5.818 1.673,8.713 0.875,4.235 1.512,8.469 1.137,12.855 -0.276,3.244 -0.529,6.472 -1.45,9.687 M 31.836,29.033 c 0.85,0.301 1.692,0.524 2.464,0.892 0.706,0.338 1.368,0.791 1.989,1.269 1.192,0.915 1.242,2.473 1.948,3.635 0.936,1.543 0.993,3.049 0.66,4.735 -1.054,5.319 -3.17,7.055 -8.312,8.297 -1.573,0.38 -3.35,-0.044 -5.021,-0.211 -0.86,-0.085 -1.921,-0.163 -2.485,-0.681 -1.166,-1.067 -2.114,-2.389 -3.041,-3.686 -0.347,-0.487 -0.458,-1.186 -0.554,-1.807 -0.349,-2.265 0.155,-4.45 0.932,-6.57 0.806,-2.193 2.564,-3.465 4.536,-4.457 0.299,0.94 0.497,1.798 0.842,2.59 0.689,1.576 2.573,1.804 3.836,0.591 1.349,-1.295 1.995,-2.874 2.206,-4.597 M 50.618,-2.085 c 1.308,1.022 2.745,2.085 2.876,4.424 0.226,4.077 -0.81,7.7 -3.49,10.739 -3.832,4.343 -8.65,7.156 -14.356,8.321 -0.52,0.105 -1.302,0.288 -1.559,0.032 -0.718,-0.712 -1.14,-0.543 -1.405,-0.03 -0.485,-0.394 -0.923,-0.802 -1.416,-1.134 -0.531,-0.357 -1.08,-0.722 -1.679,-0.937 -0.928,-0.335 -1.888,-0.648 -2.862,-0.79 -1.566,-0.225 -3.166,-0.246 -4.736,-0.457 -1.394,-0.188 -2.768,-0.518 -4.336,-0.821 0.067,0.612 0.121,1.107 0.185,1.696 C 17.506,18.881 17.201,18.856 16.936,18.741 15.453,18.104 13.947,17.51 12.511,16.781 10.213,15.61 7.937,14.386 5.706,13.097 5,12.688 4.647,11.917 4.716,10.986 c 0.955,0.467 1.769,0.969 2.655,1.272 0.996,0.342 2.113,0.837 3.08,0.664 1.648,-0.295 3.087,-1.178 3.212,-3.187 C 13.776,7.911 14.334,6.003 12.694,4.536 12.268,4.156 11.865,3.749 11.414,3.402 10.921,3.022 10.514,2.684 10.62,1.93 10.662,1.619 10.349,1.155 10.061,0.935 8.78,-0.042 7.44,-0.946 6.143,-1.905 5.898,-2.087 5.627,-2.375 5.581,-2.654 5.501,-3.146 5.585,-3.67 5.599,-4.158 c 0.779,0.161 1.579,0.257 2.329,0.499 1.316,0.424 2.588,0.971 3.9,1.409 4.653,1.553 9.34,2.956 14.39,2.379 0.267,-0.031 0.641,-0.146 0.747,-0.336 0.12,-0.221 0.113,-0.679 -0.043,-0.846 -0.658,-0.708 -1.314,-1.391 -2.419,-1.508 -1.852,-0.198 -3.709,-0.44 -5.526,-0.831 C 16.404,-3.947 13.86,-4.634 11.316,-5.307 10.144,-5.616 8.979,-5.98 7.857,-6.429 7.531,-6.56 7.13,-7.086 7.17,-7.383 c 0.052,-0.386 0.499,-1.005 0.8,-1.024 0.695,-0.045 1.566,-0.002 2.076,0.381 1.815,1.364 3.895,2.065 6.007,2.794 2.659,0.917 5.29,1.803 8.179,1.742 1.428,-0.031 2.857,0.121 4.287,0.201 0.228,0.014 0.453,0.085 0.675,0.148 0.528,0.152 1.048,0.445 1.579,0.457 4.275,0.09 8.344,-1.096 12.418,-2.256 0.917,-0.261 1.884,-0.334 2.828,-0.494 0.025,0.11 0.05,0.217 0.076,0.325 l -9.322,3.916 c 0.04,0.128 0.08,0.259 0.12,0.387 0.346,-0.034 0.707,-0.017 1.037,-0.113 3.367,-0.975 6.728,-1.972 10.096,-2.949 0.293,-0.086 0.617,-0.075 0.926,-0.107 -0.802,0.663 -1.625,1.118 -2.486,1.481 -1.42,0.597 -2.898,1.063 -4.29,1.715 -2.949,1.385 -6.063,2.302 -9.25,2.387 C 29.319,1.702 25.7,2.128 22.07,1.558 19.194,1.109 16.314,0.888 13.709,-0.56 13.05,-0.927 12.168,-0.9 11.389,-1.053 c -0.031,0.096 -0.061,0.19 -0.092,0.284 0.898,0.408 1.807,0.798 2.692,1.233 0.508,0.25 0.948,0.754 1.473,0.835 2.239,0.339 4.49,0.698 6.752,0.8 3.782,0.173 7.496,0.91 11.309,0.854 3.188,-0.046 6.189,-0.856 9.146,-1.871 2.619,-0.896 5.157,-2.043 7.949,-3.167 M 20.622,-161.086 c 0.097,0.05 0.197,0.1 0.295,0.15 -0.273,1.21 -0.581,2.415 -0.815,3.632 -0.62,3.223 -1.835,6.237 -3.159,9.246 -1.199,2.73 -2.164,5.568 -3.081,8.403 -0.576,1.771 -0.886,3.624 -1.289,5.446 -0.382,1.722 -0.984,3.449 -1.04,5.18 -0.092,2.989 0.126,5.986 0.299,8.973 0.052,0.885 0.294,1.786 0.622,2.61 0.996,2.49 2.087,4.94 3.118,7.417 0.633,1.518 1.195,3.066 1.843,4.578 0.647,1.502 1.411,2.955 2.03,4.469 0.49,1.193 0.745,2.486 1.271,3.659 0.588,1.314 1.396,2.528 2.054,3.814 1.082,2.116 2.548,4.042 3.063,6.443 0.243,1.147 0.598,2.271 0.963,3.386 0.823,2.513 1.751,4.994 2.509,7.529 0.921,3.081 1.712,6.205 2.56,9.309 0.698,2.56 1.364,5.129 2.106,7.673 1.121,3.843 2.009,7.73 2.362,11.736 0.19,2.153 0.524,4.3 0.557,6.456 0.065,4.29 -0.027,8.584 -0.063,12.876 -0.029,3.349 -0.05,6.695 -0.114,10.043 -0.034,1.717 -0.128,3.436 -0.249,5.151 -0.098,1.397 0.343,2.232 1.677,2.642 0.548,0.169 1.193,0.029 1.775,0.133 0.585,0.107 1.364,0.172 1.669,0.56 0.495,0.629 -0.144,1.276 -0.679,1.575 -0.789,0.441 -1.676,0.829 -2.556,0.961 -2.65,0.396 -5.292,0.699 -7.999,0.668 -4.917,-0.058 -9.666,-0.67 -14.188,-2.565 -0.557,-0.234 -0.996,-0.553 -0.762,-1.207 0.266,-0.743 0.825,-0.482 1.366,-0.326 2.007,0.579 3.995,1.27 6.046,1.654 3.029,0.568 4.169,-0.436 4.414,-3.548 0.004,-0.035 0.01,-0.067 0.012,-0.102 0.138,-2.736 0.339,-5.47 0.395,-8.206 0.04,-1.955 -0.09,-3.912 -0.192,-5.863 -0.082,-1.581 -0.263,-3.154 -0.349,-4.735 -0.09,-1.643 -0.077,-3.295 -0.188,-4.937 -0.175,-2.581 -0.353,-5.163 -0.662,-7.726 -0.142,-1.19 -0.593,-2.337 -0.905,-3.504 -0.15,0.027 -0.302,0.054 -0.453,0.081 0.005,1.291 -0.056,2.59 0.029,3.875 0.199,3.068 0.558,6.125 0.679,9.195 0.075,1.911 -0.177,3.839 -0.261,5.759 -0.156,3.485 -0.288,6.967 -0.445,10.449 -0.102,2.257 -0.244,4.511 -0.336,6.767 -0.021,0.486 -0.121,0.891 -0.668,0.747 -0.827,-0.221 -1.619,-0.566 -2.246,-0.793 0.078,-2.44 0.168,-4.737 0.218,-7.035 0.035,-1.518 -0.019,-3.036 0.025,-4.551 0.058,-1.929 0.257,-3.857 0.242,-5.781 -0.025,-3.237 -0.163,-6.474 -0.267,-9.709 -0.084,-2.694 -0.054,-5.399 -0.309,-8.073 -0.493,-5.204 -2.039,-10.113 -4.29,-14.807 -0.986,-2.055 -1.888,-4.151 -2.791,-6.245 -1.367,-3.173 -2.694,-6.364 -4.049,-9.543 -0.434,-1.017 -1.003,-1.986 -1.337,-3.034 -0.739,-2.331 -1.353,-4.704 -2.047,-7.051 -0.313,-1.059 -0.772,-2.078 -1.029,-3.15 -0.485,-2.02 -0.882,-4.065 -1.297,-6.105 -0.272,-1.349 -0.571,-2.698 -0.748,-4.064 -0.311,-2.406 -0.723,-4.822 -0.743,-7.241 -0.022,-2.619 0.275,-5.253 0.576,-7.868 0.545,-4.745 0.988,-9.507 2.398,-14.133 0.802,-2.631 1.246,-5.365 2.631,-7.815 0.602,-1.065 1.103,-2.185 1.652,-3.281 0.439,-0.88 0.861,-1.77 1.322,-2.64 1.542,-2.914 3.181,-5.782 4.628,-8.743 1.279,-2.615 2.342,-5.332 3.526,-7.995 0.144,-0.322 0.445,-0.581 0.674,-0.869 M 7.655,4.887 C 9.1,5.973 10.316,7.231 10.787,9.05 11.036,10.015 10.61,10.794 9.676,11.138 8.461,11.583 7.392,11.211 6.429,10.562 4.603,9.334 3.524,7.654 3.931,5.366 4.027,4.822 4.739,3.918 5.063,3.954 5.965,4.056 6.813,4.568 7.68,4.917 L 7.655,4.887 z m 14.434,-178.362 c -0.715,1.387 -1.381,2.717 -2.079,4.029 -1.708,3.205 -3.446,6.395 -5.14,9.607 -1.108,2.101 -2.05,4.292 -3.256,6.334 -2.011,3.401 -4.043,6.805 -6.311,10.04 -2.147,3.066 -3.91,6.291 -5.357,9.708 -0.383,0.904 -0.932,1.762 -1.182,2.694 -0.478,1.794 -0.859,3.616 -1.164,5.443 -0.445,2.671 -0.917,5.348 -1.138,8.037 -0.217,2.646 -0.181,5.313 -0.167,7.968 0.013,2.896 0.038,5.795 0.226,8.677 0.194,2.95 0.394,5.927 0.958,8.812 0.499,2.552 1.519,4.992 2.273,7.492 0.388,1.282 0.641,2.608 1.058,3.88 0.748,2.296 1.609,4.557 2.356,6.855 0.911,2.803 1.866,5.601 2.592,8.456 0.894,3.515 1.658,7.07 2.3,10.641 0.29,1.604 0.129,3.294 0.221,4.94 0.132,2.356 0.397,4.705 0.443,7.063 0.05,2.59 0.015,5.192 -0.159,7.78 -0.392,5.806 -0.894,11.606 -1.347,17.408 -0.125,1.621 -0.18,3.248 -0.372,4.862 -0.054,0.447 -0.497,0.848 -0.727,1.287 -0.317,0.606 -0.699,1.205 -0.881,1.851 -0.336,1.192 -0.539,2.418 -0.81,3.627 -0.028,0.122 -0.109,0.251 -0.201,0.341 -1.602,1.574 -3.158,3.195 -4.828,4.693 -1.797,1.616 -1.941,4.018 -0.449,5.887 0.95,1.191 1.593,2.628 2.362,3.964 1.894,3.284 4.515,5.857 7.89,7.582 2.932,1.497 5.926,2.888 8.966,4.154 1.043,0.436 1.941,0.754 1.982,2.013 1.026,0.157 1.943,0.293 2.857,0.439 0.128,0.021 0.349,0.083 0.356,0.146 0.096,0.869 0.227,1.742 0.19,2.609 -0.009,0.232 -0.525,0.516 -0.857,0.666 -2.358,1.063 -4.53,2.331 -5.428,4.95 -0.662,1.93 -1.405,3.851 -1.834,5.829 -0.409,1.878 -0.478,3.807 0.134,5.708 0.639,1.993 1.163,4.022 2.416,5.739 0.247,0.339 0.556,0.667 0.909,0.886 2.767,1.711 5.848,2.577 9.056,3.051 1.629,0.24 3.271,0.518 4.912,0.524 2.108,0.009 3.868,-0.889 5.159,-2.66 1.167,-1.6 2.521,-3.075 3.572,-4.743 0.63,-0.995 0.95,-2.227 1.194,-3.394 0.284,-1.35 0.531,-2.765 0.435,-4.119 -0.17,-2.408 -0.93,-4.705 -2.285,-6.698 -0.938,-1.38 -2.108,-2.609 -3.252,-3.833 -0.518,-0.551 -1.245,-0.902 -1.842,-1.388 -0.479,-0.393 -0.911,-0.848 -1.354,-1.283 -0.373,-0.365 -0.729,-0.743 -1.146,-1.167 0.065,-0.103 0.129,-0.345 0.275,-0.418 1.107,-0.553 2.195,-1.395 3.353,-1.543 3.496,-0.441 6.192,-2.459 8.985,-4.274 1.691,-1.098 3.333,-2.328 4.782,-3.721 1.057,-1.015 1.963,-2.306 2.563,-3.635 C 53.855,9.087 54.806,8.406 55.679,7.519 56.42,6.767 56.89,5.62 57.155,4.572 57.46,3.36 56.778,2.483 55.635,1.921 55.301,1.756 54.969,1.199 54.979,0.825 55.019,-0.89 53.95,-1.83 52.688,-2.598 c -1.592,-0.965 -1.721,-1.485 -1.276,-3.265 0.276,-1.107 0.177,-2.322 0.104,-3.479 -0.021,-0.334 -0.48,-0.698 -0.821,-0.93 -0.636,-0.43 -0.822,-0.99 -0.808,-1.729 0.097,-5.407 0.153,-10.814 0.266,-16.22 0.05,-2.337 0.375,-4.686 0.273,-7.011 -0.159,-3.645 -0.48,-7.289 -0.902,-10.912 -0.618,-5.328 -1.197,-10.675 -2.147,-15.945 -0.886,-4.924 -1.64,-9.933 -4.02,-14.438 -1.018,-1.931 -2.141,-3.807 -3.14,-5.747 -1.073,-2.083 -2.051,-4.217 -3.078,-6.325 -0.205,-0.424 -0.435,-0.833 -0.648,-1.253 -1.785,-3.51 -3.832,-6.856 -6.073,-10.09 -0.777,-1.123 -1.398,-2.368 -1.968,-3.615 -1.424,-3.114 -2.838,-6.234 -4.141,-9.4 -1.573,-3.816 -2.484,-7.797 -2.686,-11.968 -0.148,-3.093 -0.311,-6.169 -0.215,-9.279 0.106,-3.379 0.827,-6.604 1.583,-9.881 0.936,-4.064 1.571,-8.2 2.139,-12.329 0.373,-2.707 0.557,-5.463 0.52,-8.187 -0.029,-2.143 -0.522,-4.271 -0.807,-6.406 -0.023,-0.167 -0.068,-0.334 -0.064,-0.501 0.021,-0.898 -0.284,-1.483 -1.297,-1.56 -0.427,-0.033 -0.838,-0.238 -1.393,-0.407"
             style="fill:#be8f42;fill-opacity:1;fill-rule:nonzero;stroke:none"
             id="path3594" />
        </g>
        <g
           id="g3596"
           transform="translate(996.6138,3718.8853)">
          <path
             inkscape:connector-curvature="0"
             d="m 0,0 c -2.293,0.739 -4.388,1.416 -6.602,2.13 0.737,1.726 0.412,3.365 -0.555,4.839 -0.324,0.531 -0.625,1.08 -0.98,1.59 -0.422,0.608 -0.819,1.263 -1.357,1.76 -1.429,1.317 -2.929,2.559 -4.397,3.839 -0.146,0.128 -0.252,0.305 -0.551,0.681 0.489,0.031 0.808,0.134 1.073,0.054 3.624,-1.107 6.763,-3.078 9.633,-5.515 C -3.344,9.046 -2.978,8.682 -2.617,8.317 -1.788,7.483 -1.109,6.579 -0.883,5.376 -0.624,3.993 -0.248,2.63 0.038,1.249 0.109,0.906 0.021,0.533 0,0"
             style="fill:#be8f42;fill-opacity:1;fill-rule:nonzero;stroke:none"
             id="path3598" />
        </g>
        <g
           id="g3600"
           transform="translate(973.387,3721.4343)">
          <path
             inkscape:connector-curvature="0"
             d="m 0,0 c 0.387,-0.731 0.823,-1.55 1.435,-2.707 -2.001,-0.125 -3.67,-0.257 -5.344,-0.33 -2.829,-0.123 -5.702,0.107 -8.399,-1 -0.459,-0.188 -0.983,-0.224 -1.595,-0.357 -0.36,1.234 -0.161,2.335 0.292,3.383 0.09,0.211 0.554,0.309 0.865,0.368 2.681,0.518 5.394,0.159 8.097,0.15 C -3.145,-0.497 -1.646,-0.186 0,0"
             style="fill:#be8f42;fill-opacity:1;fill-rule:nonzero;stroke:none"
             id="path3602" />
        </g>
        <g
           id="g3604"
           transform="translate(986.7856,3725.269)">
          <path
             inkscape:connector-curvature="0"
             d="M 0,0 C 0.769,-0.739 0.627,-1.303 0.082,-1.913 -1.293,-3.448 -2.893,-3.73 -4.85,-2.98 c -1.457,0.557 -2.852,1.119 -3.842,2.397 -0.727,0.936 -0.266,2.762 0.841,3.11 0.669,0.211 1.376,0.341 2.076,0.437 0.702,0.098 1.145,0.048 1.381,-0.938 0.307,-1.284 1.648,-1.817 2.777,-2.383 C -1.017,-0.658 -0.374,-0.944 0,0"
             style="fill:#be8f42;fill-opacity:1;fill-rule:nonzero;stroke:none"
             id="path3606" />
        </g>
        <g
           id="g3608"
           transform="translate(972.6644,3723.302)">
          <path
             inkscape:connector-curvature="0"
             d="m 0,0 c -1.055,-0.152 -2.097,-0.411 -3.149,-0.43 -2.306,-0.04 -4.616,0.075 -6.924,0.052 -0.698,-0.008 -1.391,-0.257 -2.124,-0.403 -0.37,0.75 -0.071,1.274 0.694,1.5 0.933,0.275 1.883,0.518 2.844,0.66 2.043,0.3 4.098,0.543 6.153,0.772 C -1.002,2.318 -0.418,1.838 0,0"
             style="fill:#be8f42;fill-opacity:1;fill-rule:nonzero;stroke:none"
             id="path3610" />
        </g>
        <g
           id="g3612"
           transform="translate(975.0768,3724.3635)">
          <path
             inkscape:connector-curvature="0"
             d="m 0,0 c 0.591,-0.606 1.163,-1.236 1.776,-1.817 2.687,-2.538 5.841,-2.901 8.97,-1.449 2.374,1.104 2.888,3.659 0.38,5.737 -0.696,0.576 -1.592,0.923 -2.423,1.32 -0.81,0.384 -1.652,0.697 -2.485,1.044 2.679,0.462 6.117,-1.33 7.021,-3.586 0.662,-1.656 -0.141,-3.436 -1.23,-4.363 -2.967,-2.527 -6.576,-2.594 -9.816,-0.224 -0.91,0.665 -1.597,1.64 -2.352,2.502 -0.127,0.143 -0.087,0.429 -0.125,0.65 C -0.188,-0.125 -0.094,-0.062 0,0"
             style="fill:#be8f42;fill-opacity:1;fill-rule:nonzero;stroke:none"
             id="path3614" />
        </g>
        <g
           id="g3616"
           transform="translate(995.1646,3715.5989)">
          <path
             inkscape:connector-curvature="0"
             d="M 0,0 C -0.785,-1.011 -1.554,-1.03 -2.661,-0.577 -4.417,0.14 -6.288,0.57 -8.105,1.138 -8.423,1.238 -8.72,1.412 -8.978,1.702 -5.821,2.032 -2.928,1.08 0,0"
             style="fill:#be8f42;fill-opacity:1;fill-rule:nonzero;stroke:none"
             id="path3618" />
        </g>
        <g
           id="g3620"
           transform="translate(996.5089,3717.5178)">
          <path
             inkscape:connector-curvature="0"
             d="m 0,0 c -0.299,-0.129 -0.637,-0.418 -0.894,-0.357 -2.473,0.589 -4.935,1.238 -7.401,1.869 0.826,1.138 1.752,1.128 2.934,0.639 1.7,-0.703 3.479,-1.209 5.223,-1.8 C -0.092,0.234 -0.046,0.117 0,0"
             style="fill:#be8f42;fill-opacity:1;fill-rule:nonzero;stroke:none"
             id="path3622" />
        </g>
        <g
           id="g3624"
           transform="translate(962.4109,3726.6763)">
          <path
             inkscape:connector-curvature="0"
             d="M 0,0 C 0.245,0.198 0.468,0.531 0.741,0.572 2.841,0.888 4.954,1.151 7.064,1.42 7.373,1.458 7.69,1.433 8.005,1.437 8.018,1.32 8.029,1.201 8.043,1.082 5.405,0.668 2.769,0.253 0.13,-0.163 0.088,-0.109 0.044,-0.054 0,0"
             style="fill:#be8f42;fill-opacity:1;fill-rule:nonzero;stroke:none"
             id="path3626" />
        </g>
        <g
           id="g3628"
           transform="translate(976.4432,3727.1375)">
          <path
             inkscape:connector-curvature="0"
             d="M 0,0 C -0.712,-2.824 1.598,-3.759 2.955,-5.25 1.894,-5.369 -0.234,-3.36 -0.691,-1.742 -0.869,-1.113 -1.076,-0.441 0,0"
             style="fill:#be8f42;fill-opacity:1;fill-rule:nonzero;stroke:none"
             id="path3630" />
        </g>
        <g
           id="g3632"
           transform="translate(969.7644,3730.3906)">
          <path
             inkscape:connector-curvature="0"
             d="m 0,0 c -1.326,-0.244 -2.652,-0.486 -3.978,-0.729 1.15,0.975 2.537,0.971 3.909,1.028 C -0.046,0.199 -0.023,0.1 0,0"
             style="fill:#be8f42;fill-opacity:1;fill-rule:nonzero;stroke:none"
             id="path3634" />
        </g>
        <g
           id="g3636"
           transform="translate(984.6447,3720.8909)">
          <path
             inkscape:connector-curvature="0"
             d="M 0,0 C -1.464,0.148 -2.928,0.295 -4.394,0.441 -4.388,0.506 -4.382,0.57 -4.376,0.633 -2.909,0.558 -1.441,0.481 0.027,0.407 0.017,0.271 0.009,0.136 0,0"
             style="fill:#be8f42;fill-opacity:1;fill-rule:nonzero;stroke:none"
             id="path3638" />
        </g>
        <g
           id="g3640"
           transform="translate(952.6312,3719.0278)">
          <path
             inkscape:connector-curvature="0"
             d="m 0,0 c -0.154,-0.034 -0.321,-0.042 -0.461,-0.105 -1.753,-0.793 -2.983,0.051 -2.856,1.968 0.109,1.658 1.356,3.271 2.726,3.607 C -0.739,4.95 -0.996,4.401 -1.036,3.833 -1.1,2.897 -0.311,2.446 0.535,2.872 0.775,2.993 0.992,3.158 1.228,3.283 1.452,3.402 1.688,3.496 2.043,3.657 1.78,2.072 0.911,1.003 -0.025,-0.031 L 0,0"
             style="fill:#be8f42;fill-opacity:1;fill-rule:nonzero;stroke:none"
             id="path3642" />
        </g>
      </g>
    </g>
  </g>
</svg>
